{
.appVersion = "983";
DisplayStrings = (
"ABCDEFGHIJKLMNOPQRSTUVWXYZa/_cap.stm.top.1/_stem.1/_bowl.1 bc/_cap.stm.btm.4/_stem.2 de/_cap.stm.btm.3 fg/_stem.4/_shoulder.1 h/_cap.stm.mid.2/_cap.stm.btm.2/idotless/dotaccent i/jdotless j/_stem.4 kl/_cap.stm.mid.1 m/_stem.6 no/_stem.5 p/_stem.3 qrstuvwxyz",
"\U00B7",
"V/idotless nbncndnenfngnhninjnkanlnmnnonpnqnrnsntnunvnwn/wdieresis nxnyn/ydieresis nzn /_shoulder.1 n",
"/f_f_i gure figuroe /f_f_l",
N/Ncommaaccent/Eng,
"/f_f_i/f_f_l \012/f_i igure figure\012/f_l oat",
/c_t,
A,
"t/_cap.stm.btm.3/_cap.stm.top.1/_stem.4 he /_stem.3 quick bro wn fox ju/_cap.stm.mid.1 mps over the /idotless i/_cap.stm.btm.2 lazy dog",
"/c_t/t.forliga.1/s_t t",
MVHWX,
"proSB&Bg/f_f/_stem.2 d/dcaron dessional",
"/f_f/f_f_i/f_f_l/f_i/f_l f",
/uogonek,
/Aogonek/Eogonek/Iogonek/Uogonek/aogonek/eogonek/iogonek/uogonek,
",",
",;/quotedblleft/quotedblright/quoteleft/quoteright",

glyphs = (
{
glyphname = A;
lastChange = "2017-05-27 23:13:25 +0000";
layers = (
{
anchors = (
{
name = bottom;
position = "{313, 0}";
},
{
name = ogonek;
position = "{577, 0}";
},
{
name = top;
position = "{328, 650}";
}
);
layerId = "4A3087DE-C6CF-4F86-8B90-A264D0797279";
paths = (
{
closed = 1;
nodes = (
"171 261 LINE",
"450 261 LINE",
"436 295 LINE",
"185 295 LINE"
);
},
{
closed = 1;
nodes = (
"167 194 OFFCURVE",
"230 364 OFFCURVE",
"313 558 CURVE",
"292 558 LINE",
"357 392 OFFCURVE",
"434 191 OFFCURVE",
"504 0 CURVE",
"572 0 LINE",
"589 0 OFFCURVE",
"609 0 OFFCURVE",
"640 -1 CURVE",
"640 23 OFFCURVE",
"640 26 OFFCURVE",
"638 26 CURVE",
"624 26 OFFCURVE",
"614 26 OFFCURVE",
"609 27 CURVE",
"595 30 OFFCURVE",
"578 43 OFFCURVE",
"488 274 CURVE SMOOTH",
"337 660 LINE",
"318 660 LINE",
"154 271 LINE SMOOTH",
"58 43 OFFCURVE",
"39 30 OFFCURVE",
"25 27 CURVE",
"20 26 OFFCURVE",
"10 26 OFFCURVE",
"-4 26 CURVE",
"-6 26 OFFCURVE",
"-6 23 OFFCURVE",
"-6 -1 CURVE",
"25 0 OFFCURVE",
"45 0 OFFCURVE",
"62 0 CURVE",
"95 0 LINE"
);
}
);
width = 645;
}
);
leftKerningGroup = A;
rightKerningGroup = A;
unicode = 0041;
},
{
glyphname = Aogonek;
lastChange = "2017-05-27 12:32:20 +0000";
layers = (
{
components = (
{
name = A;
}
);
layerId = "4A3087DE-C6CF-4F86-8B90-A264D0797279";
paths = (
{
closed = 1;
nodes = (
"498 -202 OFFCURVE",
"473 -181 OFFCURVE",
"473 -126 CURVE SMOOTH",
"473 -82 OFFCURVE",
"502 -36 OFFCURVE",
"532 -18 CURVE SMOOTH",
"549 -8 OFFCURVE",
"564 -1 OFFCURVE",
"639 -1 CURVE",
"526 13 LINE",
"484 -7 OFFCURVE",
"417 -70 OFFCURVE",
"417 -137 CURVE SMOOTH",
"417 -198 OFFCURVE",
"458 -228 OFFCURVE",
"500 -228 CURVE SMOOTH",
"538 -228 OFFCURVE",
"561 -217 OFFCURVE",
"584 -198 CURVE",
"577 -187 LINE",
"558 -198 OFFCURVE",
"543 -202 OFFCURVE",
"526 -202 CURVE SMOOTH"
);
}
);
width = 661;
}
);
leftKerningGroup = A;
rightKerningGroup = A;
unicode = 0104;
},
{
glyphname = AE;
lastChange = "2017-05-27 13:23:46 +0000";
layers = (
{
hints = (
{
origin = "{0, 10}";
type = Corner;
name = _corner.STM.btm.1;
},
{
origin = "{1, 2}";
type = Corner;
name = _corner.STM.btm.1;
}
);
layerId = "4A3087DE-C6CF-4F86-8B90-A264D0797279";
paths = (
{
closed = 1;
nodes = (
"210 182 OFFCURVE",
"334 399 OFFCURVE",
"454 601 CURVE",
"535 650 LINE",
"493 650 OFFCURVE",
"457 650 OFFCURVE",
"425 652 CURVE",
"403 599 OFFCURVE",
"359 513 OFFCURVE",
"302 418 CURVE SMOOTH",
"52 0 LINE",
"114 0 LINE"
);
},
{
closed = 1;
nodes = (
"521 650 LINE",
"445 650 LINE",
"445 0 LINE",
"521 0 LINE"
);
},
{
closed = 1;
nodes = (
"239 261 LINE",
"478 261 LINE",
"464 295 LINE",
"253 295 LINE"
);
},
{
closed = 1;
nodes = (
"599 34 OFFCURVE",
"561 38 OFFCURVE",
"542 53 CURVE SMOOTH",
"525 66 OFFCURVE",
"521 91 OFFCURVE",
"521 164 CURVE",
"514 0 LINE",
"641 0 LINE SMOOTH",
"685 0 OFFCURVE",
"724 1 OFFCURVE",
"774 -2 CURVE SMOOTH",
"790 -3 OFFCURVE",
"806 0 OFFCURVE",
"808 5 CURVE SMOOTH",
"823 43 OFFCURVE",
"827 73 OFFCURVE",
"831 91 CURVE",
"809 99 OFFCURVE",
"808 98 OFFCURVE",
"807 97 CURVE",
"797 83 LINE SMOOTH",
"768 43 OFFCURVE",
"740 34 OFFCURVE",
"651 34 CURVE SMOOTH"
);
},
{
closed = 1;
nodes = (
"511 334 LINE",
"736 334 LINE",
"741 334 OFFCURVE",
"742 336 OFFCURVE",
"742 370 CURVE",
"713 369 OFFCURVE",
"688 368 OFFCURVE",
"656 368 CURVE SMOOTH",
"511 368 LINE"
);
},
{
closed = 1;
nodes = (
"532 615 OFFCURVE",
"556 616 OFFCURVE",
"604 616 CURVE SMOOTH",
"680 616 OFFCURVE",
"713 608 OFFCURVE",
"737 574 CURVE SMOOTH",
"751 554 LINE",
"771 559 OFFCURVE",
"772 560 OFFCURVE",
"772 561 CURVE",
"769 579 OFFCURVE",
"763 611 OFFCURVE",
"749 647 CURVE SMOOTH",
"747 652 OFFCURVE",
"738 654 OFFCURVE",
"720 653 CURVE SMOOTH",
"670 650 OFFCURVE",
"631 650 OFFCURVE",
"582 650 CURVE SMOOTH",
"492 650 LINE",
"503 612 LINE"
);
}
);
width = 849;
}
);
leftKerningGroup = AE;
rightKerningGroup = E;
rightMetricsKey = E;
unicode = 00C6;
},
{
glyphname = B;
lastChange = "2017-05-27 13:24:31 +0000";
layers = (
{
hints = (
{
origin = "{1, 1}";
type = Corner;
name = _corner.STM.btm.1;
},
{
origin = "{1, 0}";
scale = "{-1, 1}";
type = Corner;
name = _corner.STM.top.1;
}
);
layerId = "4A3087DE-C6CF-4F86-8B90-A264D0797279";
paths = (
{
closed = 1;
nodes = (
"148 0 LINE",
"190 0 OFFCURVE",
"226 -4 OFFCURVE",
"250 -4 CURVE SMOOTH",
"374 -4 OFFCURVE",
"506 46 OFFCURVE",
"506 183 CURVE SMOOTH",
"506 285 OFFCURVE",
"429 356 OFFCURVE",
"297 353 CURVE",
"297 346 LINE",
"368 357 OFFCURVE",
"442 414 OFFCURVE",
"442 499 CURVE SMOOTH",
"442 586 OFFCURVE",
"378 654 OFFCURVE",
"251 654 CURVE SMOOTH",
"215 654 OFFCURVE",
"184 650 OFFCURVE",
"148 650 CURVE",
"169 615 LINE",
"181 620 OFFCURVE",
"197 621 OFFCURVE",
"212 621 CURVE SMOOTH",
"319 621 OFFCURVE",
"362 563 OFFCURVE",
"362 486 CURVE SMOOTH",
"362 420 OFFCURVE",
"321 361 OFFCURVE",
"244 361 CURVE SMOOTH",
"169 361 LINE",
"169 327 LINE",
"231 327 LINE SMOOTH",
"368 327 OFFCURVE",
"421 269 OFFCURVE",
"421 171 CURVE SMOOTH",
"421 87 OFFCURVE",
"358 30 OFFCURVE",
"268 30 CURVE SMOOTH",
"239 30 OFFCURVE",
"218 34 OFFCURVE",
"200 45 CURVE SMOOTH",
"186 54 OFFCURVE",
"178 70 OFFCURVE",
"178 133 CURVE"
);
},
{
closed = 1;
nodes = (
"102 650 LINE",
"102 0 LINE",
"178 0 LINE",
"178 650 LINE"
);
}
);
width = 553;
}
);
leftKerningGroup = H;
leftMetricsKey = H;
rightKerningGroup = B;
unicode = 0042;
},
{
glyphname = C;
lastChange = "2017-05-27 13:23:46 +0000";
layers = (
{
anchors = (
{
name = bottom;
position = "{368, 0}";
},
{
name = top;
position = "{373, 650}";
}
);
layerId = "4A3087DE-C6CF-4F86-8B90-A264D0797279";
paths = (
{
closed = 1;
nodes = (
"533 66 OFFCURVE",
"465 43 OFFCURVE",
"384 43 CURVE SMOOTH",
"244 43 OFFCURVE",
"123 145 OFFCURVE",
"123 338 CURVE SMOOTH",
"123 521 OFFCURVE",
"238 623 OFFCURVE",
"363 623 CURVE",
"413 670 LINE",
"199 670 OFFCURVE",
"43 520 OFFCURVE",
"43 310 CURVE SMOOTH",
"43 104 OFFCURVE",
"177 -14 OFFCURVE",
"353 -14 CURVE SMOOTH",
"450 -14 OFFCURVE",
"518 10 OFFCURVE",
"594 67 CURVE SMOOTH",
"602 73 OFFCURVE",
"607 78 OFFCURVE",
"607 86 CURVE SMOOTH",
"607 93 OFFCURVE",
"606 98 OFFCURVE",
"596 116 CURVE"
);
},
{
closed = 1;
nodes = (
"466 623 OFFCURVE",
"553 566 OFFCURVE",
"589 463 CURVE",
"607 466 LINE",
"607 521 OFFCURVE",
"606 537 OFFCURVE",
"600 563 CURVE SMOOTH",
"587 621 OFFCURVE",
"510 670 OFFCURVE",
"413 670 CURVE",
"363 623 LINE"
);
}
);
width = 652;
}
);
leftKerningGroup = O;
leftMetricsKey = O;
rightKerningGroup = C;
unicode = 0043;
},
{
glyphname = D;
lastChange = "2017-05-27 13:24:11 +0000";
layers = (
{
anchors = (
{
name = bottom;
position = "{371, 0}";
},
{
name = center;
position = "{143, 339}";
},
{
name = top;
position = "{353, 650}";
}
);
hints = (
{
origin = "{1, 3}";
type = Corner;
name = _corner.STM.btm.1;
},
{
origin = "{1, 2}";
scale = "{-1, 1}";
type = Corner;
name = _corner.STM.top.1;
}
);
layerId = "4A3087DE-C6CF-4F86-8B90-A264D0797279";
paths = (
{
closed = 1;
nodes = (
"159 0 LINE",
"238 0 OFFCURVE",
"272 -4 OFFCURVE",
"319 -4 CURVE SMOOTH",
"537 -4 OFFCURVE",
"671 162 OFFCURVE",
"671 369 CURVE SMOOTH",
"671 566 OFFCURVE",
"535 654 OFFCURVE",
"315 654 CURVE SMOOTH",
"280 654 OFFCURVE",
"197 650 OFFCURVE",
"149 650 CURVE",
"169 616 LINE",
"193 619 OFFCURVE",
"219 620 OFFCURVE",
"252 620 CURVE SMOOTH",
"458 620 OFFCURVE",
"589 530 OFFCURVE",
"589 328 CURVE SMOOTH",
"589 149 OFFCURVE",
"476 30 OFFCURVE",
"319 30 CURVE SMOOTH",
"277 30 OFFCURVE",
"248 33 OFFCURVE",
"221 47 CURVE SMOOTH",
"192 62 OFFCURVE",
"178 79 OFFCURVE",
"178 165 CURVE"
);
},
{
closed = 1;
nodes = (
"178 0 LINE",
"178 650 LINE",
"102 650 LINE",
"102 0 LINE"
);
}
);
width = 714;
}
);
leftKerningGroup = H;
leftMetricsKey = H;
rightKerningGroup = O;
rightMetricsKey = O;
unicode = 0044;
},
{
glyphname = E;
lastChange = "2017-05-27 13:24:11 +0000";
layers = (
{
anchors = (
{
name = bottom;
position = "{264, 0}";
},
{
name = ogonek;
position = "{482, -1}";
},
{
name = top;
position = "{259, 650}";
},
{
name = topleft;
position = "{41, 650}";
}
);
hints = (
{
origin = "{0, 1}";
scale = "{-1, 1}";
type = Corner;
name = _corner.STM.top.1;
},
{
origin = "{0, 2}";
type = Corner;
name = _corner.STM.btm.1;
}
);
layerId = "4A3087DE-C6CF-4F86-8B90-A264D0797279";
paths = (
{
closed = 1;
nodes = (
"178 650 LINE",
"102 650 LINE",
"102 0 LINE",
"178 0 LINE"
);
},
{
closed = 1;
nodes = (
"256 34 OFFCURVE",
"218 38 OFFCURVE",
"199 53 CURVE SMOOTH",
"182 66 OFFCURVE",
"178 91 OFFCURVE",
"178 164 CURVE",
"171 0 LINE",
"298 0 LINE SMOOTH",
"342 0 OFFCURVE",
"381 0 OFFCURVE",
"431 -2 CURVE SMOOTH",
"447 -3 OFFCURVE",
"463 0 OFFCURVE",
"465 5 CURVE SMOOTH",
"476 44 OFFCURVE",
"484 73 OFFCURVE",
"488 91 CURVE",
"466 99 OFFCURVE",
"465 98 OFFCURVE",
"464 97 CURVE",
"454 83 LINE SMOOTH",
"425 43 OFFCURVE",
"397 34 OFFCURVE",
"308 34 CURVE SMOOTH"
);
},
{
closed = 1;
nodes = (
"168 334 LINE",
"393 334 LINE",
"398 334 OFFCURVE",
"399 336 OFFCURVE",
"399 370 CURVE",
"370 369 OFFCURVE",
"345 368 OFFCURVE",
"313 368 CURVE SMOOTH",
"168 368 LINE"
);
},
{
closed = 1;
nodes = (
"189 615 OFFCURVE",
"213 616 OFFCURVE",
"261 616 CURVE SMOOTH",
"337 616 OFFCURVE",
"371 608 OFFCURVE",
"394 574 CURVE SMOOTH",
"408 554 LINE",
"428 559 OFFCURVE",
"429 560 OFFCURVE",
"429 561 CURVE",
"426 579 OFFCURVE",
"418 610 OFFCURVE",
"406 647 CURVE SMOOTH",
"404 652 OFFCURVE",
"395 654 OFFCURVE",
"377 653 CURVE SMOOTH",
"327 650 OFFCURVE",
"288 650 OFFCURVE",
"239 650 CURVE SMOOTH",
"149 650 LINE",
"160 612 LINE"
);
}
);
width = 506;
}
);
leftKerningGroup = H;
leftMetricsKey = H;
rightKerningGroup = E;
unicode = 0045;
},
{
glyphname = Eogonek;
lastChange = "2017-05-28 04:34:24 +0000";
layers = (
{
anchors = (
{
name = _ogonek;
position = "{465, -1}";
}
);
components = (
{
name = E;
}
);
layerId = "4A3087DE-C6CF-4F86-8B90-A264D0797279";
paths = (
{
closed = 1;
nodes = (
"395 -203 OFFCURVE",
"370 -182 OFFCURVE",
"370 -127 CURVE SMOOTH",
"370 -71 OFFCURVE",
"408 -35 OFFCURVE",
"460 0 CURVE SMOOTH",
"463 2 OFFCURVE",
"464 3 OFFCURVE",
"465 5 CURVE",
"459 16 LINE",
"381 -8 OFFCURVE",
"314 -71 OFFCURVE",
"314 -138 CURVE SMOOTH",
"314 -199 OFFCURVE",
"355 -229 OFFCURVE",
"397 -229 CURVE SMOOTH",
"435 -229 OFFCURVE",
"458 -218 OFFCURVE",
"481 -199 CURVE",
"474 -188 LINE",
"455 -199 OFFCURVE",
"440 -203 OFFCURVE",
"423 -203 CURVE SMOOTH"
);
}
);
width = 489;
}
);
leftKerningGroup = H;
rightKerningGroup = E;
unicode = 0118;
},
{
glyphname = F;
lastChange = "2017-05-27 13:24:11 +0000";
layers = (
{
hints = (
{
origin = "{0, 2}";
type = Corner;
name = _corner.STM.btm.1;
},
{
origin = "{0, 1}";
scale = "{-1, 1}";
type = Corner;
name = _corner.STM.top.1;
},
{
origin = "{0, 3}";
scale = "{-1, 1}";
type = Corner;
name = _corner.STM.btm.1;
}
);
layerId = "4A3087DE-C6CF-4F86-8B90-A264D0797279";
paths = (
{
closed = 1;
nodes = (
"178 650 LINE",
"102 650 LINE",
"102 0 LINE",
"178 0 LINE"
);
},
{
closed = 1;
nodes = (
"168 334 LINE",
"408 334 LINE SMOOTH",
"413 334 OFFCURVE",
"414 336 OFFCURVE",
"414 370 CURVE",
"385 369 OFFCURVE",
"360 368 OFFCURVE",
"328 368 CURVE SMOOTH",
"168 368 LINE"
);
},
{
closed = 1;
nodes = (
"189 615 OFFCURVE",
"213 616 OFFCURVE",
"261 616 CURVE SMOOTH",
"355 616 OFFCURVE",
"388 608 OFFCURVE",
"412 574 CURVE SMOOTH",
"426 554 LINE",
"446 559 OFFCURVE",
"447 560 OFFCURVE",
"447 561 CURVE",
"444 579 OFFCURVE",
"438 611 OFFCURVE",
"424 647 CURVE SMOOTH",
"422 652 OFFCURVE",
"413 654 OFFCURVE",
"395 653 CURVE SMOOTH",
"345 650 OFFCURVE",
"306 650 OFFCURVE",
"239 650 CURVE SMOOTH",
"149 650 LINE",
"160 612 LINE"
);
}
);
width = 475;
}
);
leftKerningGroup = H;
leftMetricsKey = H;
rightKerningGroup = F;
unicode = 0046;
},
{
glyphname = G;
lastChange = "2017-05-27 13:23:46 +0000";
layers = (
{
anchors = (
{
name = bottom;
position = "{393, 0}";
},
{
name = top;
position = "{383, 650}";
}
);
layerId = "4A3087DE-C6CF-4F86-8B90-A264D0797279";
paths = (
{
closed = 1;
nodes = (
"429 238 LINE",
"481 238 OFFCURVE",
"513 234 OFFCURVE",
"521 213 CURVE SMOOTH",
"530 189 OFFCURVE",
"532 131 OFFCURVE",
"531 33 CURVE",
"607 36 LINE",
"601 114 OFFCURVE",
"601 200 OFFCURVE",
"606 269 CURVE",
"542 267 OFFCURVE",
"512 267 OFFCURVE",
"437 270 CURVE",
"434 270 OFFCURVE",
"432 267 OFFCURVE",
"427 240 CURVE"
);
},
{
closed = 1;
nodes = (
"510 37 OFFCURVE",
"462 26 OFFCURVE",
"392 26 CURVE",
"363 -14 LINE",
"470 -14 OFFCURVE",
"531 5 OFFCURVE",
"607 36 CURVE",
"568 70 LINE"
);
},
{
closed = 1;
nodes = (
"392 26 LINE",
"252 26 OFFCURVE",
"127 145 OFFCURVE",
"127 348 CURVE SMOOTH",
"127 521 OFFCURVE",
"238 623 OFFCURVE",
"363 623 CURVE",
"413 670 LINE",
"199 670 OFFCURVE",
"43 531 OFFCURVE",
"43 304 CURVE SMOOTH",
"43 98 OFFCURVE",
"180 -14 OFFCURVE",
"363 -14 CURVE"
);
},
{
closed = 1;
nodes = (
"466 623 OFFCURVE",
"553 566 OFFCURVE",
"589 463 CURVE",
"607 466 LINE",
"607 521 OFFCURVE",
"606 537 OFFCURVE",
"600 563 CURVE SMOOTH",
"587 621 OFFCURVE",
"510 670 OFFCURVE",
"413 670 CURVE",
"363 623 LINE"
);
}
);
width = 673;
}
);
leftKerningGroup = O;
leftMetricsKey = O;
rightKerningGroup = G;
unicode = 0047;
},
{
glyphname = H;
lastChange = "2017-05-27 13:24:05 +0000";
layers = (
{
hints = (
{
origin = "{1, 2}";
type = Corner;
name = _corner.STM.btm.1;
},
{
origin = "{1, 3}";
scale = "{-1, 1}";
type = Corner;
name = _corner.STM.btm.1;
},
{
origin = "{1, 1}";
scale = "{-1, 1}";
type = Corner;
name = _corner.STM.top.1;
},
{
origin = "{1, 0}";
type = Corner;
name = _corner.STM.top.1;
},
{
origin = "{2, 0}";
type = Corner;
name = _corner.STM.top.1;
},
{
origin = "{2, 1}";
scale = "{-1, 1}";
type = Corner;
name = _corner.STM.top.1;
},
{
origin = "{2, 3}";
scale = "{-1, 1}";
type = Corner;
name = _corner.STM.btm.1;
},
{
origin = "{2, 2}";
type = Corner;
name = _corner.STM.btm.1;
}
);
layerId = "4A3087DE-C6CF-4F86-8B90-A264D0797279";
paths = (
{
closed = 1;
nodes = (
"168 335 LINE",
"562 335 LINE",
"562 369 LINE",
"168 369 LINE"
);
},
{
closed = 1;
nodes = (
"178 650 LINE",
"102 650 LINE",
"102 0 LINE",
"178 0 LINE"
);
},
{
closed = 1;
nodes = (
"628 650 LINE",
"552 650 LINE",
"552 0 LINE",
"628 0 LINE"
);
}
);
width = 730;
}
);
leftKerningGroup = H;
rightKerningGroup = H;
unicode = 0048;
},
{
glyphname = Hbar;
lastChange = "2017-05-27 12:43:57 +0000";
layers = (
{
components = (
{
name = H;
transform = "{1, 0, 0, 1, 12, 0}";
}
);
layerId = "4A3087DE-C6CF-4F86-8B90-A264D0797279";
paths = (
{
closed = 1;
nodes = (
"79 483 OFFCURVE",
"102 483 OFFCURVE",
"122 483 CURVE SMOOTH",
"682 483 LINE SMOOTH",
"685 483 OFFCURVE",
"689 486 OFFCURVE",
"689 515 CURVE",
"662 513 OFFCURVE",
"639 513 OFFCURVE",
"619 513 CURVE SMOOTH",
"59 513 LINE SMOOTH",
"56 513 OFFCURVE",
"52 507 OFFCURVE",
"52 481 CURVE"
);
}
);
width = 741;
}
);
unicode = 0126;
},
{
glyphname = I;
lastChange = "2017-05-27 13:24:11 +0000";
layers = (
{
anchors = (
{
name = bottom;
position = "{145, 0}";
},
{
name = ogonek;
position = "{188, 0}";
},
{
name = top;
position = "{140, 650}";
},
{
name = topleft;
position = "{41, 650}";
}
);
hints = (
{
origin = "{0, 2}";
type = Corner;
name = _corner.STM.btm.1;
},
{
origin = "{0, 3}";
scale = "{-1, 1}";
type = Corner;
name = _corner.STM.btm.1;
},
{
origin = "{0, 0}";
type = Corner;
name = _corner.STM.top.1;
},
{
origin = "{0, 1}";
scale = "{-1, 1}";
type = Corner;
name = _corner.STM.top.1;
}
);
layerId = "4A3087DE-C6CF-4F86-8B90-A264D0797279";
paths = (
{
closed = 1;
nodes = (
"178 650 LINE",
"102 650 LINE",
"102 0 LINE",
"178 0 LINE"
);
}
);
width = 280;
}
);
leftKerningGroup = H;
leftMetricsKey = H;
rightKerningGroup = H;
rightMetricsKey = H;
unicode = 0049;
},
{
glyphname = J;
lastChange = "2017-05-27 13:24:11 +0000";
layers = (
{
hints = (
{
origin = "{0, 10}";
scale = "{-1, 1}";
type = Corner;
name = _corner.STM.top.1;
},
{
origin = "{0, 9}";
type = Corner;
name = _corner.STM.top.1;
}
);
layerId = "4A3087DE-C6CF-4F86-8B90-A264D0797279";
paths = (
{
closed = 1;
nodes = (
"69 -154 OFFCURVE",
"124 -101 OFFCURVE",
"145 -60 CURVE SMOOTH",
"174 -5 OFFCURVE",
"185 47 OFFCURVE",
"184 144 CURVE SMOOTH",
"183 220 OFFCURVE",
"183 269 OFFCURVE",
"183 311 CURVE SMOOTH",
"183 650 LINE",
"107 650 LINE",
"107 214 LINE SMOOTH",
"107 -45 OFFCURVE",
"81 -116 OFFCURVE",
"-33 -157 CURVE",
"-24 -178 OFFCURVE",
"-14 -186 OFFCURVE",
"-11 -185 CURVE SMOOTH"
);
}
);
width = 280;
}
);
leftKerningGroup = J;
rightKerningGroup = J;
rightMetricsKey = "=H-5";
unicode = 004A;
},
{
glyphname = K;
lastChange = "2017-05-27 13:24:11 +0000";
layers = (
{
anchors = (
{
name = bottom;
position = "{331, 0}";
},
{
name = top;
position = "{331, 650}";
}
);
hints = (
{
origin = "{1, 0}";
type = Corner;
name = _corner.STM.top.1;
},
{
origin = "{1, 1}";
scale = "{-1, 1}";
type = Corner;
name = _corner.STM.top.1;
},
{
origin = "{1, 2}";
type = Corner;
name = _corner.STM.btm.1;
},
{
origin = "{1, 3}";
scale = "{-1, 1}";
type = Corner;
name = _corner.STM.btm.1;
}
);
layerId = "4A3087DE-C6CF-4F86-8B90-A264D0797279";
paths = (
{
closed = 1;
nodes = (
"520 656 LINE SMOOTH",
"516 657 OFFCURVE",
"506 652 OFFCURVE",
"496 642 CURVE SMOOTH",
"398 542 OFFCURVE",
"312 458 OFFCURVE",
"205 354 CURVE",
"204 335 LINE",
"210 333 OFFCURVE",
"216 329 OFFCURVE",
"220 325 CURVE SMOOTH",
"313 232 OFFCURVE",
"394 148 OFFCURVE",
"481 53 CURVE SMOOTH",
"524 6 OFFCURVE",
"534 -3 OFFCURVE",
"555 -3 CURVE SMOOTH",
"582 -3 OFFCURVE",
"620 0 OFFCURVE",
"671 0 CURVE SMOOTH",
"673 0 OFFCURVE",
"674 2 OFFCURVE",
"674 27 CURVE",
"650 27 OFFCURVE",
"626 36 OFFCURVE",
"607 54 CURVE SMOOTH",
"495 160 OFFCURVE",
"429 224 OFFCURVE",
"278 391 CURVE",
"238 334 LINE",
"302 405 OFFCURVE",
"369 470 OFFCURVE",
"446 536 CURVE SMOOTH",
"498 581 OFFCURVE",
"544 610 OFFCURVE",
"591 621 CURVE",
"596 644 OFFCURVE",
"595 645 OFFCURVE",
"593 645 CURVE SMOOTH"
);
},
{
closed = 1;
nodes = (
"178 650 LINE",
"102 650 LINE",
"102 0 LINE",
"178 0 LINE"
);
}
);
width = 663;
}
);
leftKerningGroup = H;
leftMetricsKey = H;
rightKerningGroup = K;
unicode = 004B;
},
{
glyphname = L;
lastChange = "2017-05-27 13:24:11 +0000";
layers = (
{
anchors = (
{
name = bottom;
position = "{259, 0}";
},
{
name = center;
position = "{132, 325}";
},
{
name = top;
position = "{145, 650}";
},
{
name = topright;
position = "{480, 650}";
}
);
hints = (
{
origin = "{0, 2}";
type = Corner;
name = _corner.STM.btm.1;
},
{
origin = "{0, 1}";
scale = "{-1, 1}";
type = Corner;
name = _corner.STM.top.1;
},
{
origin = "{0, 0}";
type = Corner;
name = _corner.STM.top.1;
}
);
layerId = "4A3087DE-C6CF-4F86-8B90-A264D0797279";
paths = (
{
closed = 1;
nodes = (
"174 650 LINE",
"102 650 LINE",
"102 0 LINE",
"174 0 LINE"
);
},
{
closed = 1;
nodes = (
"252 34 OFFCURVE",
"214 38 OFFCURVE",
"195 53 CURVE SMOOTH",
"178 66 OFFCURVE",
"174 91 OFFCURVE",
"174 164 CURVE",
"167 0 LINE",
"294 0 LINE SMOOTH",
"338 0 OFFCURVE",
"377 1 OFFCURVE",
"427 -2 CURVE SMOOTH",
"443 -3 OFFCURVE",
"459 0 OFFCURVE",
"461 5 CURVE SMOOTH",
"476 43 OFFCURVE",
"480 73 OFFCURVE",
"484 91 CURVE",
"462 99 OFFCURVE",
"461 98 OFFCURVE",
"460 97 CURVE",
"450 83 LINE SMOOTH",
"421 43 OFFCURVE",
"393 34 OFFCURVE",
"304 34 CURVE SMOOTH"
);
}
);
width = 500;
}
);
leftKerningGroup = H;
leftMetricsKey = H;
rightKerningGroup = L;
unicode = 004C;
},
{
glyphname = M;
lastChange = "2017-05-27 12:13:40 +0000";
layers = (
{
layerId = "4A3087DE-C6CF-4F86-8B90-A264D0797279";
paths = (
{
closed = 1;
nodes = (
"626 514 OFFCURVE",
"521 314 OFFCURVE",
"408 109 CURVE",
"460 122 LINE",
"387 267 OFFCURVE",
"285 478 OFFCURVE",
"205 650 CURVE",
"172 650 LINE",
"159 549 OFFCURVE",
"143 449 OFFCURVE",
"127 348 CURVE SMOOTH",
"83 62 OFFCURVE",
"76 32 OFFCURVE",
"55 27 CURVE",
"50 26 OFFCURVE",
"40 26 OFFCURVE",
"26 26 CURVE",
"24 26 OFFCURVE",
"24 23 OFFCURVE",
"24 -1 CURVE",
"55 0 OFFCURVE",
"75 0 OFFCURVE",
"96 0 CURVE SMOOTH",
"120 0 OFFCURVE",
"137 0 OFFCURVE",
"164 -1 CURVE",
"164 23 OFFCURVE",
"164 26 OFFCURVE",
"162 26 CURVE",
"148 26 OFFCURVE",
"138 26 OFFCURVE",
"133 27 CURVE",
"121 30 OFFCURVE",
"120 33 OFFCURVE",
"167 337 CURVE SMOOTH",
"179 417 OFFCURVE",
"195 500 OFFCURVE",
"211 555 CURVE",
"166 533 LINE",
"259 358 OFFCURVE",
"321 227 OFFCURVE",
"404 38 CURVE",
"422 38 LINE",
"527 253 OFFCURVE",
"604 396 OFFCURVE",
"689 541 CURVE",
"646 524 LINE",
"657 485 OFFCURVE",
"669 425 OFFCURVE",
"678 362 CURVE SMOOTH",
"723 44 OFFCURVE",
"728 30 OFFCURVE",
"713 27 CURVE",
"708 26 OFFCURVE",
"698 26 OFFCURVE",
"684 26 CURVE",
"682 26 OFFCURVE",
"682 23 OFFCURVE",
"682 -1 CURVE",
"713 0 OFFCURVE",
"733 0 OFFCURVE",
"750 0 CURVE SMOOTH",
"793 0 LINE SMOOTH",
"810 0 OFFCURVE",
"830 0 OFFCURVE",
"861 -1 CURVE",
"861 23 OFFCURVE",
"861 26 OFFCURVE",
"859 26 CURVE",
"845 26 OFFCURVE",
"835 26 OFFCURVE",
"830 27 CURVE",
"812 31 OFFCURVE",
"807 41 OFFCURVE",
"769 301 CURVE SMOOTH",
"744 474 OFFCURVE",
"735 558 OFFCURVE",
"726 650 CURVE",
"693 650 LINE"
);
}
);
width = 877;
},
{
associatedMasterId = "4A3087DE-C6CF-4F86-8B90-A264D0797279";
hints = (
{
origin = "{0, 21}";
type = Corner;
name = _corner.STM.btm.1;
},
{
origin = "{0, 22}";
scale = "{-1, 1}";
type = Corner;
name = _corner.STM.btm.1;
},
{
origin = "{0, 34}";
scale = "{-1, 1}";
type = Corner;
name = _corner.STM.btm.1;
options = 1;
},
{
origin = "{0, 33}";
type = Corner;
name = _corner.STM.btm.1;
}
);
layerId = "DA6E3B65-83E7-4ECA-9A0A-4D60AB69C486";
name = "May 21 17, 00:43";
paths = (
{
closed = 1;
nodes = (
"667 593 OFFCURVE",
"650 552 OFFCURVE",
"627 505 CURVE SMOOTH",
"546 341 OFFCURVE",
"489 229 OFFCURVE",
"413 89 CURVE",
"446 102 LINE",
"362 251 OFFCURVE",
"292 383 OFFCURVE",
"211 547 CURVE SMOOTH",
"173 624 OFFCURVE",
"162 648 OFFCURVE",
"149 655 CURVE",
"66 647 LINE",
"63 623 LINE",
"72 624 OFFCURVE",
"76 624 OFFCURVE",
"80 624 CURVE SMOOTH",
"105 624 OFFCURVE",
"114 579 OFFCURVE",
"112 518 CURVE SMOOTH",
"93 0 LINE",
"132 0 LINE",
"150 555 LINE",
"128 545 LINE",
"255 322 OFFCURVE",
"326 185 OFFCURVE",
"406 18 CURVE",
"424 18 LINE",
"529 238 OFFCURVE",
"623 417 OFFCURVE",
"703 567 CURVE",
"690 577 LINE",
"715 0 LINE",
"782 0 LINE",
"764 439 LINE SMOOTH",
"757 612 OFFCURVE",
"760 619 OFFCURVE",
"770 624 CURVE SMOOTH",
"774 626 OFFCURVE",
"782 627 OFFCURVE",
"791 627 CURVE",
"790 651 LINE",
"758 650 OFFCURVE",
"722 649 OFFCURVE",
"688 649 CURVE"
);
}
);
width = 871;
}
);
leftKerningGroup = M;
rightKerningGroup = M;
unicode = 004D;
},
{
glyphname = N;
lastChange = "2017-05-27 13:24:11 +0000";
layers = (
{
anchors = (
{
name = bottom;
position = "{344, 0}";
},
{
name = top;
position = "{344, 650}";
}
);
hints = (
{
origin = "{0, 25}";
type = Corner;
name = _corner.STM.btm.1;
},
{
origin = "{0, 4}";
type = Corner;
name = _corner.STM.top.1;
},
{
origin = "{0, 5}";
scale = "{-1, 1}";
type = Corner;
name = _corner.STM.top.1;
},
{
origin = "{0, 26}";
scale = "{-1, 1}";
type = Corner;
name = _corner.STM.btm.1;
options = 1;
}
);
layerId = "4A3087DE-C6CF-4F86-8B90-A264D0797279";
paths = (
{
closed = 1;
nodes = (
"610 -11 LINE",
"608 89 OFFCURVE",
"607 261 OFFCURVE",
"607 332 CURVE SMOOTH",
"607 650 LINE",
"567 650 LINE",
"567 302 LINE SMOOTH",
"567 235 OFFCURVE",
"567 183 OFFCURVE",
"570 93 CURVE",
"592 127 LINE",
"269 505 LINE SMOOTH",
"168 624 OFFCURVE",
"148 645 OFFCURVE",
"120 651 CURVE",
"43 649 LINE",
"41 649 OFFCURVE",
"41 645 OFFCURVE",
"41 619 CURVE",
"50 620 OFFCURVE",
"55 620 OFFCURVE",
"60 620 CURVE SMOOTH",
"78 620 OFFCURVE",
"106 602 OFFCURVE",
"106 482 CURVE SMOOTH",
"106 0 LINE",
"146 0 LINE",
"146 347 LINE SMOOTH",
"146 465 OFFCURVE",
"146 532 OFFCURVE",
"142 582 CURVE",
"127 539 LINE",
"261 394 OFFCURVE",
"441 181 OFFCURVE",
"597 -12 CURVE"
);
}
);
width = 704;
}
);
leftKerningGroup = H;
rightKerningGroup = H;
rightMetricsKey = "=H-5";
unicode = 004E;
},
{
glyphname = Eng;
lastChange = "2017-05-27 13:31:42 +0000";
layers = (
{
anchors = (
{
name = top;
position = "{344, 650}";
}
);
hints = (
{
origin = "{1, 1}";
type = Corner;
name = _corner.STM.top.1;
},
{
origin = "{1, 2}";
scale = "{-1, 1}";
type = Corner;
name = _corner.STM.top.1;
},
{
origin = "{1, 22}";
type = Corner;
name = _corner.STM.btm.1;
},
{
origin = "{1, 23}";
scale = "{-1, 1}";
type = Corner;
name = _corner.STM.btm.1;
options = 1;
}
);
layerId = "4A3087DE-C6CF-4F86-8B90-A264D0797279";
paths = (
{
closed = 1;
nodes = (
"430 -173 LINE",
"430 -227 OFFCURVE",
"440 -235 OFFCURVE",
"469 -235 CURVE SMOOTH",
"572 -235 OFFCURVE",
"607 -173 OFFCURVE",
"607 -81 CURVE SMOOTH",
"607 332 LINE",
"567 303 LINE",
"567 34 LINE SMOOTH",
"567 -158 OFFCURVE",
"560 -189 OFFCURVE",
"495 -189 CURVE SMOOTH",
"474 -189 OFFCURVE",
"446 -183 OFFCURVE",
"434 -172 CURVE"
);
},
{
closed = 1;
nodes = (
"607 332 LINE",
"607 650 LINE",
"567 650 LINE",
"567 302 LINE SMOOTH",
"567 235 OFFCURVE",
"567 183 OFFCURVE",
"570 93 CURVE",
"592 127 LINE",
"269 505 LINE SMOOTH",
"168 624 OFFCURVE",
"148 645 OFFCURVE",
"120 651 CURVE",
"43 649 LINE",
"41 649 OFFCURVE",
"41 645 OFFCURVE",
"41 619 CURVE",
"50 620 OFFCURVE",
"55 620 OFFCURVE",
"60 620 CURVE SMOOTH",
"78 620 OFFCURVE",
"106 602 OFFCURVE",
"106 482 CURVE SMOOTH",
"106 0 LINE",
"146 0 LINE",
"146 347 LINE SMOOTH",
"146 465 OFFCURVE",
"146 532 OFFCURVE",
"142 582 CURVE",
"127 539 LINE",
"261 394 OFFCURVE",
"441 181 OFFCURVE",
"597 -12 CURVE"
);
}
);
width = 704;
}
);
leftKerningGroup = Eng;
leftMetricsKey = N;
rightKerningGroup = Eng;
rightMetricsKey = N;
unicode = 014A;
},
{
glyphname = O;
lastChange = "2017-05-27 13:24:54 +0000";
layers = (
{
anchors = (
{
name = bottom;
position = "{374, 0}";
},
{
name = center;
position = "{374, 325}";
},
{
name = ogonek;
position = "{673, 10}";
},
{
name = top;
position = "{374, 650}";
},
{
name = topleft;
position = "{20, 650}";
},
{
name = topright;
position = "{728, 650}";
}
);
layerId = "4A3087DE-C6CF-4F86-8B90-A264D0797279";
paths = (
{
closed = 1;
nodes = (
"186 670 OFFCURVE",
"43 529 OFFCURVE",
"43 324 CURVE SMOOTH",
"43 126 OFFCURVE",
"178 -14 OFFCURVE",
"364 -14 CURVE SMOOTH",
"573 -14 OFFCURVE",
"705 127 OFFCURVE",
"705 330 CURVE SMOOTH",
"705 534 OFFCURVE",
"572 670 OFFCURVE",
"375 670 CURVE SMOOTH"
);
},
{
closed = 1;
nodes = (
"228 23 OFFCURVE",
"129 163 OFFCURVE",
"129 343 CURVE SMOOTH",
"129 499 OFFCURVE",
"204 632 OFFCURVE",
"358 632 CURVE SMOOTH",
"528 632 OFFCURVE",
"619 493 OFFCURVE",
"619 313 CURVE SMOOTH",
"619 157 OFFCURVE",
"553 23 OFFCURVE",
"381 23 CURVE SMOOTH"
);
}
);
width = 748;
}
);
leftKerningGroup = O;
rightKerningGroup = O;
unicode = 004F;
},
{
glyphname = Oslash;
lastChange = "2017-05-27 12:34:41 +0000";
layers = (
{
components = (
{
name = O;
}
);
layerId = "4A3087DE-C6CF-4F86-8B90-A264D0797279";
paths = (
{
closed = 1;
nodes = (
"580 691 LINE",
"168 51 LINE SMOOTH",
"151 24 OFFCURVE",
"136 4 OFFCURVE",
"116 -21 CURVE",
"156 -35 LINE",
"566 601 LINE SMOOTH",
"583 628 OFFCURVE",
"606 652 OFFCURVE",
"626 677 CURVE"
);
}
);
width = 748;
}
);
leftKerningGroup = O;
rightKerningGroup = O;
unicode = 00D8;
},
{
glyphname = OE;
lastChange = "2017-05-27 13:23:46 +0000";
layers = (
{
layerId = "4A3087DE-C6CF-4F86-8B90-A264D0797279";
paths = (
{
closed = 1;
nodes = (
"554 37 OFFCURVE",
"522 28 OFFCURVE",
"397 28 CURVE SMOOTH",
"206 28 OFFCURVE",
"131 162 OFFCURVE",
"131 338 CURVE SMOOTH",
"131 498 OFFCURVE",
"196 624 OFFCURVE",
"397 624 CURVE SMOOTH",
"542 624 OFFCURVE",
"554 616 OFFCURVE",
"554 559 CURVE",
"594 650 LINE",
"509 650 OFFCURVE",
"455 658 OFFCURVE",
"407 658 CURVE SMOOTH",
"174 658 OFFCURVE",
"43 529 OFFCURVE",
"43 323 CURVE SMOOTH",
"43 123 OFFCURVE",
"174 -6 OFFCURVE",
"387 -6 CURVE SMOOTH",
"453 -6 OFFCURVE",
"509 0 OFFCURVE",
"588 0 CURVE",
"554 94 LINE"
);
},
{
closed = 1;
nodes = (
"630 650 LINE",
"554 650 LINE",
"554 0 LINE",
"630 0 LINE"
);
},
{
closed = 1;
nodes = (
"708 34 OFFCURVE",
"670 38 OFFCURVE",
"651 53 CURVE SMOOTH",
"634 66 OFFCURVE",
"630 91 OFFCURVE",
"630 164 CURVE",
"623 0 LINE",
"750 0 LINE SMOOTH",
"794 0 OFFCURVE",
"833 1 OFFCURVE",
"883 -2 CURVE SMOOTH",
"899 -3 OFFCURVE",
"915 0 OFFCURVE",
"917 5 CURVE SMOOTH",
"932 43 OFFCURVE",
"936 73 OFFCURVE",
"940 91 CURVE",
"918 99 OFFCURVE",
"917 98 OFFCURVE",
"916 97 CURVE",
"906 83 LINE SMOOTH",
"877 43 OFFCURVE",
"849 34 OFFCURVE",
"760 34 CURVE SMOOTH"
);
},
{
closed = 1;
nodes = (
"620 334 LINE",
"845 334 LINE",
"850 334 OFFCURVE",
"851 336 OFFCURVE",
"851 370 CURVE",
"822 369 OFFCURVE",
"797 368 OFFCURVE",
"765 368 CURVE SMOOTH",
"620 368 LINE"
);
},
{
closed = 1;
nodes = (
"641 615 OFFCURVE",
"665 616 OFFCURVE",
"713 616 CURVE SMOOTH",
"789 616 OFFCURVE",
"822 608 OFFCURVE",
"846 574 CURVE SMOOTH",
"860 554 LINE",
"880 559 OFFCURVE",
"881 560 OFFCURVE",
"881 561 CURVE",
"878 579 OFFCURVE",
"872 611 OFFCURVE",
"858 647 CURVE SMOOTH",
"856 652 OFFCURVE",
"847 654 OFFCURVE",
"829 653 CURVE SMOOTH",
"779 650 OFFCURVE",
"740 650 OFFCURVE",
"691 650 CURVE SMOOTH",
"601 650 LINE",
"612 612 LINE"
);
}
);
width = 958;
}
);
leftKerningGroup = O;
leftMetricsKey = O;
rightKerningGroup = E;
rightMetricsKey = E;
unicode = 0152;
},
{
glyphname = P;
lastChange = "2017-05-27 13:24:11 +0000";
layers = (
{
hints = (
{
origin = "{1, 1}";
type = Corner;
name = _corner.STM.btm.1;
},
{
origin = "{1, 2}";
scale = "{-1, 1}";
type = Corner;
name = _corner.STM.btm.1;
},
{
origin = "{1, 0}";
scale = "{-1, 1}";
type = Corner;
name = _corner.STM.top.1;
}
);
layerId = "4A3087DE-C6CF-4F86-8B90-A264D0797279";
paths = (
{
closed = 1;
nodes = (
"359 301 OFFCURVE",
"464 376 OFFCURVE",
"464 492 CURVE SMOOTH",
"464 595 OFFCURVE",
"384 654 OFFCURVE",
"276 654 CURVE SMOOTH",
"240 654 OFFCURVE",
"175 650 OFFCURVE",
"139 650 CURVE",
"160 615 LINE",
"177 617 OFFCURVE",
"221 618 OFFCURVE",
"243 618 CURVE SMOOTH",
"310 618 OFFCURVE",
"381 571 OFFCURVE",
"381 472 CURVE SMOOTH",
"381 377 OFFCURVE",
"320 342 OFFCURVE",
"259 342 CURVE SMOOTH",
"248 342 OFFCURVE",
"233 344 OFFCURVE",
"219 349 CURVE",
"219 319 OFFCURVE",
"224 309 OFFCURVE",
"238 308 CURVE SMOOTH"
);
},
{
closed = 1;
nodes = (
"102 650 LINE",
"102 0 LINE",
"178 0 LINE",
"178 650 LINE"
);
}
);
width = 499;
}
);
leftKerningGroup = H;
leftMetricsKey = H;
rightKerningGroup = P;
unicode = 0050;
},
{
glyphname = Thorn;
lastChange = "2017-05-27 13:31:50 +0000";
layers = (
{
hints = (
{
origin = "{1, 0}";
scale = "{-1, 1}";
type = Corner;
name = _corner.STM.top.1;
},
{
origin = "{1, 1}";
type = Corner;
name = _corner.STM.btm.1;
},
{
origin = "{1, 2}";
scale = "{-1, 1}";
type = Corner;
name = _corner.STM.btm.1;
},
{
origin = "{1, 3}";
type = Corner;
name = _corner.STM.top.1;
}
);
layerId = "4A3087DE-C6CF-4F86-8B90-A264D0797279";
paths = (
{
closed = 1;
nodes = (
"342 155 OFFCURVE",
"448 236 OFFCURVE",
"448 339 CURVE SMOOTH",
"448 442 OFFCURVE",
"368 494 OFFCURVE",
"240 494 CURVE SMOOTH",
"210 494 OFFCURVE",
"177 491 OFFCURVE",
"133 491 CURVE",
"154 448 LINE",
"171 454 OFFCURVE",
"193 459 OFFCURVE",
"217 459 CURVE SMOOTH",
"325 459 OFFCURVE",
"370 402 OFFCURVE",
"370 321 CURVE SMOOTH",
"370 237 OFFCURVE",
"314 204 OFFCURVE",
"243 204 CURVE SMOOTH",
"232 204 OFFCURVE",
"217 206 OFFCURVE",
"203 211 CURVE",
"203 183 OFFCURVE",
"213 169 OFFCURVE",
"222 168 CURVE SMOOTH"
);
},
{
closed = 1;
nodes = (
"102 650 LINE",
"102 0 LINE",
"168 0 LINE",
"168 650 LINE"
);
}
);
width = 501;
}
);
leftKerningGroup = H;
leftMetricsKey = H;
rightKerningGroup = Thorn;
unicode = 00DE;
},
{
glyphname = Q;
lastChange = "2017-05-27 13:23:46 +0000";
layers = (
{
layerId = "4A3087DE-C6CF-4F86-8B90-A264D0797279";
paths = (
{
closed = 1;
nodes = (
"945 -125 OFFCURVE",
"879 -150 OFFCURVE",
"817 -150 CURVE SMOOTH",
"770 -150 OFFCURVE",
"720 -139 OFFCURVE",
"634 -80 CURVE SMOOTH",
"577 -41 OFFCURVE",
"520 -8 OFFCURVE",
"446 7 CURVE",
"462 -1 LINE",
"608 35 OFFCURVE",
"705 166 OFFCURVE",
"705 330 CURVE",
"619 313 LINE",
"617 165 OFFCURVE",
"548 24 OFFCURVE",
"387 24 CURVE",
"360 -14 LINE",
"416 -14 OFFCURVE",
"474 -55 OFFCURVE",
"532 -99 CURVE SMOOTH",
"615 -162 OFFCURVE",
"677 -195 OFFCURVE",
"781 -195 CURVE SMOOTH",
"877 -195 OFFCURVE",
"1000 -143 OFFCURVE",
"1000 -97 CURVE SMOOTH",
"1000 -91 OFFCURVE",
"998 -88 OFFCURVE",
"985 -71 CURVE"
);
},
{
closed = 1;
nodes = (
"705 534 OFFCURVE",
"572 670 OFFCURVE",
"376 670 CURVE SMOOTH",
"186 670 OFFCURVE",
"43 529 OFFCURVE",
"43 324 CURVE SMOOTH",
"43 126 OFFCURVE",
"178 -14 OFFCURVE",
"360 -14 CURVE",
"387 24 LINE",
"228 24 OFFCURVE",
"129 163 OFFCURVE",
"129 343 CURVE SMOOTH",
"129 499 OFFCURVE",
"204 632 OFFCURVE",
"359 632 CURVE SMOOTH",
"528 632 OFFCURVE",
"619 493 OFFCURVE",
"619 313 CURVE",
"705 330 LINE"
);
}
);
width = 760;
}
);
leftKerningGroup = O;
leftMetricsKey = O;
rightKerningGroup = O;
unicode = 0051;
},
{
glyphname = R;
lastChange = "2017-05-27 13:32:03 +0000";
layers = (
{
anchors = (
{
name = bottom;
position = "{299, 0}";
},
{
name = top;
position = "{253, 650}";
}
);
hints = (
{
origin = "{1, 1}";
type = Corner;
name = _corner.STM.btm.1;
},
{
origin = "{1, 2}";
scale = "{-1, 1}";
type = Corner;
name = _corner.STM.btm.1;
},
{
origin = "{1, 0}";
scale = "{-1, 1}";
type = Corner;
name = _corner.STM.top.1;
}
);
layerId = "4A3087DE-C6CF-4F86-8B90-A264D0797279";
paths = (
{
closed = 1;
nodes = (
"304 323 LINE",
"387 344 OFFCURVE",
"456 405 OFFCURVE",
"456 492 CURVE SMOOTH",
"456 592 OFFCURVE",
"373 652 OFFCURVE",
"265 652 CURVE SMOOTH",
"234 652 OFFCURVE",
"199 650 OFFCURVE",
"148 650 CURVE",
"169 615 LINE",
"186 617 OFFCURVE",
"200 618 OFFCURVE",
"232 618 CURVE SMOOTH",
"304 618 OFFCURVE",
"372 576 OFFCURVE",
"372 475 CURVE SMOOTH",
"372 409 OFFCURVE",
"324 341 OFFCURVE",
"238 341 CURVE SMOOTH",
"169 341 LINE",
"169 309 LINE",
"311 309 LINE"
);
},
{
closed = 1;
nodes = (
"102 650 LINE",
"102 0 LINE",
"178 0 LINE",
"178 650 LINE"
);
},
{
closed = 1;
nodes = (
"456 4 OFFCURVE",
"468 -4 OFFCURVE",
"495 -4 CURVE SMOOTH",
"510 -4 OFFCURVE",
"549 -3 OFFCURVE",
"583 -1 CURVE",
"585 -1 OFFCURVE",
"586 0 OFFCURVE",
"586 23 CURVE",
"566 23 OFFCURVE",
"553 27 OFFCURVE",
"539 43 CURVE SMOOTH",
"517 67 OFFCURVE",
"486 110 OFFCURVE",
"432 206 CURVE SMOOTH",
"380 298 OFFCURVE",
"348 334 OFFCURVE",
"284 333 CURVE",
"226 309 LINE",
"257 309 OFFCURVE",
"285 296 OFFCURVE",
"328 222 CURVE SMOOTH",
"420 65 LINE SMOOTH"
);
}
);
width = 574;
}
);
leftKerningGroup = H;
leftMetricsKey = H;
rightKerningGroup = R;
unicode = 0052;
},
{
glyphname = S;
lastChange = "2017-05-27 12:16:25 +0000";
layers = (
{
anchors = (
{
name = bottom;
position = "{231, 0}";
},
{
name = top;
position = "{242, 650}";
}
);
layerId = "4A3087DE-C6CF-4F86-8B90-A264D0797279";
paths = (
{
closed = 1;
nodes = (
"150 31 OFFCURVE",
"88 55 OFFCURVE",
"54 153 CURVE",
"37 153 LINE",
"33 122 OFFCURVE",
"32 107 OFFCURVE",
"32 95 CURVE SMOOTH",
"32 17 OFFCURVE",
"86 -7 OFFCURVE",
"177 -7 CURVE SMOOTH",
"307 -7 OFFCURVE",
"409 84 OFFCURVE",
"409 184 CURVE SMOOTH",
"409 263 OFFCURVE",
"374 310 OFFCURVE",
"245 400 CURVE SMOOTH",
"188 439 OFFCURVE",
"154 483 OFFCURVE",
"154 537 CURVE SMOOTH",
"154 589 OFFCURVE",
"196 631 OFFCURVE",
"243 631 CURVE SMOOTH",
"288 631 OFFCURVE",
"336 604 OFFCURVE",
"362 543 CURVE",
"379 543 LINE",
"380 589 OFFCURVE",
"379 614 OFFCURVE",
"366 634 CURVE SMOOTH",
"352 655 OFFCURVE",
"325 670 OFFCURVE",
"278 670 CURVE SMOOTH",
"170 670 OFFCURVE",
"88 592 OFFCURVE",
"88 496 CURVE SMOOTH",
"88 424 OFFCURVE",
"128 379 OFFCURVE",
"200 324 CURVE SMOOTH",
"301 247 OFFCURVE",
"332 211 OFFCURVE",
"332 154 CURVE SMOOTH",
"332 81 OFFCURVE",
"283 31 OFFCURVE",
"209 31 CURVE SMOOTH"
);
}
);
width = 457;
}
);
leftKerningGroup = S;
rightKerningGroup = S;
unicode = 0053;
},
{
glyphname = T;
lastChange = "2017-05-27 12:16:41 +0000";
layers = (
{
anchors = (
{
name = bottom;
position = "{274, 0}";
},
{
name = "center#2";
position = "{274, 325}";
},
{
name = top;
position = "{274, 650}";
}
);
hints = (
{
origin = "{0, 8}";
type = Corner;
name = _corner.STM.btm.1;
},
{
origin = "{0, 9}";
scale = "{-1, 1}";
type = Corner;
name = _corner.STM.btm.1;
}
);
layerId = "4A3087DE-C6CF-4F86-8B90-A264D0797279";
paths = (
{
closed = 1;
nodes = (
"312 452 LINE SMOOTH",
"312 520 OFFCURVE",
"313 573 OFFCURVE",
"316 635 CURVE",
"232 635 LINE",
"235 573 OFFCURVE",
"236 520 OFFCURVE",
"236 452 CURVE SMOOTH",
"236 0 LINE",
"312 0 LINE"
);
},
{
closed = 1;
nodes = (
"274 650 LINE",
"153 650 LINE SMOOTH",
"97 650 OFFCURVE",
"61 650 OFFCURVE",
"50 651 CURVE SMOOTH",
"24 653 OFFCURVE",
"20 649 OFFCURVE",
"19 644 CURVE SMOOTH",
"6 549 LINE",
"26 545 OFFCURVE",
"28 545 OFFCURVE",
"29 547 CURVE",
"34 557 LINE SMOOTH",
"59 608 OFFCURVE",
"74 616 OFFCURVE",
"174 616 CURVE SMOOTH",
"274 616 LINE"
);
},
{
closed = 1;
nodes = (
"374 616 LINE SMOOTH",
"474 616 OFFCURVE",
"489 608 OFFCURVE",
"514 557 CURVE SMOOTH",
"519 547 LINE",
"520 545 OFFCURVE",
"522 545 OFFCURVE",
"542 549 CURVE",
"529 644 LINE SMOOTH",
"528 649 OFFCURVE",
"524 653 OFFCURVE",
"498 651 CURVE SMOOTH",
"487 650 OFFCURVE",
"451 650 OFFCURVE",
"395 650 CURVE SMOOTH",
"274 650 LINE",
"274 616 LINE"
);
}
);
width = 548;
}
);
leftKerningGroup = T;
rightKerningGroup = T;
unicode = 0054;
},
{
glyphname = U;
lastChange = "2017-05-27 13:25:09 +0000";
layers = (
{
anchors = (
{
name = bottom;
position = "{340, 0}";
},
{
name = ogonek;
position = "{600, 10}";
},
{
name = top;
position = "{350, 650}";
},
{
name = topright;
position = "{645, 650}";
}
);
hints = (
{
origin = "{0, 23}";
scale = "{-1, 1}";
type = Corner;
name = _corner.STM.top.1;
},
{
origin = "{0, 14}";
scale = "{-1, 1}";
type = Corner;
name = _corner.STM.top.1;
},
{
origin = "{0, 22}";
type = Corner;
name = _corner.STM.top.1;
},
{
origin = "{0, 13}";
type = Corner;
name = _corner.STM.top.1;
}
);
layerId = "4A3087DE-C6CF-4F86-8B90-A264D0797279";
paths = (
{
closed = 1;
nodes = (
"96 249 LINE SMOOTH",
"96 175 OFFCURVE",
"108 125 OFFCURVE",
"128 90 CURVE SMOOTH",
"164 27 OFFCURVE",
"246 -15 OFFCURVE",
"335 -15 CURVE SMOOTH",
"435 -15 OFFCURVE",
"495 20 OFFCURVE",
"530 73 CURVE SMOOTH",
"563 123 OFFCURVE",
"572 179 OFFCURVE",
"572 256 CURVE SMOOTH",
"572 650 LINE",
"532 650 LINE",
"532 251 LINE SMOOTH",
"532 105 OFFCURVE",
"473 38 OFFCURVE",
"355 38 CURVE SMOOTH",
"243 38 OFFCURVE",
"172 109 OFFCURVE",
"172 265 CURVE SMOOTH",
"172 650 LINE",
"96 650 LINE"
);
}
);
width = 664;
}
);
leftKerningGroup = U;
leftMetricsKey = "=H-6";
rightKerningGroup = U;
rightMetricsKey = "=H-10";
unicode = 0055;
},
{
glyphname = Uogonek;
lastChange = "2017-05-27 13:28:22 +0000";
layers = (
{
anchors = (
{
name = _ogonek;
position = "{585, 10}";
}
);
components = (
{
name = U;
}
);
layerId = "4A3087DE-C6CF-4F86-8B90-A264D0797279";
paths = (
{
closed = 1;
nodes = (
"399 -202 OFFCURVE",
"374 -181 OFFCURVE",
"374 -126 CURVE SMOOTH",
"374 -62 OFFCURVE",
"422 -15 OFFCURVE",
"493 35 CURVE",
"463 28 LINE",
"385 -5 OFFCURVE",
"318 -70 OFFCURVE",
"318 -137 CURVE SMOOTH",
"318 -198 OFFCURVE",
"359 -228 OFFCURVE",
"401 -228 CURVE SMOOTH",
"439 -228 OFFCURVE",
"462 -217 OFFCURVE",
"485 -198 CURVE",
"478 -187 LINE",
"459 -198 OFFCURVE",
"444 -202 OFFCURVE",
"427 -202 CURVE SMOOTH"
);
}
);
width = 664;
}
);
leftKerningGroup = U;
leftMetricsKey = U;
rightKerningGroup = U;
rightMetricsKey = U;
unicode = 0172;
},
{
glyphname = V;
lastChange = "2017-05-27 12:17:16 +0000";
layers = (
{
layerId = "4A3087DE-C6CF-4F86-8B90-A264D0797279";
paths = (
{
closed = 1;
nodes = (
"470 456 OFFCURVE",
"409 286 OFFCURVE",
"326 92 CURVE",
"357 92 LINE",
"282 256 OFFCURVE",
"201 456 OFFCURVE",
"136 650 CURVE",
"77 650 LINE SMOOTH",
"50 650 OFFCURVE",
"30 650 OFFCURVE",
"1 651 CURVE",
"-1 651 OFFCURVE",
"-1 647 OFFCURVE",
"-1 624 CURVE",
"13 624 OFFCURVE",
"25 624 OFFCURVE",
"30 623 CURVE",
"44 620 OFFCURVE",
"59 606 OFFCURVE",
"144 395 CURVE SMOOTH",
"307 -10 LINE",
"332 -10 LINE",
"495 395 LINE SMOOTH",
"580 606 OFFCURVE",
"594 620 OFFCURVE",
"608 623 CURVE",
"613 624 OFFCURVE",
"625 624 OFFCURVE",
"639 624 CURVE",
"639 647 OFFCURVE",
"639 651 OFFCURVE",
"637 651 CURVE",
"608 650 OFFCURVE",
"588 650 OFFCURVE",
"561 650 CURVE SMOOTH",
"534 650 LINE"
);
}
);
width = 631;
}
);
leftKerningGroup = V;
rightKerningGroup = V;
unicode = 0056;
},
{
glyphname = W;
lastChange = "2017-05-28 10:06:12 +0000";
layers = (
{
anchors = (
{
name = bottom;
position = "{511, 0}";
},
{
name = top;
position = "{522, 650}";
}
);
layerId = "4A3087DE-C6CF-4F86-8B90-A264D0797279";
paths = (
{
closed = 1;
nodes = (
"871 509 OFFCURVE",
"823 343 OFFCURVE",
"740 80 CURVE",
"772 93 LINE",
"693 258 OFFCURVE",
"619 437 OFFCURVE",
"538 637 CURVE",
"503 637 LINE",
"429 449 OFFCURVE",
"361 291 OFFCURVE",
"262 86 CURVE",
"299 103 LINE",
"242 262 OFFCURVE",
"174 500 OFFCURVE",
"140 650 CURVE",
"67 650 LINE SMOOTH",
"50 650 OFFCURVE",
"30 650 OFFCURVE",
"1 651 CURVE",
"-1 651 OFFCURVE",
"-1 647 OFFCURVE",
"-1 624 CURVE",
"13 624 OFFCURVE",
"25 624 OFFCURVE",
"30 623 CURVE",
"44 620 OFFCURVE",
"56 605 OFFCURVE",
"124 388 CURVE SMOOTH",
"249 -12 LINE",
"273 -12 LINE",
"362 194 OFFCURVE",
"460 420 OFFCURVE",
"529 575 CURVE",
"478 552 LINE",
"546 412 OFFCURVE",
"655 146 OFFCURVE",
"718 -12 CURVE",
"753 -12 LINE",
"882 388 LINE SMOOTH",
"952 605 OFFCURVE",
"963 620 OFFCURVE",
"977 623 CURVE",
"982 624 OFFCURVE",
"994 624 OFFCURVE",
"1008 624 CURVE",
"1008 647 OFFCURVE",
"1008 651 OFFCURVE",
"1006 651 CURVE",
"977 650 OFFCURVE",
"957 650 OFFCURVE",
"940 650 CURVE SMOOTH",
"906 650 LINE"
);
}
);
width = 1000;
}
);
leftKerningGroup = W;
rightKerningGroup = W;
unicode = 0057;
},
{
glyphname = X;
lastChange = "2017-05-28 02:19:17 +0000";
layers = (
{
hints = (
{
origin = "{0, 1}";
type = Corner;
name = _corner.STM.top.1;
},
{
origin = "{1, 1}";
type = Corner;
name = _corner.STM.btm.1;
}
);
layerId = "4A3087DE-C6CF-4F86-8B90-A264D0797279";
paths = (
{
closed = 1;
nodes = (
"314 332 LINE",
"536 650 LINE",
"474 650 LINE",
"402 523 OFFCURVE",
"358 456 OFFCURVE",
"299 378 CURVE"
);
},
{
closed = 1;
nodes = (
"276 353 LINE",
"35 0 LINE",
"91 0 LINE",
"145 92 OFFCURVE",
"218 203 OFFCURVE",
"305 324 CURVE"
);
},
{
closed = 1;
nodes = (
"345 203 OFFCURVE",
"425 70 OFFCURVE",
"465 0 CURVE",
"550 0 LINE",
"567 0 OFFCURVE",
"587 0 OFFCURVE",
"618 -1 CURVE",
"618 23 OFFCURVE",
"618 26 OFFCURVE",
"616 26 CURVE",
"602 26 OFFCURVE",
"592 26 OFFCURVE",
"587 27 CURVE",
"573 30 OFFCURVE",
"549 39 OFFCURVE",
"411 246 CURVE SMOOTH",
"329 369 LINE",
"268 469 OFFCURVE",
"213 560 OFFCURVE",
"164 650 CURVE",
"90 650 LINE",
"73 650 OFFCURVE",
"53 650 OFFCURVE",
"24 651 CURVE",
"22 651 OFFCURVE",
"22 647 OFFCURVE",
"22 624 CURVE",
"36 624 OFFCURVE",
"48 624 OFFCURVE",
"53 623 CURVE",
"67 620 OFFCURVE",
"86 609 OFFCURVE",
"207 416 CURVE SMOOTH",
"273 311 LINE"
);
}
);
width = 611;
}
);
leftKerningGroup = X;
rightKerningGroup = X;
unicode = 0058;
},
{
glyphname = Y;
lastChange = "2017-05-28 02:19:17 +0000";
layers = (
{
anchors = (
{
name = bottom;
position = "{278, 0}";
},
{
name = top;
position = "{315, 650}";
},
{
name = topleft;
position = "{0, 650}";
}
);
hints = (
{
origin = "{0, 0}";
type = Corner;
name = _corner.STM.btm.1;
},
{
origin = "{0, 1}";
scale = "{-1, 1}";
type = Corner;
name = _corner.STM.btm.1;
}
);
layerId = "4A3087DE-C6CF-4F86-8B90-A264D0797279";
paths = (
{
closed = 1;
nodes = (
"253 0 LINE",
"329 0 LINE",
"329 335 LINE",
"309 291 LINE",
"253 282 LINE"
);
},
{
closed = 1;
nodes = (
"9 650 OFFCURVE",
"8 646 OFFCURVE",
"8 623 CURVE",
"27 623 LINE SMOOTH",
"167 623 OFFCURVE",
"253 419 OFFCURVE",
"253 225 CURVE",
"329 225 LINE",
"329 427 OFFCURVE",
"414 550 OFFCURVE",
"513 610 CURVE SMOOTH",
"533 622 OFFCURVE",
"548 623 OFFCURVE",
"569 621 CURVE",
"569 645 OFFCURVE",
"568 650 OFFCURVE",
"566 650 CURVE",
"470 647 LINE",
"355 550 OFFCURVE",
"299 425 OFFCURVE",
"297 279 CURVE",
"319 309 LINE",
"322 466 OFFCURVE",
"246 590 OFFCURVE",
"185 648 CURVE",
"11 650 LINE"
);
}
);
width = 568;
}
);
leftKerningGroup = Y;
rightKerningGroup = Y;
unicode = 0059;
},
{
glyphname = Z;
lastChange = "2017-05-27 12:45:14 +0000";
layers = (
{
anchors = (
{
name = bottom;
position = "{283, 0}";
},
{
name = top;
position = "{281, 650}";
}
);
layerId = "4A3087DE-C6CF-4F86-8B90-A264D0797279";
paths = (
{
closed = 1;
nodes = (
"492 647 LINE",
"349 411 OFFCURVE",
"237 214 OFFCURVE",
"132 19 CURVE",
"118 36 LINE",
"175 34 OFFCURVE",
"231 34 OFFCURVE",
"278 34 CURVE",
"340 0 LINE",
"270 0 OFFCURVE",
"157 0 OFFCURVE",
"27 -2 CURVE",
"24 6 LINE",
"149 215 OFFCURVE",
"273 424 OFFCURVE",
"384 630 CURVE",
"437 613 LINE",
"391 615 OFFCURVE",
"346 616 OFFCURVE",
"298 616 CURVE",
"273 650 LINE",
"342 650 OFFCURVE",
"390 650 OFFCURVE",
"489 653 CURVE"
);
},
{
closed = 1;
nodes = (
"398 0 OFFCURVE",
"456 0 OFFCURVE",
"483 -1 CURVE SMOOTH",
"499 -2 OFFCURVE",
"504 1 OFFCURVE",
"507 6 CURVE",
"546 96 LINE",
"522 106 OFFCURVE",
"518 107 OFFCURVE",
"516 106 CURVE",
"461 41 OFFCURVE",
"428 34 OFFCURVE",
"325 34 CURVE SMOOTH",
"278 34 LINE",
"340 0 LINE"
);
},
{
closed = 1;
nodes = (
"259 616 LINE SMOOTH",
"163 616 OFFCURVE",
"137 603 OFFCURVE",
"99 545 CURVE",
"97 543 OFFCURVE",
"94 543 OFFCURVE",
"69 552 CURVE",
"101 642 LINE SMOOTH",
"104 650 OFFCURVE",
"110 652 OFFCURVE",
"136 651 CURVE SMOOTH",
"165 650 OFFCURVE",
"199 650 OFFCURVE",
"231 650 CURVE SMOOTH",
"354 650 LINE",
"350 616 LINE"
);
}
);
width = 565;
}
);
leftKerningGroup = Z;
rightKerningGroup = Z;
unicode = 005A;
},
{
glyphname = a;
lastChange = "2017-05-27 23:49:59 +0000";
layers = (
{
anchors = (
{
name = bottom;
position = "{236, 0}";
},
{
name = ogonek;
position = "{423, 0}";
},
{
name = top;
position = "{226, 440}";
}
);
layerId = "4A3087DE-C6CF-4F86-8B90-A264D0797279";
paths = (
{
closed = 1;
nodes = (
"408 24 OFFCURVE",
"396 23 OFFCURVE",
"387 23 CURVE SMOOTH",
"376 23 OFFCURVE",
"370 40 OFFCURVE",
"369 82 CURVE SMOOTH",
"368 142 OFFCURVE",
"367 228 OFFCURVE",
"370 285 CURVE SMOOTH",
"376 399 OFFCURVE",
"324 454 OFFCURVE",
"225 454 CURVE SMOOTH",
"155 454 OFFCURVE",
"74 413 OFFCURVE",
"74 376 CURVE SMOOTH",
"74 361 OFFCURVE",
"78 342 OFFCURVE",
"90 311 CURVE",
"102 311 LINE",
"125 384 OFFCURVE",
"164 420 OFFCURVE",
"208 420 CURVE SMOOTH",
"273 420 OFFCURVE",
"299 371 OFFCURVE",
"299 279 CURVE SMOOTH",
"299 248 LINE SMOOTH",
"299 241 OFFCURVE",
"296 236 OFFCURVE",
"282 236 CURVE SMOOTH",
"128 234 OFFCURVE",
"47 187 OFFCURVE",
"47 105 CURVE SMOOTH",
"47 38 OFFCURVE",
"89 -14 OFFCURVE",
"156 -14 CURVE SMOOTH",
"225 -14 OFFCURVE",
"264 8 OFFCURVE",
"310 65 CURVE",
"295 78 LINE",
"297 12 OFFCURVE",
"304 -7 OFFCURVE",
"346 -7 CURVE SMOOTH",
"372 -7 OFFCURVE",
"400 -2 OFFCURVE",
"412 2 CURVE SMOOTH",
"415 3 OFFCURVE",
"416 5 OFFCURVE",
"416 26 CURVE"
);
},
{
closed = 1;
nodes = (
"254 45 OFFCURVE",
"230 31 OFFCURVE",
"197 31 CURVE SMOOTH",
"157 31 OFFCURVE",
"123 66 OFFCURVE",
"123 132 CURVE SMOOTH",
"123 155 OFFCURVE",
"130 176 OFFCURVE",
"152 185 CURVE SMOOTH",
"184 198 OFFCURVE",
"233 209 OFFCURVE",
"316 196 CURVE",
"297 226 LINE",
"297 159 LINE SMOOTH",
"297 109 OFFCURVE",
"286 84 OFFCURVE",
"273 69 CURVE SMOOTH"
);
}
);
width = 452;
}
);
leftKerningGroup = a;
rightKerningGroup = a;
unicode = 0061;
},
{
glyphname = aogonek;
lastChange = "2017-05-27 13:28:22 +0000";
layers = (
{
anchors = (
{
name = _ogonek;
position = "{422, 0}";
}
);
components = (
{
name = a;
}
);
layerId = "4A3087DE-C6CF-4F86-8B90-A264D0797279";
paths = (
{
closed = 1;
nodes = (
"340 -202 OFFCURVE",
"315 -181 OFFCURVE",
"315 -126 CURVE SMOOTH",
"315 -62 OFFCURVE",
"361 -18 OFFCURVE",
"410 2 CURVE",
"400 12 LINE",
"326 -7 OFFCURVE",
"259 -70 OFFCURVE",
"259 -137 CURVE SMOOTH",
"259 -198 OFFCURVE",
"300 -228 OFFCURVE",
"342 -228 CURVE SMOOTH",
"380 -228 OFFCURVE",
"403 -217 OFFCURVE",
"426 -198 CURVE",
"419 -187 LINE",
"400 -198 OFFCURVE",
"385 -202 OFFCURVE",
"368 -202 CURVE SMOOTH"
);
}
);
width = 457;
}
);
leftKerningGroup = a;
leftMetricsKey = a;
rightKerningGroup = a;
rightMetricsKey = "=a-5";
unicode = 0105;
},
{
glyphname = ae;
lastChange = "2017-05-28 04:35:36 +0000";
layers = (
{
anchors = (
{
name = bottom;
position = "{251, 0}";
},
{
name = ogonek;
position = "{438, 0}";
},
{
name = top;
position = "{241, 440}";
}
);
layerId = "4A3087DE-C6CF-4F86-8B90-A264D0797279";
paths = (
{
closed = 1;
nodes = (
"372 131 CURVE",
"372 152 OFFCURVE",
"372 228 OFFCURVE",
"375 285 CURVE SMOOTH",
"381 399 OFFCURVE",
"332 454 OFFCURVE",
"227 454 CURVE SMOOTH",
"160 454 OFFCURVE",
"78 410 OFFCURVE",
"78 373 CURVE SMOOTH",
"78 358 OFFCURVE",
"83 339 OFFCURVE",
"95 311 CURVE",
"107 311 LINE",
"132 394 OFFCURVE",
"170 421 OFFCURVE",
"218 421 CURVE SMOOTH",
"281 421 OFFCURVE",
"314 371 OFFCURVE",
"314 289 CURVE SMOOTH",
"314 255 LINE SMOOTH",
"314 248 OFFCURVE",
"311 242 OFFCURVE",
"297 242 CURVE SMOOTH",
"114 242 OFFCURVE",
"47 187 OFFCURVE",
"47 115 CURVE SMOOTH",
"47 38 OFFCURVE",
"99 -14 OFFCURVE",
"176 -14 CURVE SMOOTH",
"252 -14 OFFCURVE",
"311 16 OFFCURVE"
);
},
{
closed = 1;
nodes = (
"273 29 OFFCURVE",
"212 29 CURVE SMOOTH",
"152 29 OFFCURVE",
"123 78 OFFCURVE",
"123 134 CURVE SMOOTH",
"123 173 OFFCURVE",
"131 185 OFFCURVE",
"150 192 CURVE SMOOTH",
"187 205 OFFCURVE",
"251 213 OFFCURVE",
"331 200 CURVE",
"312 236 LINE",
"312 180 LINE SMOOTH",
"312 92 OFFCURVE"
);
},
{
closed = 1;
nodes = (
"570 -14 OFFCURVE",
"630 7 OFFCURVE",
"666 31 CURVE SMOOTH",
"675 37 OFFCURVE",
"677 41 OFFCURVE",
"677 49 CURVE SMOOTH",
"677 54 OFFCURVE",
"676 61 OFFCURVE",
"673 71 CURVE",
"638 45 OFFCURVE",
"596 30 OFFCURVE",
"540 30 CURVE SMOOTH",
"453 30 OFFCURVE",
"381 93 OFFCURVE",
"385 256 CURVE",
"386 268 LINE",
"392 365 OFFCURVE",
"442 417 OFFCURVE",
"505 417 CURVE SMOOTH",
"575 417 OFFCURVE",
"611 364 OFFCURVE",
"611 282 CURVE SMOOTH",
"611 277 OFFCURVE",
"599 274 OFFCURVE",
"525 268 CURVE SMOOTH",
"368 255 LINE",
"368 223 LINE",
"676 245 LINE",
"680 258 OFFCURVE",
"682 276 OFFCURVE",
"682 298 CURVE SMOOTH",
"682 378 OFFCURVE",
"629 454 OFFCURVE",
"529 454 CURVE SMOOTH",
"436 454 OFFCURVE",
"364 391 OFFCURVE",
"335 298 CURVE",
"335 117 LINE",
"364 32 OFFCURVE",
"424 -14 OFFCURVE",
"513 -14 CURVE SMOOTH"
);
}
);
width = 729;
}
);
leftKerningGroup = a;
leftMetricsKey = a;
rightKerningGroup = e;
rightMetricsKey = e;
unicode = 00E6;
},
{
glyphname = c;
lastChange = "2017-05-27 23:04:41 +0000";
layers = (
{
anchors = (
{
name = bottom;
position = "{241, 0}";
},
{
name = top;
position = "{246, 450}";
}
);
layerId = "4A3087DE-C6CF-4F86-8B90-A264D0797279";
leftMetricsKey = "=o";
paths = (
{
closed = 1;
nodes = (
"297 409 OFFCURVE",
"347 373 OFFCURVE",
"375 300 CURVE",
"394 302 LINE",
"394 372 OFFCURVE",
"392 387 OFFCURVE",
"376 408 CURVE SMOOTH",
"353 438 OFFCURVE",
"314 454 OFFCURVE",
"269 454 CURVE SMOOTH",
"141 454 OFFCURVE",
"39 346 OFFCURVE",
"39 207 CURVE SMOOTH",
"39 60 OFFCURVE",
"131 -14 OFFCURVE",
"231 -14 CURVE SMOOTH",
"297 -14 OFFCURVE",
"340 2 OFFCURVE",
"388 34 CURVE SMOOTH",
"394 38 OFFCURVE",
"398 42 OFFCURVE",
"398 48 CURVE SMOOTH",
"398 53 OFFCURVE",
"395 64 OFFCURVE",
"391 73 CURVE",
"353 46 OFFCURVE",
"314 34 OFFCURVE",
"260 34 CURVE SMOOTH",
"199 34 OFFCURVE",
"114 86 OFFCURVE",
"114 236 CURVE SMOOTH",
"114 355 OFFCURVE",
"175 409 OFFCURVE",
"234 409 CURVE SMOOTH"
);
}
);
width = 448;
}
);
leftKerningGroup = o;
leftMetricsKey = O;
rightKerningGroup = c;
unicode = 0063;
},
{
glyphname = d;
lastChange = "2017-05-27 13:28:23 +0000";
layers = (
{
anchors = (
{
name = bottom;
position = "{273, 0}";
},
{
name = "center#2";
position = "{411, 570}";
},
{
name = top;
position = "{273, 450}";
},
{
name = topright;
position = "{525, 450}";
}
);
components = (
{
alignment = 1;
name = _bowl.1;
transform = "{-1, 0, 0, -1, 394, 440}";
},
{
alignment = 1;
name = _stem.2;
transform = "{1, 0, 0, 1, 291, 0}";
}
);
layerId = "4A3087DE-C6CF-4F86-8B90-A264D0797279";
leftMetricsKey = "=o";
width = 532;
},
{
associatedMasterId = "4A3087DE-C6CF-4F86-8B90-A264D0797279";
layerId = "E9E01D4A-BE8A-44BC-AA02-5111E66867E3";
leftMetricsKey = "=o";
name = "Regular Dec 5 13, 10:41";
paths = (
{
closed = 1;
nodes = (
"444 363 LINE",
"372 363 LINE",
"372 313 LINE",
"444 313 LINE"
);
},
{
closed = 1;
nodes = (
"418 371 LINE",
"400 445 OFFCURVE",
"348 474 OFFCURVE",
"274 474 CURVE SMOOTH",
"162 474 OFFCURVE",
"26 405 OFFCURVE",
"26 217 CURVE SMOOTH",
"26 71 OFFCURVE",
"102 -14 OFFCURVE",
"228 -14 CURVE SMOOTH",
"319 -14 OFFCURVE",
"386 33 OFFCURVE",
"398 110 CURVE",
"372 158 LINE",
"372 89 OFFCURVE",
"328 35 OFFCURVE",
"260 35 CURVE SMOOTH",
"179 35 OFFCURVE",
"108 95 OFFCURVE",
"108 253 CURVE SMOOTH",
"108 373 OFFCURVE",
"169 423 OFFCURVE",
"246 422 CURVE SMOOTH",
"339 421 OFFCURVE",
"372 368 OFFCURVE",
"372 333 CURVE"
);
},
{
closed = 1;
nodes = (
"444 363 LINE",
"444 575 OFFCURVE",
"451 638 OFFCURVE",
"466 725 CURVE",
"440 721 OFFCURVE",
"415 718 OFFCURVE",
"387 716 CURVE",
"378 640 OFFCURVE",
"372 570 OFFCURVE",
"372 363 CURVE"
);
},
{
closed = 1;
nodes = (
"372 95 LINE",
"391 -5 LINE",
"410 -1 OFFCURVE",
"440 3 OFFCURVE",
"464 3 CURVE",
"448 93 OFFCURVE",
"444 139 OFFCURVE",
"444 313 CURVE",
"372 313 LINE"
);
}
);
width = 518;
}
);
leftKerningGroup = o;
leftMetricsKey = o;
rightKerningGroup = l;
unicode = 0064;
},
{
glyphname = eth;
lastChange = "2017-05-27 12:45:56 +0000";
layers = (
{
anchors = (
{
name = bottom;
position = "{273, 0}";
},
{
name = entry;
position = "{386, 450}";
},
{
name = top;
position = "{273, 450}";
},
{
name = topright;
position = "{525, 450}";
}
);
layerId = "4A3087DE-C6CF-4F86-8B90-A264D0797279";
paths = (
{
closed = 1;
nodes = (
"178 675 OFFCURVE",
"224 637 OFFCURVE",
"266 590 CURVE SMOOTH",
"347 499 OFFCURVE",
"391 360 OFFCURVE",
"391 239 CURVE SMOOTH",
"391 87 OFFCURVE",
"331 20 OFFCURVE",
"255 20 CURVE SMOOTH",
"168 20 OFFCURVE",
"119 97 OFFCURVE",
"119 233 CURVE SMOOTH",
"119 367 OFFCURVE",
"199 416 OFFCURVE",
"256 416 CURVE SMOOTH",
"312 416 OFFCURVE",
"338 405 OFFCURVE",
"386 358 CURVE",
"382 403 LINE",
"372 436 OFFCURVE",
"337 454 OFFCURVE",
"297 454 CURVE SMOOTH",
"163 454 OFFCURVE",
"39 361 OFFCURVE",
"39 205 CURVE SMOOTH",
"39 61 OFFCURVE",
"132 -14 OFFCURVE",
"236 -14 CURVE SMOOTH",
"376 -14 OFFCURVE",
"472 87 OFFCURVE",
"472 247 CURVE SMOOTH",
"472 422 OFFCURVE",
"371 613 OFFCURVE",
"177 734 CURVE",
"105 720 LINE",
"104 716 LINE"
);
},
{
closed = 1;
nodes = (
"168 533 LINE",
"250 567 OFFCURVE",
"332 596 OFFCURVE",
"414 622 CURVE",
"409 655 LINE",
"328 622 OFFCURVE",
"246 592 OFFCURVE",
"163 565 CURVE"
);
}
);
width = 512;
}
);
leftKerningGroup = eth;
rightKerningGroup = eth;
unicode = 00F0;
},
{
glyphname = e;
lastChange = "2017-05-27 21:44:24 +0000";
layers = (
{
anchors = (
{
name = bottom;
position = "{221, 0}";
},
{
name = ogonek;
position = "{398, 0}";
},
{
name = top;
position = "{242, 440}";
}
);
layerId = "4A3087DE-C6CF-4F86-8B90-A264D0797279";
leftMetricsKey = "=o";
paths = (
{
closed = 1;
nodes = (
"307 -14 OFFCURVE",
"359 8 OFFCURVE",
"395 31 CURVE SMOOTH",
"404 37 OFFCURVE",
"406 41 OFFCURVE",
"406 49 CURVE SMOOTH",
"406 54 OFFCURVE",
"405 61 OFFCURVE",
"400 71 CURVE",
"365 45 OFFCURVE",
"323 31 OFFCURVE",
"267 31 CURVE SMOOTH",
"180 31 OFFCURVE",
"110 93 OFFCURVE",
"114 256 CURVE",
"115 268 LINE",
"121 365 OFFCURVE",
"168 416 OFFCURVE",
"231 416 CURVE SMOOTH",
"291 416 OFFCURVE",
"336 364 OFFCURVE",
"336 282 CURVE SMOOTH",
"336 277 OFFCURVE",
"317 275 OFFCURVE",
"243 275 CURVE SMOOTH",
"95 275 LINE",
"95 245 LINE",
"403 245 LINE",
"407 258 OFFCURVE",
"409 276 OFFCURVE",
"409 298 CURVE SMOOTH",
"409 378 OFFCURVE",
"356 454 OFFCURVE",
"256 454 CURVE SMOOTH",
"135 454 OFFCURVE",
"39 346 OFFCURVE",
"39 207 CURVE SMOOTH",
"39 64 OFFCURVE",
"117 -14 OFFCURVE",
"230 -14 CURVE SMOOTH"
);
}
);
width = 456;
},
{
associatedMasterId = "4A3087DE-C6CF-4F86-8B90-A264D0797279";
layerId = "23D74DE1-3D11-4F35-90C2-BC2C4A35B5F9";
leftMetricsKey = "=o";
name = "Regular May 11 15, 22:14";
paths = (
{
closed = 1;
nodes = (
"138 444 OFFCURVE",
"46 360 OFFCURVE",
"46 207 CURVE SMOOTH",
"46 57 OFFCURVE",
"131 -8 OFFCURVE",
"251 -8 CURVE SMOOTH",
"305 -8 OFFCURVE",
"366 14 OFFCURVE",
"399 45 CURVE",
"388 79 LINE",
"354 57 OFFCURVE",
"318 47 OFFCURVE",
"281 47 CURVE SMOOTH",
"198 47 OFFCURVE",
"128 99 OFFCURVE",
"124 223 CURVE",
"126 241 LINE",
"126 354 OFFCURVE",
"169 390 OFFCURVE",
"228 390 CURVE SMOOTH",
"301 390 OFFCURVE",
"334 337 OFFCURVE",
"334 258 CURVE",
"268 253 OFFCURVE",
"191 252 OFFCURVE",
"113 253 CURVE",
"112 210 LINE",
"199 214 OFFCURVE",
"311 216 OFFCURVE",
"408 217 CURVE",
"411 228 OFFCURVE",
"412 241 OFFCURVE",
"412 254 CURVE SMOOTH",
"412 364 OFFCURVE",
"351 444 OFFCURVE",
"253 444 CURVE SMOOTH"
);
},
{
closed = 0;
nodes = (
"399 45 LINE"
);
}
);
width = 453;
}
);
leftKerningGroup = e;
leftMetricsKey = o;
rightKerningGroup = e;
unicode = 0065;
},
{
glyphname = eogonek;
lastChange = "2017-05-28 04:34:10 +0000";
layers = (
{
anchors = (
{
name = _ogonek;
position = "{395, 0}";
}
);
components = (
{
name = e;
}
);
layerId = "4A3087DE-C6CF-4F86-8B90-A264D0797279";
paths = (
{
closed = 1;
nodes = (
"305 -202 OFFCURVE",
"280 -181 OFFCURVE",
"280 -126 CURVE SMOOTH",
"280 -62 OFFCURVE",
"328 -10 OFFCURVE",
"395 31 CURVE",
"372 30 LINE",
"294 -7 OFFCURVE",
"224 -70 OFFCURVE",
"224 -137 CURVE SMOOTH",
"224 -198 OFFCURVE",
"265 -228 OFFCURVE",
"307 -228 CURVE SMOOTH",
"345 -228 OFFCURVE",
"368 -217 OFFCURVE",
"391 -198 CURVE",
"384 -187 LINE",
"365 -198 OFFCURVE",
"350 -202 OFFCURVE",
"333 -202 CURVE SMOOTH"
);
}
);
width = 456;
}
);
leftKerningGroup = e;
leftMetricsKey = e;
rightKerningGroup = e;
rightMetricsKey = e;
unicode = 0119;
},
{
glyphname = f;
lastChange = "2017-05-28 04:19:56 +0000";
layers = (
{
anchors = (
{
name = bottom;
position = "{155, 0}";
},
{
name = top;
position = "{155, 430}";
}
);
hints = (
{
origin = "{0, 13}";
target = "{0, 14}";
type = Cap;
name = _cap.stm.btm.3;
}
);
layerId = "4A3087DE-C6CF-4F86-8B90-A264D0797279";
paths = (
{
closed = 1;
nodes = (
"376 617 LINE",
"377 634 OFFCURVE",
"378 646 OFFCURVE",
"378 655 CURVE SMOOTH",
"378 710 OFFCURVE",
"343 734 OFFCURVE",
"292 734 CURVE SMOOTH",
"228 734 OFFCURVE",
"159 695 OFFCURVE",
"117 606 CURVE SMOOTH",
"100 569 OFFCURVE",
"91 520 OFFCURVE",
"91 440 CURVE SMOOTH",
"91 0 LINE",
"163 0 LINE",
"163 530 LINE SMOOTH",
"163 650 OFFCURVE",
"204 681 OFFCURVE",
"250 681 CURVE SMOOTH",
"298 681 OFFCURVE",
"327 659 OFFCURVE",
"360 614 CURVE"
);
},
{
closed = 1;
nodes = (
"33 410 LINE",
"288 410 LINE SMOOTH",
"291 410 OFFCURVE",
"292 412 OFFCURVE",
"292 442 CURVE",
"231 440 OFFCURVE",
"112 440 OFFCURVE",
"35 440 CURVE"
);
}
);
width = 283;
}
);
leftKerningGroup = f;
rightKerningGroup = f;
unicode = 0066;
},
{
glyphname = g;
lastChange = "2017-05-28 02:34:12 +0000";
layers = (
{
anchors = (
{
name = bottom;
position = "{232, 0}";
},
{
name = top;
position = "{222, 450}";
}
);
layerId = "4A3087DE-C6CF-4F86-8B90-A264D0797279";
paths = (
{
closed = 1;
nodes = (
"430 410 LINE SMOOTH",
"435 410 OFFCURVE",
"436 415 OFFCURVE",
"436 441 CURVE",
"405 440 OFFCURVE",
"351 440 OFFCURVE",
"333 440 CURVE SMOOTH",
"270 440 OFFCURVE",
"256 454 OFFCURVE",
"213 454 CURVE SMOOTH",
"123 454 OFFCURVE",
"46 394 OFFCURVE",
"46 297 CURVE SMOOTH",
"46 223 OFFCURVE",
"109 165 OFFCURVE",
"182 165 CURVE",
"170 175 LINE",
"123 152 LINE SMOOTH",
"99 140 OFFCURVE",
"87 126 OFFCURVE",
"87 108 CURVE SMOOTH",
"87 74 OFFCURVE",
"109 37 OFFCURVE",
"158 23 CURVE",
"148 52 LINE",
"118 31 OFFCURVE",
"89 11 OFFCURVE",
"62 -4 CURVE SMOOTH",
"35 -19 OFFCURVE",
"22 -45 OFFCURVE",
"22 -72 CURVE SMOOTH",
"22 -161 OFFCURVE",
"92 -213 OFFCURVE",
"174 -213 CURVE SMOOTH",
"248 -213 OFFCURVE",
"303 -195 OFFCURVE",
"350 -163 CURVE SMOOTH",
"394 -133 OFFCURVE",
"426 -86 OFFCURVE",
"426 -33 CURVE SMOOTH",
"426 43 OFFCURVE",
"370 73 OFFCURVE",
"243 75 CURVE SMOOTH",
"181 76 OFFCURVE",
"156 91 OFFCURVE",
"156 120 CURVE SMOOTH",
"156 135 OFFCURVE",
"166 150 OFFCURVE",
"200 153 CURVE SMOOTH",
"296 162 OFFCURVE",
"390 210 OFFCURVE",
"390 308 CURVE SMOOTH",
"390 345 OFFCURVE",
"380 383 OFFCURVE",
"340 414 CURVE",
"324 410 LINE"
);
},
{
closed = 1;
nodes = (
"157 190 OFFCURVE",
"120 242 OFFCURVE",
"120 314 CURVE SMOOTH",
"120 377 OFFCURVE",
"146 422 OFFCURVE",
"206 422 CURVE SMOOTH",
"280 422 OFFCURVE",
"316 354 OFFCURVE",
"316 293 CURVE SMOOTH",
"316 232 OFFCURVE",
"280 190 OFFCURVE",
"222 190 CURVE SMOOTH"
);
},
{
closed = 1;
nodes = (
"355 -130 OFFCURVE",
"289 -175 OFFCURVE",
"214 -175 CURVE SMOOTH",
"131 -175 OFFCURVE",
"98 -127 OFFCURVE",
"98 -65 CURVE SMOOTH",
"98 -45 OFFCURVE",
"107 -25 OFFCURVE",
"132 -7 CURVE SMOOTH",
"155 8 OFFCURVE",
"187 15 OFFCURVE",
"225 13 CURVE SMOOTH",
"322 9 OFFCURVE",
"355 -6 OFFCURVE",
"355 -60 CURVE SMOOTH"
);
}
);
width = 463;
}
);
leftKerningGroup = g;
rightKerningGroup = g;
unicode = 0067;
},
{
glyphname = idotless;
lastChange = "2017-05-27 23:01:20 +0000";
layers = (
{
anchors = (
{
name = bottom;
position = "{124, 0}";
},
{
name = ogonek;
position = "{216, 10}";
},
{
name = top;
position = "{119, 450}";
}
);
hints = (
{
origin = "{0, 2}";
target = "{0, 3}";
type = Cap;
name = _cap.stm.btm.2;
},
{
origin = "{0, 0}";
target = "{0, 1}";
type = Cap;
name = _cap.stm.mid.2;
}
);
layerId = "4A3087DE-C6CF-4F86-8B90-A264D0797279";
paths = (
{
closed = 1;
nodes = (
"155 440 LINE",
"83 440 LINE",
"83 0 LINE",
"155 0 LINE"
);
}
);
width = 239;
}
);
leftKerningGroup = i;
rightKerningGroup = i;
unicode = 0131;
},
{
glyphname = iogonek;
lastChange = "2017-05-27 23:04:06 +0000";
layers = (
{
anchors = (
{
name = _ogonek;
position = "{208, 10}";
}
);
components = (
{
name = i;
}
);
layerId = "4A3087DE-C6CF-4F86-8B90-A264D0797279";
paths = (
{
closed = 1;
nodes = (
"115 -202 OFFCURVE",
"90 -181 OFFCURVE",
"90 -126 CURVE SMOOTH",
"90 -61 OFFCURVE",
"138 -13 OFFCURVE",
"210 4 CURVE",
"179 7 LINE",
"101 -12 OFFCURVE",
"34 -70 OFFCURVE",
"34 -137 CURVE SMOOTH",
"34 -198 OFFCURVE",
"75 -228 OFFCURVE",
"117 -228 CURVE SMOOTH",
"155 -228 OFFCURVE",
"178 -217 OFFCURVE",
"201 -198 CURVE",
"194 -187 LINE",
"175 -198 OFFCURVE",
"160 -202 OFFCURVE",
"143 -202 CURVE SMOOTH"
);
}
);
width = 231;
}
);
leftKerningGroup = i;
rightKerningGroup = i;
unicode = 012F;
},
{
glyphname = jdotless;
lastChange = "2017-05-27 23:03:09 +0000";
layers = (
{
anchors = (
{
name = bottom;
position = "{105, 0}";
},
{
name = top;
position = "{108, 440}";
}
);
hints = (
{
origin = "{0, 13}";
target = "{0, 14}";
type = Cap;
name = _cap.stm.mid.2;
}
);
layerId = "4A3087DE-C6CF-4F86-8B90-A264D0797279";
paths = (
{
closed = 1;
nodes = (
"72 0 LINE SMOOTH",
"72 -135 OFFCURVE",
"38 -171 OFFCURVE",
"-22 -191 CURVE",
"-13 -208 OFFCURVE",
"-10 -213 OFFCURVE",
"-7 -212 CURVE SMOOTH",
"92 -174 OFFCURVE",
"147 -135 OFFCURVE",
"145 0 CURVE SMOOTH",
"144 62 OFFCURVE",
"144 124 OFFCURVE",
"144 186 CURVE SMOOTH",
"144 440 LINE",
"72 440 LINE"
);
}
);
width = 210;
}
);
leftKerningGroup = jdotless;
rightKerningGroup = jdotless;
unicode = 0237;
},
{
glyphname = k;
lastChange = "2017-05-27 12:25:32 +0000";
layers = (
{
anchors = (
{
name = bottom;
position = "{249, 0}";
},
{
name = top;
position = "{244, 430}";
}
);
components = (
{
alignment = 1;
name = _stem.4;
}
);
layerId = "4A3087DE-C6CF-4F86-8B90-A264D0797279";
paths = (
{
closed = 1;
nodes = (
"237 168 OFFCURVE",
"286 116 OFFCURVE",
"347 38 CURVE SMOOTH",
"377 0 OFFCURVE",
"384 -5 OFFCURVE",
"404 -5 CURVE SMOOTH",
"424 -5 OFFCURVE",
"436 -3 OFFCURVE",
"446 0 CURVE SMOOTH",
"500 15 LINE SMOOTH",
"502 16 OFFCURVE",
"502 16 OFFCURVE",
"502 38 CURVE",
"493 37 OFFCURVE",
"482 36 OFFCURVE",
"477 36 CURVE SMOOTH",
"454 36 OFFCURVE",
"441 46 OFFCURVE",
"344 158 CURVE SMOOTH",
"241 277 LINE",
"224 250 LINE",
"297 327 OFFCURVE",
"351 376 OFFCURVE",
"397 406 CURVE SMOOTH",
"411 415 OFFCURVE",
"424 418 OFFCURVE",
"438 418 CURVE",
"438 431 OFFCURVE",
"438 439 OFFCURVE",
"436 440 CURVE",
"380 447 LINE",
"329 397 OFFCURVE",
"253 323 OFFCURVE",
"170 250 CURVE",
"169 235 LINE",
"175 234 OFFCURVE",
"181 230 OFFCURVE",
"192 218 CURVE SMOOTH"
);
}
);
width = 489;
}
);
leftKerningGroup = h;
leftMetricsKey = h;
rightKerningGroup = k;
unicode = 006B;
},
{
glyphname = l;
lastChange = "2017-05-27 13:13:57 +0000";
layers = (
{
anchors = (
{
name = bottom;
position = "{123, 0}";
},
{
name = center;
position = "{113, 450}";
},
{
name = top;
position = "{118, 727}";
},
{
name = topright;
position = "{232, 430}";
}
);
hints = (
{
origin = "{0, 1}";
target = "{0, 2}";
type = Cap;
name = _cap.stm.top.1;
},
{
origin = "{0, 3}";
target = "{0, 0}";
type = Cap;
name = _cap.stm.btm.2;
}
);
layerId = "4A3087DE-C6CF-4F86-8B90-A264D0797279";
paths = (
{
closed = 1;
nodes = (
"145 0 LINE",
"145 727 LINE",
"73 727 LINE",
"73 0 LINE"
);
}
);
width = 235;
}
);
leftKerningGroup = b;
leftMetricsKey = b;
rightKerningGroup = l;
unicode = 006C;
},
{
glyphname = m;
lastChange = "2017-05-27 13:28:22 +0000";
layers = (
{
anchors = (
{
name = bottom;
position = "{378, 0}";
},
{
name = entry;
position = "{448, 0}";
},
{
name = top;
position = "{378, 430}";
}
);
hints = (
{
origin = "{0, 0}";
target = "{0, 2}";
type = Cap;
name = _cap.stm.mid.1;
},
{
origin = "{0, 2}";
target = "{0, 3}";
type = Cap;
name = _cap.stm.btm.3;
},
{
origin = "{2, 10}";
target = "{2, 11}";
type = Cap;
name = _cap.stm.btm.3;
},
{
origin = "{1, 19}";
target = "{1, 0}";
type = Cap;
name = _cap.stm.btm.3;
}
);
layerId = "4A3087DE-C6CF-4F86-8B90-A264D0797279";
leftMetricsKey = "=n";
rightMetricsKey = "=n";
paths = (
{
closed = 1;
nodes = (
"156 440 LINE",
"84 440 LINE",
"84 0 LINE",
"156 0 LINE"
);
},
{
closed = 1;
nodes = (
"716 0 LINE",
"716 244 LINE SMOOTH",
"716 289 OFFCURVE",
"713 329 OFFCURVE",
"705 359 CURVE SMOOTH",
"690 416 OFFCURVE",
"632 454 OFFCURVE",
"557 454 CURVE SMOOTH",
"496 454 OFFCURVE",
"439 420 OFFCURVE",
"387 372 CURVE",
"436 197 LINE",
"436 280 LINE SMOOTH",
"436 371 OFFCURVE",
"471 411 OFFCURVE",
"538 411 CURVE SMOOTH",
"597 411 OFFCURVE",
"644 374 OFFCURVE",
"644 245 CURVE SMOOTH",
"644 0 LINE"
);
},
{
closed = 1;
nodes = (
"217 454 OFFCURVE",
"169 433 OFFCURVE",
"117 388 CURVE",
"156 305 LINE",
"156 390 OFFCURVE",
"197 412 OFFCURVE",
"251 412 CURVE SMOOTH",
"319 412 OFFCURVE",
"364 367 OFFCURVE",
"364 238 CURVE SMOOTH",
"364 0 LINE",
"436 0 LINE",
"436 247 LINE",
"411 367 LINE",
"388 429 OFFCURVE",
"331 454 OFFCURVE",
"269 454 CURVE SMOOTH"
);
}
);
width = 785;
}
);
leftKerningGroup = n;
leftMetricsKey = n;
rightKerningGroup = n;
rightMetricsKey = n;
unicode = 006D;
},
{
glyphname = eng;
lastChange = "2017-08-13 10:49:02 +0000";
layers = (
{
components = (
{
alignment = -1;
name = _stem.6;
}
);
layerId = "4A3087DE-C6CF-4F86-8B90-A264D0797279";
paths = (
{
closed = 1;
nodes = (
"379 242 LINE",
"379 7 LINE SMOOTH",
"379 -128 OFFCURVE",
"375 -176 OFFCURVE",
"301 -176 CURVE",
"301 -199 OFFCURVE",
"303 -203 OFFCURVE",
"306 -203 CURVE SMOOTH",
"358 -203 OFFCURVE",
"392 -189 OFFCURVE",
"417 -158 CURVE SMOOTH",
"442 -127 OFFCURVE",
"455 -77 OFFCURVE",
"452 20 CURVE SMOOTH",
"451 55 OFFCURVE",
"451 101 OFFCURVE",
"451 156 CURVE SMOOTH",
"451 251 LINE"
);
},
{
closed = 1;
nodes = (
"239 454 OFFCURVE",
"179 426 OFFCURVE",
"127 361 CURVE",
"155 282 LINE",
"155 364 OFFCURVE",
"201 405 OFFCURVE",
"262 405 CURVE SMOOTH",
"339 405 OFFCURVE",
"379 360 OFFCURVE",
"379 233 CURVE",
"451 251 LINE",
"451 296 OFFCURVE",
"447 337 OFFCURVE",
"436 367 CURVE SMOOTH",
"413 429 OFFCURVE",
"355 454 OFFCURVE",
"294 454 CURVE SMOOTH"
);
}
);
width = 513;
}
);
leftKerningGroup = n;
leftMetricsKey = n;
rightKerningGroup = j;
unicode = 014B;
},
{
glyphname = o;
lastChange = "2017-05-27 21:44:31 +0000";
layers = (
{
anchors = (
{
name = bottom;
position = "{262, 0}";
},
{
name = center;
position = "{262, 215}";
},
{
name = ogonek;
position = "{470, 10}";
},
{
name = top;
position = "{262, 440}";
},
{
name = topright;
position = "{502, 430}";
}
);
layerId = "4A3087DE-C6CF-4F86-8B90-A264D0797279";
paths = (
{
closed = 1;
nodes = (
"147 454 OFFCURVE",
"39 371 OFFCURVE",
"39 218 CURVE SMOOTH",
"39 69 OFFCURVE",
"142 -14 OFFCURVE",
"258 -14 CURVE SMOOTH",
"368 -14 OFFCURVE",
"485 60 OFFCURVE",
"485 217 CURVE SMOOTH",
"485 357 OFFCURVE",
"391 454 OFFCURVE",
"265 454 CURVE SMOOTH"
);
},
{
closed = 1;
nodes = (
"169 22 OFFCURVE",
"121 114 OFFCURVE",
"121 223 CURVE SMOOTH",
"121 347 OFFCURVE",
"168 418 OFFCURVE",
"260 418 CURVE SMOOTH",
"355 418 OFFCURVE",
"403 325 OFFCURVE",
"403 210 CURVE SMOOTH",
"403 89 OFFCURVE",
"358 22 OFFCURVE",
"263 22 CURVE SMOOTH"
);
}
);
width = 524;
}
);
leftKerningGroup = o;
rightKerningGroup = o;
unicode = 006F;
},
{
glyphname = oslash;
lastChange = "2017-05-27 13:28:22 +0000";
layers = (
{
anchors = (
{
name = bottom;
position = "{266, 0}";
},
{
name = center;
position = "{266, 215}";
},
{
name = ogonek;
position = "{474, 10}";
},
{
name = top;
position = "{266, 450}";
},
{
name = topright;
position = "{506, 430}";
}
);
components = (
{
name = o;
}
);
layerId = "4A3087DE-C6CF-4F86-8B90-A264D0797279";
paths = (
{
closed = 1;
nodes = (
"420 485 LINE",
"115 55 LINE SMOOTH",
"96 28 OFFCURVE",
"79 4 OFFCURVE",
"59 -21 CURVE",
"92 -35 LINE",
"397 395 LINE SMOOTH",
"415 421 OFFCURVE",
"433 446 OFFCURVE",
"453 471 CURVE"
);
}
);
width = 524;
}
);
leftKerningGroup = o;
leftMetricsKey = o;
rightKerningGroup = o;
rightMetricsKey = o;
unicode = 00F8;
},
{
glyphname = oe;
lastChange = "2017-05-27 13:28:22 +0000";
layers = (
{
anchors = (
{
name = bottom;
position = "{759, 0}";
},
{
name = center;
position = "{275, 215}";
},
{
name = ogonek;
position = "{936, 0}";
},
{
name = top;
position = "{780, 450}";
},
{
name = topright;
position = "{515, 430}";
}
);
components = (
{
name = e;
transform = "{1, 0, 0, 1, 384, 0}";
}
);
layerId = "4A3087DE-C6CF-4F86-8B90-A264D0797279";
paths = (
{
closed = 1;
nodes = (
"151 464 OFFCURVE",
"39 373 OFFCURVE",
"39 225 CURVE SMOOTH",
"39 77 OFFCURVE",
"131 -14 OFFCURVE",
"259 -14 CURVE SMOOTH",
"363 -14 OFFCURVE",
"450 45 OFFCURVE",
"479 148 CURVE",
"478 313 LINE",
"451 408 OFFCURVE",
"379 464 OFFCURVE",
"279 464 CURVE SMOOTH"
);
},
{
closed = 1;
nodes = (
"186 19 OFFCURVE",
"118 94 OFFCURVE",
"118 255 CURVE SMOOTH",
"118 356 OFFCURVE",
"172 432 OFFCURVE",
"263 432 CURVE SMOOTH",
"355 432 OFFCURVE",
"424 356 OFFCURVE",
"424 195 CURVE SMOOTH",
"424 89 OFFCURVE",
"363 19 OFFCURVE",
"278 19 CURVE SMOOTH"
);
}
);
width = 840;
}
);
leftKerningGroup = o;
leftMetricsKey = o;
rightKerningGroup = e;
rightMetricsKey = e;
unicode = 0153;
},
{
glyphname = thorn;
lastChange = "2017-05-27 13:28:22 +0000";
layers = (
{
anchors = (
{
name = entry;
position = "{143, 0}";
},
{
name = exit;
position = "{143, 0}";
}
);
components = (
{
alignment = 1;
name = _bowl.1;
transform = "{1, 0, 0, 1, 121, 0}";
}
);
hints = (
{
origin = "{0, 7}";
target = "{0, 0}";
type = Cap;
name = _cap.stm.btm.3;
},
{
origin = "{0, 5}";
target = "{0, 6}";
type = Cap;
name = _cap.stm.top.1;
}
);
layerId = "4A3087DE-C6CF-4F86-8B90-A264D0797279";
paths = (
{
closed = 1;
nodes = (
"145 -219 LINE",
"145 114 LINE",
"143 113 LINE",
"143 337 LINE",
"145 336 LINE",
"145 727 LINE",
"73 727 LINE",
"73 -219 LINE"
);
}
);
width = 515;
}
);
leftKerningGroup = h;
leftMetricsKey = b;
rightKerningGroup = o;
rightMetricsKey = o;
unicode = 00FE;
},
{
glyphname = r;
lastChange = "2017-05-25 21:35:06 +0000";
layers = (
{
anchors = (
{
name = bottom;
position = "{125, 0}";
},
{
name = top;
position = "{170, 440}";
}
);
components = (
{
name = _stem.6;
}
);
layerId = "4A3087DE-C6CF-4F86-8B90-A264D0797279";
leftMetricsKey = "=n";
paths = (
{
closed = 1;
nodes = (
"161 454 OFFCURVE",
"137 358 OFFCURVE",
"142 304 CURVE",
"156 301 LINE",
"156 368 OFFCURVE",
"185 397 OFFCURVE",
"226 397 CURVE SMOOTH",
"246 397 OFFCURVE",
"269 394 OFFCURVE",
"287 390 CURVE",
"290 437 LINE",
"283 448 OFFCURVE",
"270 454 OFFCURVE",
"253 454 CURVE SMOOTH"
);
}
);
width = 310;
}
);
leftKerningGroup = n;
leftMetricsKey = n;
rightKerningGroup = r;
unicode = 0072;
},
{
glyphname = s;
lastChange = "2017-05-27 13:27:37 +0000";
layers = (
{
anchors = (
{
name = bottom;
position = "{169, 0}";
},
{
name = top;
position = "{187, 440}";
}
);
layerId = "4A3087DE-C6CF-4F86-8B90-A264D0797279";
paths = (
{
closed = 1;
nodes = (
"118 25 OFFCURVE",
"84 38 OFFCURVE",
"48 98 CURVE",
"32 96 LINE",
"33 14 OFFCURVE",
"57 -14 OFFCURVE",
"119 -14 CURVE SMOOTH",
"228 -14 OFFCURVE",
"312 52 OFFCURVE",
"312 128 CURVE SMOOTH",
"312 179 OFFCURVE",
"288 213 OFFCURVE",
"205 270 CURVE SMOOTH",
"152 310 OFFCURVE",
"132 332 OFFCURVE",
"132 357 CURVE SMOOTH",
"132 379 OFFCURVE",
"151 408 OFFCURVE",
"181 408 CURVE SMOOTH",
"213 408 OFFCURVE",
"241 400 OFFCURVE",
"275 368 CURVE",
"291 370 LINE",
"289 434 OFFCURVE",
"251 454 OFFCURVE",
"214 454 CURVE SMOOTH",
"147 454 OFFCURVE",
"72 389 OFFCURVE",
"72 327 CURVE SMOOTH",
"72 271 OFFCURVE",
"98 245 OFFCURVE",
"153 205 CURVE SMOOTH",
"227 151 OFFCURVE",
"242 120 OFFCURVE",
"242 94 CURVE SMOOTH",
"242 56 OFFCURVE",
"206 25 OFFCURVE",
"158 25 CURVE SMOOTH"
);
}
);
width = 348;
},
{
associatedMasterId = "4A3087DE-C6CF-4F86-8B90-A264D0797279";
layerId = "CDBEBA36-1D7A-4F71-A968-671435AC6B2F";
name = "Oct 5 16, 04:01";
paths = (
{
closed = 1;
nodes = (
"129 25 OFFCURVE",
"99 48 OFFCURVE",
"68 89 CURVE",
"49 87 OFFCURVE",
"37 74 OFFCURVE",
"37 50 CURVE SMOOTH",
"37 9 OFFCURVE",
"86 -14 OFFCURVE",
"141 -14 CURVE SMOOTH",
"217 -14 OFFCURVE",
"305 48 OFFCURVE",
"305 118 CURVE SMOOTH",
"305 169 OFFCURVE",
"273 204 OFFCURVE",
"189 270 CURVE SMOOTH",
"142 307 OFFCURVE",
"126 327 OFFCURVE",
"126 354 CURVE SMOOTH",
"126 388 OFFCURVE",
"147 404 OFFCURVE",
"175 404 CURVE SMOOTH",
"210 404 OFFCURVE",
"238 390 OFFCURVE",
"269 352 CURVE",
"277 352 OFFCURVE",
"290 364 OFFCURVE",
"290 392 CURVE SMOOTH",
"290 425 OFFCURVE",
"260 444 OFFCURVE",
"204 444 CURVE SMOOTH",
"143 444 OFFCURVE",
"66 383 OFFCURVE",
"66 315 CURVE SMOOTH",
"66 274 OFFCURVE",
"98 241 OFFCURVE",
"163 191 CURVE SMOOTH",
"215 151 OFFCURVE",
"240 116 OFFCURVE",
"240 81 CURVE SMOOTH",
"240 54 OFFCURVE",
"221 25 OFFCURVE",
"179 25 CURVE SMOOTH"
);
}
);
width = 358;
}
);
leftKerningGroup = s;
rightKerningGroup = s;
unicode = 0073;
},
{
glyphname = germandbls;
lastChange = "2017-05-27 12:47:24 +0000";
layers = (
{
hints = (
{
origin = "{0, 18}";
target = "{0, 19}";
type = Cap;
name = _cap.stm.btm.3;
}
);
layerId = "4A3087DE-C6CF-4F86-8B90-A264D0797279";
paths = (
{
closed = 1;
nodes = (
"334 365 OFFCURVE",
"307 404 OFFCURVE",
"307 430 CURVE SMOOTH",
"307 453 OFFCURVE",
"329 471 OFFCURVE",
"369 482 CURVE",
"409 511 OFFCURVE",
"438 562 OFFCURVE",
"438 614 CURVE SMOOTH",
"438 680 OFFCURVE",
"370 734 OFFCURVE",
"298 734 CURVE SMOOTH",
"234 734 OFFCURVE",
"167 705 OFFCURVE",
"134 656 CURVE SMOOTH",
"110 621 OFFCURVE",
"94 563 OFFCURVE",
"94 483 CURVE SMOOTH",
"94 0 LINE",
"166 0 LINE",
"166 512 LINE SMOOTH",
"166 651 OFFCURVE",
"208 694 OFFCURVE",
"269 694 CURVE SMOOTH",
"334 694 OFFCURVE",
"366 633 OFFCURVE",
"366 573 CURVE SMOOTH",
"366 535 OFFCURVE",
"359 516 OFFCURVE",
"343 509 CURVE SMOOTH",
"282 482 OFFCURVE",
"256 450 OFFCURVE",
"256 396 CURVE SMOOTH",
"256 340 OFFCURVE",
"294 291 OFFCURVE",
"353 245 CURVE SMOOTH",
"441 176 OFFCURVE",
"463 143 OFFCURVE",
"463 98 CURVE SMOOTH",
"463 53 OFFCURVE",
"439 22 OFFCURVE",
"381 22 CURVE SMOOTH",
"341 22 OFFCURVE",
"303 38 OFFCURVE",
"275 101 CURVE",
"255 96 LINE",
"256 14 OFFCURVE",
"270 -14 OFFCURVE",
"342 -14 CURVE SMOOTH",
"451 -14 OFFCURVE",
"533 53 OFFCURVE",
"533 134 CURVE SMOOTH",
"533 194 OFFCURVE",
"500 240 OFFCURVE",
"407 310 CURVE SMOOTH"
);
}
);
width = 570;
}
);
unicode = 00DF;
},
{
glyphname = t;
lastChange = "2017-05-28 04:12:18 +0000";
layers = (
{
anchors = (
{
name = bottom;
position = "{175, 0}";
},
{
name = center;
position = "{130, 265}";
},
{
name = top;
position = "{175, 430}";
},
{
name = topright;
position = "{198, 483}";
}
);
layerId = "4A3087DE-C6CF-4F86-8B90-A264D0797279";
paths = (
{
closed = 1;
nodes = (
"295 410 LINE SMOOTH",
"299 410 OFFCURVE",
"300 412 OFFCURVE",
"300 441 CURVE",
"259 440 OFFCURVE",
"204 440 OFFCURVE",
"160 440 CURVE",
"160 462 OFFCURVE",
"161 481 OFFCURVE",
"166 557 CURVE",
"163 560 LINE",
"119 554 LINE SMOOTH",
"95 551 OFFCURVE",
"85 540 OFFCURVE",
"85 524 CURVE SMOOTH",
"83 441 LINE",
"31 434 LINE SMOOTH",
"27 433 OFFCURVE",
"27 430 OFFCURVE",
"27 410 CURVE",
"83 410 LINE",
"83 216 LINE SMOOTH",
"83 64 OFFCURVE",
"98 -14 OFFCURVE",
"183 -14 CURVE SMOOTH",
"227 -14 OFFCURVE",
"267 -5 OFFCURVE",
"300 10 CURVE",
"304 12 OFFCURVE",
"304 18 OFFCURVE",
"301 38 CURVE",
"282 29 OFFCURVE",
"257 23 OFFCURVE",
"232 23 CURVE SMOOTH",
"181 23 OFFCURVE",
"155 79 OFFCURVE",
"155 249 CURVE SMOOTH",
"155 301 OFFCURVE",
"156 358 OFFCURVE",
"158 410 CURVE"
);
}
);
width = 332;
}
);
leftKerningGroup = t;
rightKerningGroup = t;
unicode = 0074;
},
{
glyphname = u;
lastChange = "2017-05-28 02:21:52 +0000";
layers = (
{
anchors = (
{
name = bottom;
position = "{272, 0}";
},
{
name = ogonek;
position = "{494, 0}";
},
{
name = top;
position = "{252, 440}";
},
{
name = topright;
position = "{511, 430}";
}
);
hints = (
{
origin = "{0, 2}";
target = "{0, 3}";
type = Cap;
name = _cap.stm.mid.2;
},
{
origin = "{0, 0}";
target = "{0, 1}";
type = Cap;
name = _cap.stm.btm.4;
},
{
origin = "{1, 13}";
target = "{1, 14}";
type = Cap;
name = _cap.stm.mid.2;
}
);
layerId = "4A3087DE-C6CF-4F86-8B90-A264D0797279";
paths = (
{
closed = 1;
nodes = (
"366 0 LINE",
"438 0 LINE",
"438 440 LINE",
"366 440 LINE"
);
},
{
closed = 1;
nodes = (
"282 -14 OFFCURVE",
"342 8 OFFCURVE",
"394 53 CURVE",
"366 118 LINE",
"366 63 OFFCURVE",
"311 25 OFFCURVE",
"250 25 CURVE SMOOTH",
"210 25 OFFCURVE",
"182 39 OFFCURVE",
"162 72 CURVE SMOOTH",
"143 103 OFFCURVE",
"138 140 OFFCURVE",
"138 211 CURVE SMOOTH",
"138 440 LINE",
"66 440 LINE",
"66 189 LINE SMOOTH",
"66 144 OFFCURVE",
"70 103 OFFCURVE",
"81 73 CURVE SMOOTH",
"104 11 OFFCURVE",
"161 -14 OFFCURVE",
"230 -14 CURVE SMOOTH"
);
}
);
width = 520;
}
);
leftKerningGroup = u;
leftMetricsKey = "=|n-10";
rightKerningGroup = u;
rightMetricsKey = "=|n-6";
unicode = 0075;
},
{
glyphname = uogonek;
lastChange = "2017-05-28 04:33:50 +0000";
layers = (
{
anchors = (
{
name = _ogonek;
position = "{498, 0}";
}
);
components = (
{
name = u;
}
);
layerId = "4A3087DE-C6CF-4F86-8B90-A264D0797279";
paths = (
{
closed = 1;
nodes = (
"401 -202 OFFCURVE",
"376 -181 OFFCURVE",
"376 -126 CURVE SMOOTH",
"376 -62 OFFCURVE",
"424 -10 OFFCURVE",
"492 9 CURVE",
"465 14 LINE",
"387 -4 OFFCURVE",
"320 -70 OFFCURVE",
"320 -137 CURVE SMOOTH",
"320 -198 OFFCURVE",
"361 -228 OFFCURVE",
"403 -228 CURVE SMOOTH",
"441 -228 OFFCURVE",
"464 -217 OFFCURVE",
"487 -198 CURVE",
"480 -187 LINE",
"461 -198 OFFCURVE",
"446 -202 OFFCURVE",
"429 -202 CURVE SMOOTH"
);
}
);
width = 520;
}
);
leftKerningGroup = u;
leftMetricsKey = u;
rightKerningGroup = u;
rightMetricsKey = u;
unicode = 0173;
},
{
glyphname = v;
lastChange = "2017-05-28 02:36:18 +0000";
layers = (
{
anchors = (
{
name = bottom;
position = "{236, 0}";
},
{
name = top;
position = "{236, 440}";
}
);
hints = (
{
origin = "{0, 1}";
type = Corner;
name = _corner.stm.out.1;
},
{
origin = "{0, 10}";
scale = "{-1, 1}";
type = Corner;
name = _corner.stm.out.1;
options = 1;
}
);
layerId = "4A3087DE-C6CF-4F86-8B90-A264D0797279";
paths = (
{
closed = 1;
nodes = (
"242 -6 LINE",
"429 440 LINE",
"379 440 LINE",
"332 310 OFFCURVE",
"277 170 OFFCURVE",
"218 30 CURVE",
"267 76 LINE",
"217 185 OFFCURVE",
"166 320 OFFCURVE",
"126 440 CURVE",
"35 440 LINE",
"214 -6 LINE"
);
}
);
width = 455;
}
);
leftKerningGroup = v;
rightKerningGroup = v;
unicode = 0076;
},
{
glyphname = w;
lastChange = "2017-05-28 04:36:19 +0000";
layers = (
{
anchors = (
{
name = bottom;
position = "{362, 0}";
},
{
name = top;
position = "{374, 440}";
}
);
hints = (
{
origin = "{0, 16}";
scale = "{-1, 1}";
type = Corner;
name = _corner.stm.out.1;
options = 1;
},
{
origin = "{0, 27}";
type = Corner;
name = _corner.stm.out.1;
}
);
layerId = "4A3087DE-C6CF-4F86-8B90-A264D0797279";
leftMetricsKey = "=v";
paths = (
{
closed = 1;
nodes = (
"626 440 LINE",
"592 313 OFFCURVE",
"551 187 OFFCURVE",
"506 70 CURVE",
"543 77 LINE",
"500 164 OFFCURVE",
"444 289 OFFCURVE",
"386 430 CURVE",
"356 430 LINE",
"301 282 OFFCURVE",
"254 171 OFFCURVE",
"204 63 CURVE",
"243 93 LINE",
"203 198 OFFCURVE",
"164 319 OFFCURVE",
"130 440 CURVE",
"37 440 LINE",
"193 -6 LINE",
"217 -6 LINE",
"252 87 OFFCURVE",
"308 214 OFFCURVE",
"366 340 CURVE",
"340 334 LINE",
"392 230 OFFCURVE",
"442 119 OFFCURVE",
"491 -6 CURVE",
"515 -6 LINE",
"683 440 LINE"
);
}
);
width = 710;
}
);
leftKerningGroup = w;
leftMetricsKey = v;
rightKerningGroup = w;
rightMetricsKey = v;
unicode = 0077;
},
{
glyphname = x;
lastChange = "2017-05-28 04:16:52 +0000";
layers = (
{
anchors = (
{
name = bottom;
position = "{242, 0}";
},
{
name = top;
position = "{234, 430}";
}
);
hints = (
{
origin = "{2, 4}";
scale = "{-1, 1}";
type = Corner;
name = _corner.stm.out.1;
options = 1;
},
{
origin = "{1, 1}";
type = Corner;
name = _corner.stm.out.1;
}
);
layerId = "4A3087DE-C6CF-4F86-8B90-A264D0797279";
paths = (
{
closed = 1;
nodes = (
"196 241 LINE",
"139 163 LINE SMOOTH",
"44 34 OFFCURVE",
"35 24 OFFCURVE",
"8 24 CURVE",
"6 24 OFFCURVE",
"6 19 OFFCURVE",
"6 -1 CURVE",
"19 0 OFFCURVE",
"54 0 OFFCURVE",
"79 0 CURVE",
"118 69 OFFCURVE",
"160 136 OFFCURVE",
"210 207 CURVE"
);
},
{
closed = 1;
nodes = (
"224 221 LINE",
"383 440 LINE",
"329 440 LINE",
"286 364 OFFCURVE",
"251 311 OFFCURVE",
"210 251 CURVE"
);
},
{
closed = 1;
nodes = (
"246 258 LINE",
"201 322 OFFCURVE",
"165 376 OFFCURVE",
"128 440 CURVE",
"30 440 LINE",
"191 214 LINE",
"241 140 OFFCURVE",
"285 71 OFFCURVE",
"325 0 CURVE",
"375 0 LINE",
"395 0 OFFCURVE",
"419 0 OFFCURVE",
"437 -1 CURVE",
"437 19 OFFCURVE",
"437 24 OFFCURVE",
"434 24 CURVE",
"406 26 OFFCURVE",
"401 34 OFFCURVE",
"310 165 CURVE"
);
}
);
width = 448;
}
);
leftKerningGroup = x;
rightKerningGroup = x;
unicode = 0078;
},
{
glyphname = y;
lastChange = "2017-05-27 13:26:32 +0000";
layers = (
{
anchors = (
{
name = bottom;
position = "{212, 0}";
},
{
name = top;
position = "{240, 440}";
}
);
hints = (
{
origin = "{0, 7}";
scale = "{-1, 1}";
type = Corner;
name = _corner.stm.out.1;
options = 1;
},
{
origin = "{0, 20}";
type = Corner;
name = _corner.stm.out.1;
}
);
layerId = "4A3087DE-C6CF-4F86-8B90-A264D0797279";
rightMetricsKey = "=v";
paths = (
{
closed = 1;
nodes = (
"324 299 OFFCURVE",
"277 178 OFFCURVE",
"226 54 CURVE",
"260 80 LINE",
"211 185 OFFCURVE",
"165 307 OFFCURVE",
"119 440 CURVE",
"30 440 LINE",
"209 -3 LINE",
"220 50 LINE",
"163 -91 OFFCURVE",
"90 -139 OFFCURVE",
"5 -143 CURVE",
"1 -147 LINE",
"24 -207 OFFCURVE",
"34 -213 OFFCURVE",
"52 -213 CURVE SMOOTH",
"110 -213 OFFCURVE",
"166 -169 OFFCURVE",
"235 -6 CURVE SMOOTH",
"424 440 LINE",
"375 440 LINE"
);
}
);
width = 449;
}
);
leftKerningGroup = y;
leftMetricsKey = "=v-10";
rightKerningGroup = y;
rightMetricsKey = v;
unicode = 0079;
},
{
glyphname = z;
lastChange = "2017-05-27 13:27:42 +0000";
layers = (
{
anchors = (
{
name = bottom;
position = "{220, 0}";
},
{
name = top;
position = "{221, 440}";
}
);
layerId = "4A3087DE-C6CF-4F86-8B90-A264D0797279";
paths = (
{
closed = 1;
nodes = (
"261 410 OFFCURVE",
"207 410 OFFCURVE",
"182 410 CURVE SMOOTH",
"128 410 OFFCURVE",
"100 407 OFFCURVE",
"86 390 CURVE SMOOTH",
"66 365 LINE",
"65 363 OFFCURVE",
"60 362 OFFCURVE",
"36 370 CURVE",
"44 393 LINE SMOOTH",
"60 438 OFFCURVE",
"74 440 OFFCURVE",
"103 440 CURVE SMOOTH",
"144 440 LINE SMOOTH",
"241 440 OFFCURVE",
"299 440 OFFCURVE",
"356 442 CURVE",
"358 437 LINE",
"280 311 OFFCURVE",
"194 155 OFFCURVE",
"124 18 CURVE",
"118 30 LINE",
"157 28 OFFCURVE",
"203 28 OFFCURVE",
"235 28 CURVE SMOOTH",
"316 28 OFFCURVE",
"346 35 OFFCURVE",
"373 69 CURVE SMOOTH",
"381 79 LINE",
"383 81 OFFCURVE",
"389 82 OFFCURVE",
"408 75 CURVE",
"397 40 LINE SMOOTH",
"386 3 OFFCURVE",
"375 0 OFFCURVE",
"353 0 CURVE SMOOTH",
"141 0 OFFCURVE",
"83 0 OFFCURVE",
"23 -2 CURVE",
"22 2 LINE",
"102 133 OFFCURVE",
"199 308 OFFCURVE",
"258 425 CURVE",
"286 408 LINE"
);
}
);
width = 423;
}
);
leftKerningGroup = z;
rightKerningGroup = z;
unicode = 007A;
},
{
export = 0;
glyphname = t.forliga.1;
lastChange = "2017-05-28 03:18:44 +0000";
layers = (
{
layerId = "4A3087DE-C6CF-4F86-8B90-A264D0797279";
paths = (
{
closed = 1;
nodes = (
"257 410 LINE SMOOTH",
"261 410 OFFCURVE",
"262 412 OFFCURVE",
"262 441 CURVE",
"221 440 OFFCURVE",
"166 440 OFFCURVE",
"122 440 CURVE",
"45 441 LINE",
"-7 434 LINE SMOOTH",
"-11 433 OFFCURVE",
"-11 430 OFFCURVE",
"-11 410 CURVE",
"45 410 LINE",
"45 216 LINE SMOOTH",
"45 64 OFFCURVE",
"60 -14 OFFCURVE",
"145 -14 CURVE SMOOTH",
"189 -14 OFFCURVE",
"229 -5 OFFCURVE",
"262 10 CURVE",
"266 12 OFFCURVE",
"266 18 OFFCURVE",
"263 38 CURVE",
"244 29 OFFCURVE",
"219 23 OFFCURVE",
"194 23 CURVE SMOOTH",
"143 23 OFFCURVE",
"117 79 OFFCURVE",
"117 249 CURVE SMOOTH",
"117 301 OFFCURVE",
"118 358 OFFCURVE",
"120 410 CURVE"
);
}
);
width = 254;
}
);
},
{
glyphname = T_h;
lastChange = "2017-05-28 04:11:47 +0000";
layers = (
{
anchors = (
{
name = bottom;
position = "{801, 0}";
},
{
name = center;
position = "{659, 570}";
},
{
name = "center#2";
position = "{274, 325}";
},
{
name = exit;
position = "{690, 0}";
},
{
name = top;
position = "{659, 727}";
}
);
components = (
{
name = _shoulder.1;
transform = "{1, 0, 0, 1, 459, 0}";
}
);
hints = (
{
origin = "{0, 26}";
target = "{0, 0}";
type = Cap;
name = _cap.stm.btm.3;
},
{
origin = "{1, 8}";
type = Corner;
name = _corner.STM.btm.1;
},
{
origin = "{1, 9}";
scale = "{-1, 1}";
type = Corner;
name = _corner.STM.btm.1;
}
);
layerId = "4A3087DE-C6CF-4F86-8B90-A264D0797279";
paths = (
{
closed = 1;
nodes = (
"614 0 LINE",
"614 482 LINE SMOOTH",
"614 560 OFFCURVE",
"615 642 OFFCURVE",
"620 727 CURVE",
"616 730 LINE",
"574 724 LINE SMOOTH",
"539 719 OFFCURVE",
"535 706 OFFCURVE",
"534 635 CURVE",
"577 653 LINE",
"536 651 OFFCURVE",
"499 650 OFFCURVE",
"443 650 CURVE SMOOTH",
"252 650 LINE",
"291 616 LINE",
"352 616 LINE SMOOTH",
"414 616 OFFCURVE",
"442 616 OFFCURVE",
"506 615 CURVE SMOOTH",
"530 614 OFFCURVE",
"536 607 OFFCURVE",
"538 588 CURVE SMOOTH",
"541 556 OFFCURVE",
"542 493 OFFCURVE",
"542 405 CURVE SMOOTH",
"542 0 LINE"
);
},
{
closed = 1;
nodes = (
"312 452 LINE SMOOTH",
"312 520 OFFCURVE",
"313 573 OFFCURVE",
"316 635 CURVE",
"232 635 LINE",
"235 573 OFFCURVE",
"236 520 OFFCURVE",
"236 452 CURVE SMOOTH",
"236 0 LINE",
"312 0 LINE"
);
},
{
closed = 1;
nodes = (
"274 650 LINE",
"153 650 LINE SMOOTH",
"97 650 OFFCURVE",
"61 650 OFFCURVE",
"50 651 CURVE SMOOTH",
"24 653 OFFCURVE",
"20 649 OFFCURVE",
"19 644 CURVE SMOOTH",
"6 549 LINE",
"26 545 OFFCURVE",
"28 545 OFFCURVE",
"29 547 CURVE",
"34 557 LINE SMOOTH",
"59 608 OFFCURVE",
"74 616 OFFCURVE",
"174 616 CURVE SMOOTH",
"274 616 LINE"
);
}
);
width = 978;
}
);
leftKerningGroup = T;
leftMetricsKey = T;
rightKerningGroup = _stem.4;
rightMetricsKey = h;
},
{
glyphname = c_t;
lastChange = "2017-05-28 03:20:59 +0000";
layers = (
{
components = (
{
name = c;
},
{
name = t.forliga.1;
transform = "{1, 0, 0, 1, 477, 0}";
}
);
layerId = "4A3087DE-C6CF-4F86-8B90-A264D0797279";
paths = (
{
closed = 1;
nodes = (
"394 302 LINE",
"402 379 OFFCURVE",
"378 421 OFFCURVE",
"378 496 CURVE SMOOTH",
"378 566 OFFCURVE",
"411 591 OFFCURVE",
"456 591 CURVE SMOOTH",
"505 591 OFFCURVE",
"523 550 OFFCURVE",
"523 483 CURVE SMOOTH",
"523 441 LINE",
"598 440 LINE",
"598 479 LINE SMOOTH",
"598 507 OFFCURVE",
"596 533 OFFCURVE",
"592 546 CURVE SMOOTH",
"578 592 OFFCURVE",
"544 624 OFFCURVE",
"473 624 CURVE SMOOTH",
"414 624 OFFCURVE",
"337 594 OFFCURVE",
"337 493 CURVE SMOOTH",
"337 455 OFFCURVE",
"350 400 OFFCURVE",
"357 367 CURVE"
);
}
);
width = 771;
}
);
leftKerningGroup = o;
leftMetricsKey = c;
rightKerningGroup = t;
rightMetricsKey = t;
},
{
glyphname = f_f;
lastChange = "2017-05-28 04:20:02 +0000";
layers = (
{
anchors = (
{
name = bottom;
position = "{159, 0}";
},
{
name = top;
position = "{159, 430}";
}
);
components = (
{
name = f;
transform = "{1, 0, 0, 1, 271, 0}";
}
);
hints = (
{
origin = "{0, 10}";
target = "{0, 11}";
type = Cap;
name = _cap.stm.btm.3;
}
);
layerId = "4A3087DE-C6CF-4F86-8B90-A264D0797279";
paths = (
{
closed = 1;
nodes = (
"407 624 LINE",
"397 690 OFFCURVE",
"366 734 OFFCURVE",
"300 734 CURVE SMOOTH",
"226 734 OFFCURVE",
"158 695 OFFCURVE",
"117 606 CURVE SMOOTH",
"100 569 OFFCURVE",
"91 520 OFFCURVE",
"91 440 CURVE SMOOTH",
"91 0 LINE",
"163 0 LINE",
"163 530 LINE SMOOTH",
"163 650 OFFCURVE",
"204 683 OFFCURVE",
"251 683 CURVE SMOOTH",
"300 683 OFFCURVE",
"342 659 OFFCURVE",
"378 572 CURVE"
);
},
{
closed = 1;
nodes = (
"33 410 LINE",
"318 410 LINE",
"322 440 LINE",
"35 440 LINE"
);
}
);
width = 554;
}
);
leftMetricsKey = f;
rightMetricsKey = f;
},
{
glyphname = f_f_i;
lastChange = "2017-05-28 04:04:12 +0000";
layers = (
{
anchors = (
{
name = bottom;
position = "{176, 0}";
},
{
name = top;
position = "{176, 430}";
}
);
components = (
{
alignment = -1;
name = f_i;
transform = "{1, 0, 0, 1, 271, 0}";
}
);
hints = (
{
origin = "{1, 10}";
target = "{1, 11}";
type = Cap;
name = _cap.stm.btm.3;
}
);
layerId = "4A3087DE-C6CF-4F86-8B90-A264D0797279";
paths = (
{
closed = 1;
nodes = (
"33 410 LINE",
"318 410 LINE",
"318 440 LINE",
"35 440 LINE"
);
},
{
closed = 1;
nodes = (
"407 624 LINE",
"397 690 OFFCURVE",
"366 734 OFFCURVE",
"300 734 CURVE SMOOTH",
"226 734 OFFCURVE",
"158 695 OFFCURVE",
"117 606 CURVE SMOOTH",
"100 569 OFFCURVE",
"91 520 OFFCURVE",
"91 440 CURVE SMOOTH",
"91 0 LINE",
"163 0 LINE",
"163 530 LINE SMOOTH",
"163 650 OFFCURVE",
"204 683 OFFCURVE",
"251 683 CURVE SMOOTH",
"300 683 OFFCURVE",
"342 659 OFFCURVE",
"378 572 CURVE"
);
}
);
width = 789;
}
);
leftKerningGroup = f;
leftMetricsKey = f;
rightKerningGroup = idotless;
rightMetricsKey = i;
},
{
glyphname = f_f_l;
lastChange = "2017-05-28 04:08:41 +0000";
layers = (
{
components = (
{
name = f_l;
transform = "{1, 0, 0, 1, 271, 0}";
}
);
hints = (
{
origin = "{1, 10}";
target = "{1, 11}";
type = Cap;
name = _cap.stm.btm.3;
}
);
layerId = "4A3087DE-C6CF-4F86-8B90-A264D0797279";
paths = (
{
closed = 1;
nodes = (
"33 410 LINE",
"318 410 LINE",
"318 440 LINE",
"35 440 LINE"
);
},
{
closed = 1;
nodes = (
"407 624 LINE",
"397 690 OFFCURVE",
"366 734 OFFCURVE",
"300 734 CURVE SMOOTH",
"226 734 OFFCURVE",
"158 695 OFFCURVE",
"117 606 CURVE SMOOTH",
"100 569 OFFCURVE",
"91 520 OFFCURVE",
"91 440 CURVE SMOOTH",
"91 0 LINE",
"163 0 LINE",
"163 530 LINE SMOOTH",
"163 650 OFFCURVE",
"204 683 OFFCURVE",
"251 683 CURVE SMOOTH",
"300 683 OFFCURVE",
"342 659 OFFCURVE",
"378 572 CURVE"
);
}
);
width = 815;
}
);
leftKerningGroup = f;
leftMetricsKey = f;
rightKerningGroup = l;
rightMetricsKey = l;
},
{
glyphname = f_i;
lastChange = "2017-05-28 04:02:53 +0000";
layers = (
{
anchors = (
{
name = bottom;
position = "{153, 0}";
},
{
name = ogonek;
position = "{474, 10}";
},
{
name = top;
position = "{153, 430}";
}
);
hints = (
{
origin = "{2, 2}";
target = "{2, 3}";
type = Cap;
name = _cap.stm.btm.2;
},
{
origin = "{3, 7}";
target = "{3, 8}";
type = Cap;
name = _cap.stm.btm.3;
}
);
layerId = "4A3087DE-C6CF-4F86-8B90-A264D0797279";
paths = (
{
closed = 1;
nodes = (
"422 588 LINE",
"425 628 OFFCURVE",
"425 648 OFFCURVE",
"425 655 CURVE SMOOTH",
"425 696 OFFCURVE",
"375 734 OFFCURVE",
"292 734 CURVE",
"260 687 LINE",
"310 687 OFFCURVE",
"353 672 OFFCURVE",
"406 584 CURVE"
);
},
{
closed = 1;
nodes = (
"33 410 LINE",
"244 410 LINE SMOOTH",
"344 410 OFFCURVE",
"357 407 OFFCURVE",
"359 390 CURVE SMOOTH",
"361 372 OFFCURVE",
"362 351 OFFCURVE",
"362 325 CURVE SMOOTH",
"362 197 LINE",
"434 203 LINE",
"434 287 OFFCURVE",
"435 370 OFFCURVE",
"439 440 CURVE",
"434 443 LINE",
"366 440 OFFCURVE",
"110 440 OFFCURVE",
"35 440 CURVE"
);
},
{
closed = 1;
nodes = (
"434 204 LINE",
"362 204 LINE",
"362 0 LINE",
"434 0 LINE"
);
},
{
closed = 1;
nodes = (
"292 734 LINE",
"228 734 OFFCURVE",
"159 695 OFFCURVE",
"117 606 CURVE SMOOTH",
"100 569 OFFCURVE",
"91 520 OFFCURVE",
"91 440 CURVE SMOOTH",
"91 0 LINE",
"163 0 LINE",
"163 530 LINE SMOOTH",
"163 640 OFFCURVE",
"204 687 OFFCURVE",
"260 687 CURVE"
);
}
);
width = 518;
}
);
leftKerningGroup = f;
leftMetricsKey = f;
rightKerningGroup = idotless;
rightMetricsKey = i;
},
{
glyphname = f_l;
lastChange = "2017-05-28 04:04:45 +0000";
layers = (
{
hints = (
{
origin = "{0, 3}";
target = "{0, 0}";
type = Cap;
name = _cap.stm.btm.2;
},
{
origin = "{3, 7}";
target = "{3, 8}";
type = Cap;
name = _cap.stm.btm.3;
}
);
layerId = "4A3087DE-C6CF-4F86-8B90-A264D0797279";
paths = (
{
closed = 1;
nodes = (
"454 0 LINE",
"454 494 LINE",
"382 502 LINE",
"382 0 LINE"
);
},
{
closed = 1;
nodes = (
"454 494 LINE",
"454 558 OFFCURVE",
"450 602 OFFCURVE",
"439 636 CURVE SMOOTH",
"418 700 OFFCURVE",
"365 734 OFFCURVE",
"302 734 CURVE",
"268 687 LINE",
"345 687 OFFCURVE",
"382 629 OFFCURVE",
"382 502 CURVE"
);
},
{
closed = 1;
nodes = (
"33 410 LINE",
"268 410 LINE SMOOTH",
"271 410 OFFCURVE",
"272 412 OFFCURVE",
"272 442 CURVE",
"211 440 OFFCURVE",
"112 440 OFFCURVE",
"35 440 CURVE"
);
},
{
closed = 1;
nodes = (
"302 734 LINE",
"228 734 OFFCURVE",
"159 695 OFFCURVE",
"117 606 CURVE SMOOTH",
"100 569 OFFCURVE",
"91 520 OFFCURVE",
"91 440 CURVE SMOOTH",
"91 0 LINE",
"163 0 LINE",
"163 530 LINE SMOOTH",
"163 640 OFFCURVE",
"204 687 OFFCURVE",
"268 687 CURVE"
);
}
);
width = 544;
}
);
leftKerningGroup = f;
leftMetricsKey = f;
rightKerningGroup = l;
rightMetricsKey = l;
},
{
glyphname = s_t;
lastChange = "2017-05-28 03:18:02 +0000";
layers = (
{
components = (
{
name = s;
},
{
name = t.forliga.1;
transform = "{1, 0, 0, 1, 383, 0}";
}
);
layerId = "4A3087DE-C6CF-4F86-8B90-A264D0797279";
paths = (
{
closed = 1;
nodes = (
"291 370 LINE",
"291 416 OFFCURVE",
"264 450 OFFCURVE",
"264 496 CURVE SMOOTH",
"264 566 OFFCURVE",
"304 591 OFFCURVE",
"349 591 CURVE SMOOTH",
"411 591 OFFCURVE",
"432 545 OFFCURVE",
"429 441 CURVE",
"504 440 LINE",
"515 589 OFFCURVE",
"449 624 OFFCURVE",
"365 624 CURVE SMOOTH",
"305 624 OFFCURVE",
"223 594 OFFCURVE",
"223 493 CURVE SMOOTH",
"223 468 OFFCURVE",
"228 439 OFFCURVE",
"239 406 CURVE"
);
}
);
width = 677;
}
);
leftKerningGroup = s;
leftMetricsKey = s;
rightKerningGroup = t;
rightMetricsKey = t;
},
{
glyphname = zero;
lastChange = "2017-05-27 13:14:58 +0000";
layers = (
{
layerId = "4A3087DE-C6CF-4F86-8B90-A264D0797279";
paths = (
{
closed = 1;
nodes = (
"161 524 OFFCURVE",
"54 401 OFFCURVE",
"54 250 CURVE SMOOTH",
"54 99 OFFCURVE",
"166 -14 OFFCURVE",
"312 -14 CURVE SMOOTH",
"454 -14 OFFCURVE",
"563 109 OFFCURVE",
"563 260 CURVE SMOOTH",
"563 411 OFFCURVE",
"449 524 OFFCURVE",
"308 524 CURVE SMOOTH"
);
},
{
closed = 1;
nodes = (
"186 59 OFFCURVE",
"93 120 OFFCURVE",
"93 249 CURVE SMOOTH",
"93 383 OFFCURVE",
"206 449 OFFCURVE",
"318 449 CURVE SMOOTH",
"427 449 OFFCURVE",
"526 389 OFFCURVE",
"526 262 CURVE SMOOTH",
"526 132 OFFCURVE",
"403 59 OFFCURVE",
"302 59 CURVE SMOOTH"
);
}
);
width = 617;
}
);
leftKerningGroup = zero;
rightKerningGroup = zero;
unicode = 0030;
},
{
glyphname = one;
lastChange = "2017-05-27 12:50:02 +0000";
layers = (
{
hints = (
{
origin = "{0, 5}";
target = "{0, 6}";
type = Cap;
name = _cap.stm.btm.3;
}
);
layerId = "4A3087DE-C6CF-4F86-8B90-A264D0797279";
paths = (
{
closed = 1;
nodes = (
"64 408 OFFCURVE",
"62 401 OFFCURVE",
"62 374 CURVE",
"266 450 LINE",
"250 462 LINE",
"250 0 LINE",
"322 0 LINE",
"322 271 LINE SMOOTH",
"322 367 OFFCURVE",
"325 441 OFFCURVE",
"331 510 CURVE",
"273 508 LINE",
"201 472 OFFCURVE",
"148 445 OFFCURVE",
"67 409 CURVE SMOOTH"
);
}
);
width = 427;
}
);
leftKerningGroup = one;
rightKerningGroup = one;
unicode = 0031;
},
{
glyphname = two;
lastChange = "2017-05-27 23:05:31 +0000";
layers = (
{
layerId = "4A3087DE-C6CF-4F86-8B90-A264D0797279";
paths = (
{
closed = 1;
nodes = (
"133 65 LINE",
"134 42 LINE",
"247 172 LINE SMOOTH",
"338 277 OFFCURVE",
"376 338 OFFCURVE",
"376 399 CURVE SMOOTH",
"376 475 OFFCURVE",
"314 524 OFFCURVE",
"226 524 CURVE SMOOTH",
"149 524 OFFCURVE",
"85 478 OFFCURVE",
"85 418 CURVE SMOOTH",
"85 403 OFFCURVE",
"91 390 OFFCURVE",
"106 364 CURVE",
"128 364 LINE",
"132 443 OFFCURVE",
"155 492 OFFCURVE",
"209 492 CURVE SMOOTH",
"261 492 OFFCURVE",
"297 444 OFFCURVE",
"297 376 CURVE SMOOTH",
"297 320 OFFCURVE",
"282 263 OFFCURVE",
"217 189 CURVE SMOOTH",
"140 101 OFFCURVE",
"104 69 OFFCURVE",
"48 30 CURVE",
"41 0 LINE",
"282 0 LINE SMOOTH",
"325 0 OFFCURVE",
"367 0 OFFCURVE",
"410 -2 CURVE SMOOTH",
"428 -3 OFFCURVE",
"436 -1 OFFCURVE",
"440 7 CURVE SMOOTH",
"458 43 OFFCURVE",
"473 79 OFFCURVE",
"487 115 CURVE",
"468 125 OFFCURVE",
"463 126 OFFCURVE",
"460 123 CURVE",
"448 107 LINE SMOOTH",
"424 76 OFFCURVE",
"391 65 OFFCURVE",
"333 65 CURVE SMOOTH"
);
}
);
width = 505;
}
);
leftKerningGroup = two;
rightKerningGroup = two;
unicode = 0032;
},
{
glyphname = three;
lastChange = "2017-05-27 23:05:33 +0000";
layers = (
{
layerId = "4A3087DE-C6CF-4F86-8B90-A264D0797279";
paths = (
{
closed = 1;
nodes = (
"73 405 OFFCURVE",
"80 384 OFFCURVE",
"92 352 CURVE",
"113 352 LINE",
"118 457 OFFCURVE",
"156 492 OFFCURVE",
"208 492 CURVE SMOOTH",
"262 492 OFFCURVE",
"313 454 OFFCURVE",
"313 373 CURVE SMOOTH",
"313 308 OFFCURVE",
"273 266 OFFCURVE",
"210 247 CURVE SMOOTH",
"155 230 LINE",
"164 203 OFFCURVE",
"168 200 OFFCURVE",
"175 202 CURVE SMOOTH",
"207 209 LINE SMOOTH",
"279 225 OFFCURVE",
"325 182 OFFCURVE",
"325 91 CURVE SMOOTH",
"325 -43 OFFCURVE",
"172 -139 OFFCURVE",
"-20 -139 CURVE",
"-14 -183 OFFCURVE",
"-10 -191 OFFCURVE",
"5 -191 CURVE SMOOTH",
"176 -191 OFFCURVE",
"408 -35 OFFCURVE",
"408 107 CURVE SMOOTH",
"408 194 OFFCURVE",
"335 244 OFFCURVE",
"242 244 CURVE",
"212 222 LINE",
"314 246 OFFCURVE",
"389 303 OFFCURVE",
"389 387 CURVE SMOOTH",
"389 465 OFFCURVE",
"323 524 OFFCURVE",
"222 524 CURVE SMOOTH",
"161 524 OFFCURVE",
"73 489 OFFCURVE",
"73 425 CURVE SMOOTH"
);
}
);
width = 479;
}
);
leftKerningGroup = three;
rightKerningGroup = three;
unicode = 0033;
},
{
glyphname = four;
lastChange = "2017-05-27 12:50:48 +0000";
layers = (
{
layerId = "4A3087DE-C6CF-4F86-8B90-A264D0797279";
paths = (
{
closed = 1;
nodes = (
"329 507 OFFCURVE",
"322 505 OFFCURVE",
"310 488 CURVE SMOOTH",
"211 348 OFFCURVE",
"124 231 OFFCURVE",
"25 104 CURVE",
"29 97 LINE",
"103 97 OFFCURVE",
"176 98 OFFCURVE",
"361 98 CURVE",
"500 98 LINE SMOOTH",
"507 98 OFFCURVE",
"507 101 OFFCURVE",
"507 134 CURVE",
"477 130 OFFCURVE",
"443 128 OFFCURVE",
"394 128 CURVE SMOOTH",
"61 128 LINE",
"88 108 LINE",
"145 206 OFFCURVE",
"201 288 OFFCURVE",
"339 462 CURVE",
"324 460 LINE",
"324 -14 LINE SMOOTH",
"324 -85 OFFCURVE",
"322 -135 OFFCURVE",
"318 -200 CURVE",
"390 -200 OFFCURVE",
"401 -196 OFFCURVE",
"401 -190 CURVE SMOOTH",
"401 -127 OFFCURVE",
"396 -69 OFFCURVE",
"396 -10 CURVE SMOOTH",
"396 214 LINE SMOOTH",
"396 303 OFFCURVE",
"397 383 OFFCURVE",
"405 512 CURVE",
"355 509 LINE SMOOTH"
);
}
);
width = 534;
}
);
leftKerningGroup = four;
rightKerningGroup = four;
unicode = 0034;
},
{
glyphname = five;
lastChange = "2017-05-28 04:33:15 +0000";
layers = (
{
layerId = "4A3087DE-C6CF-4F86-8B90-A264D0797279";
paths = (
{
closed = 1;
nodes = (
"383 449 OFFCURVE",
"387 454 OFFCURVE",
"400 517 CURVE",
"396 520 LINE",
"264 511 OFFCURVE",
"161 506 OFFCURVE",
"95 506 CURVE",
"79 375 OFFCURVE",
"75 338 OFFCURVE",
"75 315 CURVE SMOOTH",
"75 281 OFFCURVE",
"82 258 OFFCURVE",
"136 233 CURVE SMOOTH",
"254 178 OFFCURVE",
"294 130 OFFCURVE",
"294 61 CURVE SMOOTH",
"294 -65 OFFCURVE",
"133 -157 OFFCURVE",
"-25 -149 CURVE",
"-20 -187 OFFCURVE",
"-18 -197 OFFCURVE",
"-8 -197 CURVE SMOOTH",
"152 -197 OFFCURVE",
"374 -44 OFFCURVE",
"374 109 CURVE SMOOTH",
"374 189 OFFCURVE",
"298 247 OFFCURVE",
"192 296 CURVE SMOOTH",
"122 328 OFFCURVE",
"114 342 OFFCURVE",
"114 368 CURVE SMOOTH",
"114 387 OFFCURVE",
"119 422 OFFCURVE",
"126 474 CURVE",
"94 440 LINE",
"371 449 LINE SMOOTH"
);
}
);
width = 440;
}
);
leftKerningGroup = five;
rightKerningGroup = five;
unicode = 0035;
},
{
glyphname = six;
lastChange = "2017-05-27 12:52:13 +0000";
layers = (
{
layerId = "4A3087DE-C6CF-4F86-8B90-A264D0797279";
paths = (
{
closed = 1;
nodes = (
"63 55 OFFCURVE",
"172 -16 OFFCURVE",
"273 -16 CURVE SMOOTH",
"382 -16 OFFCURVE",
"501 72 OFFCURVE",
"501 203 CURVE SMOOTH",
"501 322 OFFCURVE",
"422 382 OFFCURVE",
"331 382 CURVE SMOOTH",
"285 382 OFFCURVE",
"237 371 OFFCURVE",
"195 341 CURVE SMOOTH",
"185 334 OFFCURVE",
"183 343 OFFCURVE",
"189 301 CURVE",
"217 321 OFFCURVE",
"256 338 OFFCURVE",
"288 338 CURVE SMOOTH",
"382 338 OFFCURVE",
"425 271 OFFCURVE",
"425 180 CURVE SMOOTH",
"425 82 OFFCURVE",
"368 25 OFFCURVE",
"295 25 CURVE SMOOTH",
"215 25 OFFCURVE",
"140 90 OFFCURVE",
"140 255 CURVE SMOOTH",
"140 497 OFFCURVE",
"341 674 OFFCURVE",
"535 674 CURVE",
"530 723 OFFCURVE",
"527 727 OFFCURVE",
"516 727 CURVE SMOOTH",
"326 727 OFFCURVE",
"63 469 OFFCURVE",
"63 240 CURVE SMOOTH"
);
}
);
width = 561;
}
);
leftKerningGroup = six;
rightKerningGroup = six;
unicode = 0036;
},
{
glyphname = seven;
lastChange = "2017-05-27 12:52:43 +0000";
layers = (
{
layerId = "4A3087DE-C6CF-4F86-8B90-A264D0797279";
paths = (
{
closed = 1;
nodes = (
"80 511 OFFCURVE",
"69 511 OFFCURVE",
"62 496 CURVE SMOOTH",
"48 467 OFFCURVE",
"37 439 OFFCURVE",
"28 410 CURVE",
"47 397 OFFCURVE",
"51 396 OFFCURVE",
"53 398 CURVE",
"57 406 LINE SMOOTH",
"74 440 OFFCURVE",
"91 445 OFFCURVE",
"235 445 CURVE SMOOTH",
"295 445 OFFCURVE",
"356 445 OFFCURVE",
"416 443 CURVE",
"395 458 LINE",
"216 101 LINE SMOOTH",
"138 -55 OFFCURVE",
"105 -130 OFFCURVE",
"78 -207 CURVE",
"151 -210 OFFCURVE",
"159 -208 OFFCURVE",
"162 -194 CURVE SMOOTH",
"183 -97 OFFCURVE",
"217 2 OFFCURVE",
"272 129 CURVE SMOOTH",
"333 270 OFFCURVE",
"391 381 OFFCURVE",
"467 505 CURVE",
"462 512 LINE",
"382 510 OFFCURVE",
"318 510 OFFCURVE",
"261 510 CURVE SMOOTH",
"212 510 OFFCURVE",
"162 511 OFFCURVE",
"107 511 CURVE SMOOTH"
);
}
);
width = 472;
}
);
leftKerningGroup = seven;
rightKerningGroup = seven;
unicode = 0037;
},
{
glyphname = eight;
lastChange = "2017-05-27 12:53:30 +0000";
layers = (
{
layerId = "4A3087DE-C6CF-4F86-8B90-A264D0797279";
paths = (
{
closed = 1;
nodes = (
"185 664 OFFCURVE",
"97 591 OFFCURVE",
"97 488 CURVE SMOOTH",
"97 402 OFFCURVE",
"183 338 OFFCURVE",
"235 318 CURVE",
"243 347 LINE",
"146 317 OFFCURVE",
"60 248 OFFCURVE",
"60 151 CURVE SMOOTH",
"60 34 OFFCURVE",
"160 -14 OFFCURVE",
"255 -14 CURVE SMOOTH",
"378 -14 OFFCURVE",
"481 58 OFFCURVE",
"481 167 CURVE SMOOTH",
"481 261 OFFCURVE",
"404 313 OFFCURVE",
"299 362 CURVE",
"279 337 LINE",
"360 346 OFFCURVE",
"456 426 OFFCURVE",
"456 517 CURVE SMOOTH",
"456 617 OFFCURVE",
"363 664 OFFCURVE",
"285 664 CURVE SMOOTH"
);
},
{
closed = 1;
nodes = (
"344 628 OFFCURVE",
"388 566 OFFCURVE",
"388 491 CURVE SMOOTH",
"388 424 OFFCURVE",
"336 378 OFFCURVE",
"266 357 CURVE",
"323 353 LINE",
"211 397 OFFCURVE",
"165 446 OFFCURVE",
"165 523 CURVE SMOOTH",
"165 582 OFFCURVE",
"202 628 OFFCURVE",
"260 628 CURVE SMOOTH"
);
},
{
closed = 1;
nodes = (
"327 285 OFFCURVE",
"405 234 OFFCURVE",
"405 143 CURVE SMOOTH",
"405 81 OFFCURVE",
"364 24 OFFCURVE",
"273 24 CURVE SMOOTH",
"189 24 OFFCURVE",
"128 86 OFFCURVE",
"128 177 CURVE SMOOTH",
"128 259 OFFCURVE",
"193 302 OFFCURVE",
"272 326 CURVE",
"227 318 LINE"
);
}
);
width = 541;
}
);
leftKerningGroup = eight;
rightKerningGroup = eight;
unicode = 0038;
},
{
glyphname = nine;
lastChange = "2017-05-27 12:53:39 +0000";
layers = (
{
layerId = "4A3087DE-C6CF-4F86-8B90-A264D0797279";
paths = (
{
closed = 1;
nodes = (
"494 443 OFFCURVE",
"388 524 OFFCURVE",
"277 524 CURVE SMOOTH",
"161 524 OFFCURVE",
"52 435 OFFCURVE",
"52 310 CURVE SMOOTH",
"52 191 OFFCURVE",
"134 136 OFFCURVE",
"233 136 CURVE SMOOTH",
"275 136 OFFCURVE",
"312 148 OFFCURVE",
"359 181 CURVE SMOOTH",
"369 188 OFFCURVE",
"369 199 OFFCURVE",
"361 219 CURVE",
"323 189 OFFCURVE",
"298 180 OFFCURVE",
"252 180 CURVE SMOOTH",
"175 180 OFFCURVE",
"129 235 OFFCURVE",
"129 330 CURVE SMOOTH",
"129 426 OFFCURVE",
"184 490 OFFCURVE",
"257 490 CURVE SMOOTH",
"347 490 OFFCURVE",
"417 408 OFFCURVE",
"417 253 CURVE SMOOTH",
"417 -13 OFFCURVE",
"251 -131 OFFCURVE",
"52 -133 CURVE",
"61 -181 OFFCURVE",
"66 -196 OFFCURVE",
"75 -196 CURVE SMOOTH",
"255 -196 OFFCURVE",
"494 19 OFFCURVE",
"494 268 CURVE SMOOTH"
);
}
);
width = 549;
}
);
leftKerningGroup = nine;
rightKerningGroup = nine;
unicode = 0039;
},
{
glyphname = zero.tf;
lastChange = "2017-05-27 12:55:15 +0000";
layers = (
{
layerId = "4A3087DE-C6CF-4F86-8B90-A264D0797279";
paths = (
{
closed = 1;
nodes = (
"137 664 OFFCURVE",
"54 555 OFFCURVE",
"54 310 CURVE SMOOTH",
"54 98 OFFCURVE",
"133 -14 OFFCURVE",
"252 -14 CURVE SMOOTH",
"380 -14 OFFCURVE",
"476 96 OFFCURVE",
"476 330 CURVE SMOOTH",
"476 496 OFFCURVE",
"413 664 OFFCURVE",
"269 664 CURVE SMOOTH"
);
},
{
closed = 1;
nodes = (
"357 628 OFFCURVE",
"387 476 OFFCURVE",
"387 303 CURVE SMOOTH",
"387 119 OFFCURVE",
"357 22 OFFCURVE",
"270 22 CURVE SMOOTH",
"190 22 OFFCURVE",
"142 107 OFFCURVE",
"142 335 CURVE SMOOTH",
"142 530 OFFCURVE",
"167 628 OFFCURVE",
"254 628 CURVE SMOOTH"
);
}
);
width = 530;
}
);
leftKerningGroup = zero.tf;
rightKerningGroup = zero.tf;
},
{
glyphname = one.tf;
lastChange = "2017-05-27 12:55:18 +0000";
layers = (
{
hints = (
{
origin = "{0, 8}";
type = Corner;
name = _corner.STM.btm.1;
},
{
origin = "{0, 9}";
scale = "{-1, 1}";
type = Corner;
name = _corner.STM.btm.1;
}
);
layerId = "4A3087DE-C6CF-4F86-8B90-A264D0797279";
paths = (
{
closed = 1;
nodes = (
"111 545 OFFCURVE",
"113 538 OFFCURVE",
"120 518 CURVE",
"324 590 LINE",
"297 602 LINE",
"299 536 OFFCURVE",
"300 489 OFFCURVE",
"300 403 CURVE SMOOTH",
"300 0 LINE",
"376 0 LINE",
"376 411 LINE SMOOTH",
"376 507 OFFCURVE",
"380 581 OFFCURVE",
"387 650 CURVE",
"368 655 OFFCURVE",
"346 655 OFFCURVE",
"331 647 CURVE SMOOTH",
"264 611 OFFCURVE",
"201 585 OFFCURVE",
"115 547 CURVE SMOOTH"
);
}
);
width = 530;
}
);
leftKerningGroup = one.tf;
rightKerningGroup = one.tf;
},
{
glyphname = two.tf;
lastChange = "2017-05-27 12:55:50 +0000";
layers = (
{
layerId = "4A3087DE-C6CF-4F86-8B90-A264D0797279";
paths = (
{
closed = 1;
nodes = (
"305 623 OFFCURVE",
"335 560 OFFCURVE",
"335 480 CURVE SMOOTH",
"335 416 OFFCURVE",
"322 364 OFFCURVE",
"263 277 CURVE SMOOTH",
"185 162 OFFCURVE",
"126 88 OFFCURVE",
"72 30 CURVE",
"65 19 OFFCURVE",
"62 11 OFFCURVE",
"61 0 CURVE",
"299 0 LINE SMOOTH",
"342 0 OFFCURVE",
"384 0 OFFCURVE",
"427 -2 CURVE SMOOTH",
"445 -3 OFFCURVE",
"453 -1 OFFCURVE",
"457 7 CURVE SMOOTH",
"475 43 OFFCURVE",
"490 79 OFFCURVE",
"504 115 CURVE",
"484 127 OFFCURVE",
"480 129 OFFCURVE",
"477 126 CURVE",
"465 111 LINE SMOOTH",
"433 68 OFFCURVE",
"409 65 OFFCURVE",
"360 65 CURVE SMOOTH",
"134 65 LINE",
"145 34 LINE",
"189 107 OFFCURVE",
"239 180 OFFCURVE",
"293 253 CURVE SMOOTH",
"391 386 OFFCURVE",
"425 438 OFFCURVE",
"425 515 CURVE SMOOTH",
"425 610 OFFCURVE",
"346 664 OFFCURVE",
"258 664 CURVE SMOOTH",
"154 664 OFFCURVE",
"90 598 OFFCURVE",
"90 558 CURVE SMOOTH",
"90 542 OFFCURVE",
"96 521 OFFCURVE",
"111 484 CURVE",
"133 484 LINE",
"138 583 OFFCURVE",
"173 623 OFFCURVE",
"233 623 CURVE SMOOTH"
);
}
);
width = 530;
}
);
leftKerningGroup = two.tf;
rightKerningGroup = two.tf;
},
{
glyphname = three.tf;
lastChange = "2017-05-27 12:58:15 +0000";
layers = (
{
layerId = "4A3087DE-C6CF-4F86-8B90-A264D0797279";
paths = (
{
closed = 1;
nodes = (
"195 664 OFFCURVE",
"107 629 OFFCURVE",
"107 565 CURVE SMOOTH",
"107 545 OFFCURVE",
"114 524 OFFCURVE",
"126 492 CURVE",
"147 492 LINE",
"152 597 OFFCURVE",
"190 631 OFFCURVE",
"249 631 CURVE SMOOTH",
"303 631 OFFCURVE",
"347 594 OFFCURVE",
"347 513 CURVE SMOOTH",
"347 448 OFFCURVE",
"313 409 OFFCURVE",
"250 390 CURVE SMOOTH",
"195 373 LINE",
"204 346 OFFCURVE",
"209 340 OFFCURVE",
"216 342 CURVE SMOOTH",
"248 349 LINE SMOOTH",
"320 365 OFFCURVE",
"379 322 OFFCURVE",
"379 221 CURVE SMOOTH",
"379 67 OFFCURVE",
"230 -9 OFFCURVE",
"38 1 CURVE",
"44 -43 OFFCURVE",
"48 -51 OFFCURVE",
"63 -51 CURVE SMOOTH",
"244 -51 OFFCURVE",
"468 78 OFFCURVE",
"468 237 CURVE SMOOTH",
"468 334 OFFCURVE",
"386 384 OFFCURVE",
"283 384 CURVE",
"253 362 LINE",
"355 386 OFFCURVE",
"433 443 OFFCURVE",
"433 527 CURVE SMOOTH",
"433 605 OFFCURVE",
"364 664 OFFCURVE",
"263 664 CURVE SMOOTH"
);
}
);
width = 530;
}
);
leftKerningGroup = three.tf;
rightKerningGroup = three.tf;
},
{
glyphname = four.tf;
lastChange = "2017-05-27 12:58:20 +0000";
layers = (
{
hints = (
{
origin = "{0, 23}";
type = Corner;
name = _corner.STM.btm.1;
},
{
origin = "{0, 24}";
scale = "{-1, 1}";
type = Corner;
name = _corner.STM.btm.1;
}
);
layerId = "4A3087DE-C6CF-4F86-8B90-A264D0797279";
paths = (
{
closed = 1;
nodes = (
"321 647 OFFCURVE",
"313 645 OFFCURVE",
"302 628 CURVE SMOOTH",
"212 488 OFFCURVE",
"132 377 OFFCURVE",
"37 250 CURVE",
"46 237 LINE",
"120 237 OFFCURVE",
"188 238 OFFCURVE",
"353 238 CURVE",
"492 238 LINE SMOOTH",
"499 238 OFFCURVE",
"499 241 OFFCURVE",
"499 274 CURVE",
"469 270 OFFCURVE",
"435 268 OFFCURVE",
"386 268 CURVE SMOOTH",
"73 268 LINE",
"100 248 LINE",
"169 376 OFFCURVE",
"225 459 OFFCURVE",
"331 602 CURVE",
"302 600 LINE",
"302 0 LINE",
"378 0 LINE",
"378 354 LINE SMOOTH",
"378 443 OFFCURVE",
"381 523 OFFCURVE",
"391 652 CURVE",
"347 649 LINE SMOOTH"
);
}
);
width = 530;
}
);
leftKerningGroup = four.tf;
rightKerningGroup = four.tf;
},
{
glyphname = five.tf;
lastChange = "2017-05-27 12:58:31 +0000";
layers = (
{
layerId = "4A3087DE-C6CF-4F86-8B90-A264D0797279";
paths = (
{
closed = 1;
nodes = (
"411 594 OFFCURVE",
"415 599 OFFCURVE",
"428 657 CURVE",
"424 660 LINE",
"312 652 OFFCURVE",
"199 646 OFFCURVE",
"133 646 CURVE",
"116 515 OFFCURVE",
"112 463 OFFCURVE",
"112 440 CURVE SMOOTH",
"112 401 OFFCURVE",
"125 392 OFFCURVE",
"203 359 CURVE SMOOTH",
"336 303 OFFCURVE",
"371 270 OFFCURVE",
"371 194 CURVE SMOOTH",
"371 70 OFFCURVE",
"214 -17 OFFCURVE",
"59 -9 CURVE",
"61 -47 OFFCURVE",
"63 -57 OFFCURVE",
"73 -57 CURVE SMOOTH",
"233 -57 OFFCURVE",
"451 86 OFFCURVE",
"451 235 CURVE SMOOTH",
"451 319 OFFCURVE",
"400 375 OFFCURVE",
"257 431 CURVE SMOOTH",
"164 467 OFFCURVE",
"152 474 OFFCURVE",
"152 498 CURVE SMOOTH",
"152 513 OFFCURVE",
"156 549 OFFCURVE",
"164 586 CURVE",
"399 594 LINE SMOOTH"
);
}
);
width = 530;
}
);
leftKerningGroup = five.tf;
rightKerningGroup = five.tf;
},
{
glyphname = six.tf;
lastChange = "2017-05-27 12:59:29 +0000";
layers = (
{
layerId = "4A3087DE-C6CF-4F86-8B90-A264D0797279";
paths = (
{
closed = 1;
nodes = (
"55 41 OFFCURVE",
"167 -16 OFFCURVE",
"262 -16 CURVE SMOOTH",
"367 -16 OFFCURVE",
"478 56 OFFCURVE",
"478 201 CURVE SMOOTH",
"478 316 OFFCURVE",
"397 372 OFFCURVE",
"316 372 CURVE SMOOTH",
"270 372 OFFCURVE",
"222 361 OFFCURVE",
"180 331 CURVE SMOOTH",
"170 324 OFFCURVE",
"168 313 OFFCURVE",
"174 291 CURVE",
"202 311 OFFCURVE",
"241 328 OFFCURVE",
"273 328 CURVE SMOOTH",
"351 328 OFFCURVE",
"395 261 OFFCURVE",
"395 168 CURVE SMOOTH",
"395 74 OFFCURVE",
"341 19 OFFCURVE",
"279 19 CURVE SMOOTH",
"208 19 OFFCURVE",
"138 80 OFFCURVE",
"138 255 CURVE SMOOTH",
"138 497 OFFCURVE",
"238 608 OFFCURVE",
"466 611 CURVE",
"465 660 OFFCURVE",
"462 664 OFFCURVE",
"451 664 CURVE SMOOTH",
"244 664 OFFCURVE",
"55 469 OFFCURVE",
"55 240 CURVE SMOOTH"
);
}
);
width = 530;
}
);
leftKerningGroup = six.tf;
rightKerningGroup = six.tf;
},
{
glyphname = seven.tf;
lastChange = "2017-05-27 12:59:19 +0000";
layers = (
{
layerId = "4A3087DE-C6CF-4F86-8B90-A264D0797279";
paths = (
{
closed = 1;
nodes = (
"108 651 OFFCURVE",
"97 651 OFFCURVE",
"90 636 CURVE SMOOTH",
"76 607 OFFCURVE",
"65 579 OFFCURVE",
"56 550 CURVE",
"76 540 OFFCURVE",
"81 541 OFFCURVE",
"83 543 CURVE",
"87 551 LINE SMOOTH",
"104 585 OFFCURVE",
"124 585 OFFCURVE",
"263 585 CURVE SMOOTH",
"323 585 OFFCURVE",
"384 585 OFFCURVE",
"444 583 CURVE",
"419 598 LINE",
"278 308 LINE SMOOTH",
"202 152 OFFCURVE",
"167 77 OFFCURVE",
"137 0 CURVE",
"210 -3 OFFCURVE",
"222 -1 OFFCURVE",
"225 13 CURVE SMOOTH",
"246 110 OFFCURVE",
"280 209 OFFCURVE",
"335 336 CURVE SMOOTH",
"396 477 OFFCURVE",
"419 521 OFFCURVE",
"495 645 CURVE",
"490 652 LINE",
"410 650 OFFCURVE",
"346 650 OFFCURVE",
"289 650 CURVE SMOOTH",
"250 650 OFFCURVE",
"190 651 OFFCURVE",
"135 651 CURVE SMOOTH"
);
}
);
width = 530;
}
);
leftKerningGroup = seven.tf;
rightKerningGroup = seven.tf;
},
{
glyphname = eight.tf;
lastChange = "2017-05-27 13:00:30 +0000";
layers = (
{
layerId = "4A3087DE-C6CF-4F86-8B90-A264D0797279";
paths = (
{
closed = 1;
nodes = (
"180 664 OFFCURVE",
"92 595 OFFCURVE",
"92 492 CURVE SMOOTH",
"92 403 OFFCURVE",
"167 348 OFFCURVE",
"224 328 CURVE",
"234 348 LINE",
"133 327 OFFCURVE",
"45 252 OFFCURVE",
"45 155 CURVE SMOOTH",
"45 38 OFFCURVE",
"149 -14 OFFCURVE",
"250 -14 CURVE SMOOTH",
"367 -14 OFFCURVE",
"486 61 OFFCURVE",
"486 175 CURVE SMOOTH",
"486 262 OFFCURVE",
"402 332 OFFCURVE",
"293 367 CURVE",
"276 340 LINE",
"357 349 OFFCURVE",
"451 420 OFFCURVE",
"451 507 CURVE SMOOTH",
"451 617 OFFCURVE",
"358 664 OFFCURVE",
"280 664 CURVE SMOOTH"
);
},
{
closed = 1;
nodes = (
"337 626 OFFCURVE",
"377 560 OFFCURVE",
"377 496 CURVE SMOOTH",
"377 422 OFFCURVE",
"339 381 OFFCURVE",
"269 360 CURVE",
"317 358 LINE",
"208 400 OFFCURVE",
"163 446 OFFCURVE",
"163 523 CURVE SMOOTH",
"163 582 OFFCURVE",
"196 626 OFFCURVE",
"255 626 CURVE SMOOTH"
);
},
{
closed = 1;
nodes = (
"315 298 OFFCURVE",
"405 238 OFFCURVE",
"405 147 CURVE SMOOTH",
"405 85 OFFCURVE",
"364 24 OFFCURVE",
"272 24 CURVE SMOOTH",
"186 24 OFFCURVE",
"118 90 OFFCURVE",
"118 181 CURVE SMOOTH",
"118 263 OFFCURVE",
"180 312 OFFCURVE",
"263 327 CURVE",
"216 327 LINE"
);
}
);
width = 530;
}
);
leftKerningGroup = eight.tf;
rightKerningGroup = eight.tf;
},
{
glyphname = nine.tf;
lastChange = "2017-05-27 12:59:48 +0000";
layers = (
{
layerId = "4A3087DE-C6CF-4F86-8B90-A264D0797279";
paths = (
{
closed = 1;
nodes = (
"475 597 OFFCURVE",
"363 664 OFFCURVE",
"262 664 CURVE SMOOTH",
"151 664 OFFCURVE",
"52 577 OFFCURVE",
"52 452 CURVE SMOOTH",
"52 340 OFFCURVE",
"133 276 OFFCURVE",
"234 276 CURVE SMOOTH",
"266 276 OFFCURVE",
"303 288 OFFCURVE",
"350 321 CURVE SMOOTH",
"360 328 OFFCURVE",
"360 339 OFFCURVE",
"352 359 CURVE",
"318 329 OFFCURVE",
"293 320 OFFCURVE",
"257 320 CURVE SMOOTH",
"179 320 OFFCURVE",
"135 387 OFFCURVE",
"135 472 CURVE SMOOTH",
"135 568 OFFCURVE",
"174 629 OFFCURVE",
"247 629 CURVE SMOOTH",
"324 629 OFFCURVE",
"392 558 OFFCURVE",
"392 393 CURVE SMOOTH",
"392 141 OFFCURVE",
"262 39 OFFCURVE",
"65 37 CURVE",
"70 -11 OFFCURVE",
"75 -16 OFFCURVE",
"84 -16 CURVE SMOOTH",
"256 -16 OFFCURVE",
"475 169 OFFCURVE",
"475 408 CURVE SMOOTH"
);
}
);
width = 530;
}
);
leftKerningGroup = nine.tf;
rightKerningGroup = nine.tf;
},
{
glyphname = fraction;
lastChange = "2017-05-25 15:40:52 +0000";
layers = (
{
layerId = "4A3087DE-C6CF-4F86-8B90-A264D0797279";
paths = (
{
closed = 1;
nodes = (
"132 196 LINE SMOOTH",
"79 126 OFFCURVE",
"31 63 OFFCURVE",
"-20 0 CURVE",
"38 0 LINE",
"76 56 OFFCURVE",
"117 111 OFFCURVE",
"159 167 CURVE SMOOTH",
"374 454 LINE SMOOTH",
"427 525 OFFCURVE",
"475 587 OFFCURVE",
"526 650 CURVE",
"468 650 LINE",
"430 594 OFFCURVE",
"389 539 OFFCURVE",
"347 483 CURVE SMOOTH"
);
}
);
width = 506;
}
);
leftKerningGroup = fraction;
rightKerningGroup = fraction;
unicode = 2044;
},
{
glyphname = asterisk;
lastChange = "2017-05-25 21:49:44 +0000";
layers = (
{
layerId = "4A3087DE-C6CF-4F86-8B90-A264D0797279";
paths = (
{
closed = 1;
nodes = (
"127 581 OFFCURVE",
"93 601 OFFCURVE",
"57 619 CURVE",
"68 639 LINE",
"98 620 OFFCURVE",
"134 600 OFFCURVE",
"174 582 CURVE",
"177 615 OFFCURVE",
"179 672 OFFCURVE",
"177 702 CURVE",
"201 702 LINE",
"199 672 OFFCURVE",
"201 615 OFFCURVE",
"204 582 CURVE",
"244 600 OFFCURVE",
"280 620 OFFCURVE",
"310 639 CURVE",
"321 619 LINE",
"285 601 OFFCURVE",
"251 581 OFFCURVE",
"217 556 CURVE",
"251 531 OFFCURVE",
"285 511 OFFCURVE",
"321 493 CURVE",
"310 473 LINE",
"280 492 OFFCURVE",
"244 512 OFFCURVE",
"204 530 CURVE",
"201 497 OFFCURVE",
"199 440 OFFCURVE",
"201 410 CURVE",
"177 410 LINE",
"179 440 OFFCURVE",
"177 497 OFFCURVE",
"174 530 CURVE",
"134 512 OFFCURVE",
"98 492 OFFCURVE",
"68 473 CURVE",
"57 493 LINE",
"93 511 OFFCURVE",
"127 531 OFFCURVE",
"161 556 CURVE"
);
}
);
width = 378;
}
);
leftKerningGroup = asterisk;
rightKerningGroup = asterisk;
unicode = 002A;
},
{
glyphname = bullet;
lastChange = "2017-05-25 15:40:52 +0000";
layers = (
{
layerId = "4A3087DE-C6CF-4F86-8B90-A264D0797279";
paths = (
{
closed = 1;
nodes = (
"274 222 OFFCURVE",
"325 273 OFFCURVE",
"325 337 CURVE SMOOTH",
"325 401 OFFCURVE",
"274 452 OFFCURVE",
"210 452 CURVE SMOOTH",
"146 452 OFFCURVE",
"95 401 OFFCURVE",
"95 337 CURVE SMOOTH",
"95 273 OFFCURVE",
"146 222 OFFCURVE",
"210 222 CURVE SMOOTH"
);
}
);
width = 420;
}
);
leftKerningGroup = bullet;
rightKerningGroup = bullet;
unicode = 2022;
},
{
glyphname = comma;
lastChange = "2017-05-28 04:40:28 +0000";
layers = (
{
layerId = "4A3087DE-C6CF-4F86-8B90-A264D0797279";
paths = (
{
closed = 1;
nodes = (
"72 -12 OFFCURVE",
"40 -90 OFFCURVE",
"-5 -148 CURVE",
"12 -160 OFFCURVE",
"20 -160 OFFCURVE",
"23 -157 CURVE SMOOTH",
"103 -80 OFFCURVE",
"148 -1 OFFCURVE",
"162 74 CURVE",
"108 71 OFFCURVE",
"88 67 OFFCURVE",
"85 51 CURVE SMOOTH"
);
}
);
width = 240;
}
);
leftKerningGroup = comma;
rightKerningGroup = period;
unicode = 002C;
},
{
glyphname = exclam;
lastChange = "2017-05-27 13:01:17 +0000";
layers = (
{
components = (
{
name = period;
transform = "{1, 0, 0, 1, 13, 0}";
}
);
layerId = "4A3087DE-C6CF-4F86-8B90-A264D0797279";
paths = (
{
closed = 1;
nodes = (
"133 664 LINE",
"167 664 OFFCURVE",
"174 656 OFFCURVE",
"174 598 CURVE SMOOTH",
"174 538 OFFCURVE",
"149 359 OFFCURVE",
"149 178 CURVE",
"133 178 LINE"
);
},
{
closed = 1;
nodes = (
"117 178 LINE",
"117 359 OFFCURVE",
"92 538 OFFCURVE",
"92 598 CURVE SMOOTH",
"92 656 OFFCURVE",
"99 664 OFFCURVE",
"133 664 CURVE",
"133 178 LINE"
);
}
);
width = 266;
}
);
leftKerningGroup = exclam;
rightKerningGroup = exclam;
unicode = 0021;
},
{
glyphname = numbersign;
lastChange = "2017-05-25 15:40:52 +0000";
layers = (
{
layerId = "4A3087DE-C6CF-4F86-8B90-A264D0797279";
paths = (
{
closed = 1;
nodes = (
"218 357 OFFCURVE",
"244 433 OFFCURVE",
"272 510 CURVE",
"226 510 LINE",
"204 431 OFFCURVE",
"185 373 OFFCURVE",
"171 331 CURVE SMOOTH",
"123 190 LINE SMOOTH",
"110 153 OFFCURVE",
"85 77 OFFCURVE",
"57 0 CURVE",
"103 0 LINE",
"125 79 OFFCURVE",
"142 133 OFFCURVE",
"157 178 CURVE SMOOTH",
"205 319 LINE SMOOTH"
);
},
{
closed = 1;
nodes = (
"87 304 LINE",
"374 304 LINE",
"378 338 LINE",
"91 338 LINE"
);
},
{
closed = 1;
nodes = (
"61 172 LINE",
"348 172 LINE",
"352 206 LINE",
"65 206 LINE"
);
},
{
closed = 1;
nodes = (
"321 357 OFFCURVE",
"346 433 OFFCURVE",
"374 510 CURVE",
"328 510 LINE",
"306 431 OFFCURVE",
"286 373 OFFCURVE",
"272 330 CURVE SMOOTH",
"225 188 LINE SMOOTH",
"213 153 OFFCURVE",
"187 77 OFFCURVE",
"159 0 CURVE",
"205 0 LINE",
"227 79 OFFCURVE",
"244 133 OFFCURVE",
"259 176 CURVE SMOOTH",
"307 317 LINE SMOOTH"
);
}
);
width = 421;
}
);
leftKerningGroup = numbersign;
rightKerningGroup = numbersign;
unicode = 0023;
},
{
glyphname = period;
lastChange = "2017-05-27 13:00:55 +0000";
layers = (
{
layerId = "4A3087DE-C6CF-4F86-8B90-A264D0797279";
paths = (
{
closed = 1;
nodes = (
"146 -4 OFFCURVE",
"168 17 OFFCURVE",
"168 43 CURVE SMOOTH",
"168 70 OFFCURVE",
"147 92 OFFCURVE",
"121 92 CURVE SMOOTH",
"94 92 OFFCURVE",
"72 71 OFFCURVE",
"72 45 CURVE SMOOTH",
"72 18 OFFCURVE",
"93 -4 OFFCURVE",
"119 -4 CURVE SMOOTH"
);
}
);
width = 240;
}
);
leftKerningGroup = period;
rightKerningGroup = period;
unicode = 002E;
},
{
glyphname = question;
lastChange = "2017-05-27 13:01:38 +0000";
layers = (
{
components = (
{
name = period;
transform = "{1, 0, 0, 1, 7, 0}";
}
);
layerId = "4A3087DE-C6CF-4F86-8B90-A264D0797279";
paths = (
{
closed = 1;
nodes = (
"105 177 LINE",
"83 226 OFFCURVE",
"71 259 OFFCURVE",
"71 288 CURVE SMOOTH",
"71 339 OFFCURVE",
"95 358 OFFCURVE",
"155 390 CURVE SMOOTH",
"211 420 OFFCURVE",
"242 442 OFFCURVE",
"242 488 CURVE SMOOTH",
"242 547 OFFCURVE",
"172 581 OFFCURVE",
"52 583 CURVE",
"52 655 OFFCURVE",
"54 664 OFFCURVE",
"67 664 CURVE SMOOTH",
"191 664 OFFCURVE",
"275 569 OFFCURVE",
"275 478 CURVE SMOOTH",
"275 401 OFFCURVE",
"242 359 OFFCURVE",
"173 320 CURVE SMOOTH",
"125 293 OFFCURVE",
"111 279 OFFCURVE",
"111 257 CURVE SMOOTH",
"111 240 OFFCURVE",
"118 218 OFFCURVE",
"128 187 CURVE"
);
}
);
width = 323;
}
);
leftKerningGroup = question;
rightKerningGroup = question;
unicode = 003F;
},
{
glyphname = quotesingle;
lastChange = "2017-05-25 15:40:52 +0000";
layers = (
{
layerId = "4A3087DE-C6CF-4F86-8B90-A264D0797279";
paths = (
{
closed = 1;
nodes = (
"53 695 OFFCURVE",
"41 696 CURVE",
"49 618 OFFCURVE",
"54 541 OFFCURVE",
"56 470 CURVE",
"86 470 LINE",
"88 541 OFFCURVE",
"93 618 OFFCURVE",
"101 696 CURVE",
"89 695 OFFCURVE"
);
}
);
width = 159;
}
);
leftKerningGroup = quotesingle;
rightKerningGroup = quotesingle;
unicode = 0027;
},
{
glyphname = slash;
lastChange = "2017-05-27 07:17:45 +0000";
layers = (
{
layerId = "4A3087DE-C6CF-4F86-8B90-A264D0797279";
paths = (
{
closed = 1;
nodes = (
"273 562 OFFCURVE",
"300 638 OFFCURVE",
"328 715 CURVE",
"281 715 LINE",
"259 636 OFFCURVE",
"239 577 OFFCURVE",
"213 497 CURVE SMOOTH",
"71 66 LINE SMOOTH",
"46 -10 OFFCURVE",
"19 -87 OFFCURVE",
"-9 -164 CURVE",
"38 -164 LINE",
"60 -85 OFFCURVE",
"80 -26 OFFCURVE",
"106 54 CURVE SMOOTH",
"248 485 LINE SMOOTH"
);
}
);
width = 319;
}
);
leftKerningGroup = slash;
rightKerningGroup = slash;
unicode = 002F;
},
{
glyphname = underscore;
lastChange = "2017-05-25 15:40:52 +0000";
layers = (
{
hints = (
{
origin = "{0, 1}";
target = "{0, 2}";
type = Cap;
name = _cap.punction.1;
},
{
origin = "{0, 3}";
target = "{0, 0}";
type = Cap;
name = _cap.punction.1;
}
);
layerId = "4A3087DE-C6CF-4F86-8B90-A264D0797279";
paths = (
{
closed = 1;
nodes = (
"30 -57 LINE",
"280 -57 LINE",
"280 -21 LINE",
"30 -21 LINE"
);
}
);
width = 310;
}
);
leftKerningGroup = underscore;
rightKerningGroup = underscore;
unicode = 005F;
},
{
glyphname = numbersign.tf;
lastChange = "2017-05-25 15:40:52 +0000";
layers = (
{
layerId = "4A3087DE-C6CF-4F86-8B90-A264D0797279";
paths = (
{
closed = 1;
nodes = (
"271 497 OFFCURVE",
"297 573 OFFCURVE",
"325 650 CURVE",
"279 650 LINE",
"257 571 OFFCURVE",
"238 513 OFFCURVE",
"211 432 CURVE SMOOTH",
"144 230 LINE SMOOTH",
"119 154 OFFCURVE",
"92 77 OFFCURVE",
"64 0 CURVE",
"110 0 LINE",
"132 79 OFFCURVE",
"151 137 OFFCURVE",
"178 218 CURVE SMOOTH",
"245 420 LINE SMOOTH"
);
},
{
closed = 1;
nodes = (
"98 378 LINE",
"458 378 LINE",
"462 412 LINE",
"102 412 LINE"
);
},
{
closed = 1;
nodes = (
"70 238 LINE",
"430 238 LINE",
"434 272 LINE",
"74 272 LINE"
);
},
{
closed = 1;
nodes = (
"411 497 OFFCURVE",
"437 573 OFFCURVE",
"465 650 CURVE",
"419 650 LINE",
"397 571 OFFCURVE",
"378 513 OFFCURVE",
"351 432 CURVE SMOOTH",
"284 230 LINE SMOOTH",
"259 154 OFFCURVE",
"232 77 OFFCURVE",
"204 0 CURVE",
"250 0 LINE",
"272 79 OFFCURVE",
"291 137 OFFCURVE",
"318 218 CURVE SMOOTH",
"385 420 LINE SMOOTH"
);
}
);
width = 530;
}
);
leftKerningGroup = numbersign.tf;
rightKerningGroup = numbersign.tf;
},
{
glyphname = braceright;
lastChange = "2017-05-25 15:40:52 +0000";
layers = (
{
layerId = "4A3087DE-C6CF-4F86-8B90-A264D0797279";
paths = (
{
closed = 1;
nodes = (
"241 297 LINE",
"193 297 OFFCURVE",
"169 273 OFFCURVE",
"169 205 CURVE SMOOTH",
"169 180 OFFCURVE",
"172 150 OFFCURVE",
"176 114 CURVE SMOOTH",
"184 42 OFFCURVE",
"186 9 OFFCURVE",
"186 -17 CURVE SMOOTH",
"186 -74 OFFCURVE",
"143 -94 OFFCURVE",
"54 -94 CURVE",
"54 -116 LINE",
"105 -116 LINE SMOOTH",
"200 -116 OFFCURVE",
"237 -75 OFFCURVE",
"227 10 CURVE SMOOTH",
"214 121 OFFCURVE",
"210 180 OFFCURVE",
"210 208 CURVE SMOOTH",
"210 267 OFFCURVE",
"230 282 OFFCURVE",
"271 286 CURVE",
"271 308 LINE",
"230 312 OFFCURVE",
"207 330 OFFCURVE",
"207 389 CURVE SMOOTH",
"207 421 OFFCURVE",
"208 452 OFFCURVE",
"227 584 CURVE SMOOTH",
"239 669 OFFCURVE",
"200 716 OFFCURVE",
"105 716 CURVE SMOOTH",
"54 716 LINE",
"54 694 LINE",
"145 694 OFFCURVE",
"188 671 OFFCURVE",
"188 611 CURVE SMOOTH",
"188 585 OFFCURVE",
"182 529 OFFCURVE",
"176 480 CURVE SMOOTH",
"171 442 OFFCURVE",
"167 412 OFFCURVE",
"167 388 CURVE SMOOTH",
"167 322 OFFCURVE",
"194 300 OFFCURVE",
"242 295 CURVE"
);
}
);
width = 380;
}
);
leftKerningGroup = braceright;
rightKerningGroup = braceright;
unicode = 007D;
},
{
glyphname = bracketright;
lastChange = "2017-05-25 21:49:15 +0000";
layers = (
{
layerId = "4A3087DE-C6CF-4F86-8B90-A264D0797279";
paths = (
{
closed = 1;
nodes = (
"185 137 OFFCURVE",
"185 45 OFFCURVE",
"183 -13 CURVE SMOOTH",
"181 -82 OFFCURVE",
"172 -89 OFFCURVE",
"144 -91 CURVE SMOOTH",
"119 -93 OFFCURVE",
"83 -93 OFFCURVE",
"54 -93 CURVE",
"54 -115 LINE",
"118 -115 OFFCURVE",
"159 -115 OFFCURVE",
"221 -117 CURVE",
"219 -60 OFFCURVE",
"219 1 OFFCURVE",
"219 73 CURVE SMOOTH",
"219 300 LINE",
"185 300 LINE"
);
},
{
closed = 1;
nodes = (
"219 300 LINE",
"219 527 LINE SMOOTH",
"219 599 OFFCURVE",
"219 660 OFFCURVE",
"221 717 CURVE",
"159 715 OFFCURVE",
"118 715 OFFCURVE",
"54 715 CURVE",
"54 693 LINE",
"83 693 OFFCURVE",
"119 693 OFFCURVE",
"144 691 CURVE SMOOTH",
"172 689 OFFCURVE",
"181 682 OFFCURVE",
"183 613 CURVE SMOOTH",
"185 555 OFFCURVE",
"185 463 OFFCURVE",
"185 300 CURVE"
);
}
);
width = 315;
}
);
leftKerningGroup = bracketright;
rightKerningGroup = bracketright;
unicode = 005D;
},
{
glyphname = parenright;
lastChange = "2017-05-27 07:23:33 +0000";
layers = (
{
layerId = "4A3087DE-C6CF-4F86-8B90-A264D0797279";
paths = (
{
closed = 1;
nodes = (
"216 14 OFFCURVE",
"148 -90 OFFCURVE",
"37 -100 CURVE",
"40 -122 LINE",
"187 -122 OFFCURVE",
"264 64 OFFCURVE",
"264 297 CURVE",
"216 297 LINE"
);
},
{
closed = 1;
nodes = (
"264 297 LINE",
"264 530 OFFCURVE",
"187 716 OFFCURVE",
"40 716 CURVE",
"37 694 LINE",
"148 684 OFFCURVE",
"216 580 OFFCURVE",
"216 297 CURVE"
);
}
);
width = 354;
}
);
leftKerningGroup = parenright;
rightKerningGroup = parenright;
unicode = 0029;
},
{
glyphname = emdash;
lastChange = "2017-05-25 15:40:52 +0000";
layers = (
{
hints = (
{
origin = "{0, 0}";
target = "{0, 1}";
type = Cap;
name = _cap.punction.1;
},
{
origin = "{0, 2}";
target = "{0, 3}";
type = Cap;
name = _cap.punction.1;
}
);
layerId = "4A3087DE-C6CF-4F86-8B90-A264D0797279";
paths = (
{
closed = 1;
nodes = (
"70 304 LINE",
"70 268 LINE",
"930 268 LINE",
"930 304 LINE"
);
}
);
width = 1000;
}
);
leftKerningGroup = hyphen;
rightKerningGroup = hyphen;
unicode = 2014;
},
{
glyphname = endash;
lastChange = "2017-05-25 15:40:52 +0000";
layers = (
{
hints = (
{
origin = "{0, 3}";
target = "{0, 0}";
type = Cap;
name = _cap.punction.1;
},
{
origin = "{0, 1}";
target = "{0, 2}";
type = Cap;
name = _cap.punction.1;
}
);
layerId = "4A3087DE-C6CF-4F86-8B90-A264D0797279";
paths = (
{
closed = 1;
nodes = (
"70 268 LINE",
"430 268 LINE",
"430 304 LINE",
"70 304 LINE"
);
}
);
width = 500;
}
);
leftKerningGroup = hyphen;
rightKerningGroup = hyphen;
unicode = 2013;
},
{
glyphname = hyphen;
lastChange = "2017-05-26 10:59:05 +0000";
layers = (
{
hints = (
{
origin = "{0, 3}";
target = "{0, 0}";
type = Cap;
name = _cap.punction.1;
},
{
origin = "{0, 1}";
target = "{0, 2}";
type = Cap;
name = _cap.punction.1;
}
);
layerId = "4A3087DE-C6CF-4F86-8B90-A264D0797279";
paths = (
{
closed = 1;
nodes = (
"70 268 LINE",
"266 268 LINE",
"266 304 LINE",
"70 304 LINE"
);
}
);
width = 336;
}
);
leftKerningGroup = hyphen;
rightKerningGroup = hyphen;
unicode = 002D;
},
{
glyphname = guilsinglright;
lastChange = "2017-05-25 21:53:57 +0000";
layers = (
{
layerId = "4A3087DE-C6CF-4F86-8B90-A264D0797279";
paths = (
{
closed = 1;
nodes = (
"50 459 LINE",
"119 390 OFFCURVE",
"192 312 OFFCURVE",
"258 237 CURVE",
"324 237 LINE",
"324 246 LINE",
"237 319 OFFCURVE",
"150 395 OFFCURVE",
"65 473 CURVE"
);
},
{
closed = 1;
nodes = (
"150 79 OFFCURVE",
"237 155 OFFCURVE",
"324 228 CURVE",
"324 237 LINE",
"258 237 LINE",
"192 162 OFFCURVE",
"119 84 OFFCURVE",
"50 15 CURVE",
"65 1 LINE"
);
}
);
width = 424;
}
);
leftKerningGroup = guilsinglright;
rightKerningGroup = guilsinglright;
unicode = 203A;
},
{
glyphname = quoteright;
lastChange = "2017-05-28 04:40:56 +0000";
layers = (
{
layerId = "4A3087DE-C6CF-4F86-8B90-A264D0797279";
paths = (
{
closed = 1;
nodes = (
"113 614 OFFCURVE",
"80 536 OFFCURVE",
"35 478 CURVE",
"52 466 OFFCURVE",
"60 466 OFFCURVE",
"63 469 CURVE SMOOTH",
"142 548 OFFCURVE",
"188 625 OFFCURVE",
"202 700 CURVE",
"148 697 OFFCURVE",
"128 693 OFFCURVE",
"125 677 CURVE SMOOTH"
);
}
);
width = 249;
}
);
leftKerningGroup = quotedblleft;
rightKerningGroup = quotedblleft;
unicode = 2019;
},
{
glyphname = cent;
lastChange = "2017-05-27 13:07:02 +0000";
layers = (
{
layerId = "4A3087DE-C6CF-4F86-8B90-A264D0797279";
paths = (
{
closed = 1;
nodes = (
"320 409 OFFCURVE",
"364 370 OFFCURVE",
"393 305 CURVE",
"412 307 LINE",
"412 377 OFFCURVE",
"410 392 OFFCURVE",
"394 413 CURVE SMOOTH",
"375 438 OFFCURVE",
"337 454 OFFCURVE",
"289 454 CURVE SMOOTH",
"161 454 OFFCURVE",
"49 346 OFFCURVE",
"49 207 CURVE SMOOTH",
"49 60 OFFCURVE",
"151 -14 OFFCURVE",
"255 -14 CURVE SMOOTH",
"311 -14 OFFCURVE",
"354 2 OFFCURVE",
"402 34 CURVE SMOOTH",
"408 38 OFFCURVE",
"412 42 OFFCURVE",
"412 48 CURVE SMOOTH",
"412 53 OFFCURVE",
"409 64 OFFCURVE",
"405 73 CURVE",
"367 46 OFFCURVE",
"328 29 OFFCURVE",
"274 29 CURVE SMOOTH",
"219 29 OFFCURVE",
"124 76 OFFCURVE",
"124 236 CURVE SMOOTH",
"124 355 OFFCURVE",
"185 409 OFFCURVE",
"254 409 CURVE SMOOTH"
);
},
{
closed = 1;
nodes = (
"214 -95 LINE",
"333 541 LINE",
"303 541 LINE",
"184 -95 LINE"
);
}
);
width = 465;
}
);
leftKerningGroup = o;
rightKerningGroup = c;
unicode = 00A2;
},
{
glyphname = currency;
lastChange = "2017-05-25 15:40:52 +0000";
layers = (
{
layerId = "4A3087DE-C6CF-4F86-8B90-A264D0797279";
paths = (
{
closed = 1;
nodes = (
"458 119 LINE",
"388 189 LINE",
"367 168 LINE",
"437 98 LINE"
);
},
{
closed = 1;
nodes = (
"445 301 LINE",
"445 401 OFFCURVE",
"365 481 OFFCURVE",
"265 481 CURVE",
"265 451 LINE",
"349 451 OFFCURVE",
"413 389 OFFCURVE",
"413 301 CURVE"
);
},
{
closed = 1;
nodes = (
"163 434 LINE",
"93 504 LINE",
"72 483 LINE",
"142 413 LINE"
);
},
{
closed = 1;
nodes = (
"163 168 LINE",
"142 189 LINE",
"72 119 LINE",
"93 98 LINE"
);
},
{
closed = 1;
nodes = (
"458 483 LINE",
"437 504 LINE",
"367 434 LINE",
"388 413 LINE"
);
},
{
closed = 1;
nodes = (
"117 389 OFFCURVE",
"181 451 OFFCURVE",
"265 451 CURVE",
"265 481 LINE",
"165 481 OFFCURVE",
"85 401 OFFCURVE",
"85 301 CURVE",
"117 301 LINE"
);
},
{
closed = 1;
nodes = (
"413 213 OFFCURVE",
"349 151 OFFCURVE",
"265 151 CURVE",
"265 121 LINE",
"365 121 OFFCURVE",
"445 201 OFFCURVE",
"445 301 CURVE",
"413 301 LINE"
);
},
{
closed = 1;
nodes = (
"85 301 LINE",
"85 201 OFFCURVE",
"165 121 OFFCURVE",
"265 121 CURVE",
"265 151 LINE",
"181 151 OFFCURVE",
"117 213 OFFCURVE",
"117 301 CURVE"
);
}
);
width = 530;
}
);
leftKerningGroup = currency;
rightKerningGroup = currency;
unicode = 00A4;
},
{
glyphname = dollar;
lastChange = "2017-05-27 13:03:53 +0000";
layers = (
{
layerId = "4A3087DE-C6CF-4F86-8B90-A264D0797279";
paths = (
{
closed = 1;
nodes = (
"143 -57 LINE",
"252 559 LINE",
"222 559 LINE",
"113 -57 LINE"
);
},
{
closed = 1;
nodes = (
"133 54 OFFCURVE",
"93 70 OFFCURVE",
"61 128 CURVE",
"45 126 LINE",
"46 44 OFFCURVE",
"80 16 OFFCURVE",
"139 16 CURVE SMOOTH",
"231 16 OFFCURVE",
"323 80 OFFCURVE",
"323 163 CURVE SMOOTH",
"323 220 OFFCURVE",
"293 256 OFFCURVE",
"204 315 CURVE",
"194 314 LINE",
"155 339 OFFCURVE",
"139 365 OFFCURVE",
"139 395 CURVE SMOOTH",
"139 430 OFFCURVE",
"169 454 OFFCURVE",
"205 450 CURVE",
"233 450 OFFCURVE",
"253 440 OFFCURVE",
"283 408 CURVE",
"299 410 LINE",
"297 474 OFFCURVE",
"259 494 OFFCURVE",
"222 494 CURVE SMOOTH",
"155 494 OFFCURVE",
"84 431 OFFCURVE",
"84 362 CURVE SMOOTH",
"84 315 OFFCURVE",
"108 283 OFFCURVE",
"167 240 CURVE",
"180 238 LINE",
"239 199 OFFCURVE",
"260 171 OFFCURVE",
"260 132 CURVE SMOOTH",
"260 81 OFFCURVE",
"221 54 OFFCURVE",
"173 54 CURVE SMOOTH"
);
}
);
width = 368;
}
);
leftKerningGroup = dollar;
rightKerningGroup = dollar;
unicode = 0024;
},
{
glyphname = euro;
lastChange = "2017-05-27 13:02:41 +0000";
layers = (
{
layerId = "4A3087DE-C6CF-4F86-8B90-A264D0797279";
paths = (
{
closed = 1;
nodes = (
"301 30 LINE",
"209 30 OFFCURVE",
"173 104 OFFCURVE",
"173 250 CURVE SMOOTH",
"173 400 OFFCURVE",
"207 487 OFFCURVE",
"276 487 CURVE",
"314 524 LINE",
"191 524 OFFCURVE",
"95 425 OFFCURVE",
"95 228 CURVE SMOOTH",
"95 65 OFFCURVE",
"169 -14 OFFCURVE",
"283 -14 CURVE"
);
},
{
closed = 1;
nodes = (
"389 186 LINE",
"399 216 LINE",
"41 216 LINE",
"31 186 LINE"
);
},
{
closed = 1;
nodes = (
"410 270 LINE",
"420 300 LINE",
"59 300 LINE",
"49 270 LINE"
);
},
{
closed = 1;
nodes = (
"336 487 OFFCURVE",
"369 456 OFFCURVE",
"413 376 CURVE",
"431 379 LINE",
"431 481 OFFCURVE",
"403 524 OFFCURVE",
"314 524 CURVE",
"276 487 LINE"
);
},
{
closed = 1;
nodes = (
"331 -14 OFFCURVE",
"370 -1 OFFCURVE",
"420 29 CURVE SMOOTH",
"430 35 OFFCURVE",
"435 39 OFFCURVE",
"435 47 CURVE SMOOTH",
"435 54 OFFCURVE",
"434 56 OFFCURVE",
"426 72 CURVE",
"381 41 OFFCURVE",
"352 30 OFFCURVE",
"301 30 CURVE",
"283 -14 LINE"
);
}
);
width = 485;
}
);
leftKerningGroup = euro;
rightKerningGroup = euro;
unicode = 20AC;
},
{
glyphname = sterling;
lastChange = "2017-05-27 13:02:53 +0000";
layers = (
{
layerId = "4A3087DE-C6CF-4F86-8B90-A264D0797279";
paths = (
{
closed = 1;
nodes = (
"371 233 LINE",
"375 263 LINE",
"61 263 LINE",
"57 233 LINE"
);
},
{
closed = 1;
nodes = (
"378 -6 OFFCURVE",
"385 -3 OFFCURVE",
"393 3 CURVE SMOOTH",
"445 45 LINE",
"432 61 LINE",
"406 48 OFFCURVE",
"391 46 OFFCURVE",
"376 46 CURVE SMOOTH",
"361 46 OFFCURVE",
"343 48 OFFCURVE",
"282 56 CURVE SMOOTH",
"252 60 OFFCURVE",
"221 63 OFFCURVE",
"203 63 CURVE SMOOTH",
"178 63 OFFCURVE",
"144 57 OFFCURVE",
"64 20 CURVE",
"88 27 LINE",
"163 96 OFFCURVE",
"184 170 OFFCURVE",
"192 250 CURVE SMOOTH",
"202 355 OFFCURVE",
"196 481 OFFCURVE",
"257 481 CURVE SMOOTH",
"282 481 OFFCURVE",
"320 461 OFFCURVE",
"320 407 CURVE",
"335 408 LINE",
"355 418 OFFCURVE",
"371 438 OFFCURVE",
"371 462 CURVE SMOOTH",
"371 494 OFFCURVE",
"343 524 OFFCURVE",
"287 524 CURVE SMOOTH",
"224 524 OFFCURVE",
"146 466 OFFCURVE",
"120 248 CURVE SMOOTH",
"102 96 OFFCURVE",
"87 62 OFFCURVE",
"31 18 CURVE SMOOTH",
"26 14 OFFCURVE",
"26 10 OFFCURVE",
"28 5 CURVE SMOOTH",
"31 -2 LINE",
"101 8 OFFCURVE",
"150 11 OFFCURVE",
"180 11 CURVE SMOOTH",
"210 11 OFFCURVE",
"234 8 OFFCURVE",
"264 4 CURVE SMOOTH",
"316 -3 OFFCURVE",
"340 -6 OFFCURVE",
"359 -6 CURVE SMOOTH"
);
}
);
width = 463;
}
);
leftKerningGroup = sterling;
rightKerningGroup = sterling;
unicode = 00A3;
},
{
glyphname = yen;
lastChange = "2017-05-27 13:03:06 +0000";
layers = (
{
hints = (
{
origin = "{0, 12}";
scale = "{-1, 1}";
type = Corner;
name = _corner.stm.out.1;
options = 1;
},
{
origin = "{0, 3}";
type = Corner;
name = _corner.stm.out.1;
},
{
origin = "{0, 15}";
target = "{0, 0}";
type = Cap;
name = _cap.stm.btm.3;
}
);
layerId = "4A3087DE-C6CF-4F86-8B90-A264D0797279";
paths = (
{
closed = 1;
nodes = (
"258 0 LINE",
"258 269 LINE",
"233 216 LINE",
"410 510 LINE",
"358 510 LINE",
"326 437 OFFCURVE",
"278 345 OFFCURVE",
"226 259 CURVE",
"246 259 LINE",
"199 345 OFFCURVE",
"161 430 OFFCURVE",
"130 510 CURVE",
"36 510 LINE",
"197 218 LINE",
"186 271 LINE",
"186 0 LINE"
);
},
{
closed = 1;
nodes = (
"374 166 LINE",
"378 196 LINE",
"76 196 LINE",
"72 166 LINE"
);
},
{
closed = 1;
nodes = (
"374 252 LINE",
"378 282 LINE",
"260 282 LINE",
"234 254 LINE",
"192 282 LINE",
"76 282 LINE",
"72 252 LINE"
);
}
);
width = 445;
}
);
leftKerningGroup = yen;
rightKerningGroup = yen;
unicode = 00A5;
},
{
glyphname = cent.tf;
lastChange = "2017-05-27 13:01:51 +0000";
layers = (
{
layerId = "4A3087DE-C6CF-4F86-8B90-A264D0797279";
paths = (
{
closed = 1;
nodes = (
"351 409 OFFCURVE",
"395 370 OFFCURVE",
"424 305 CURVE",
"443 307 LINE",
"443 377 OFFCURVE",
"441 392 OFFCURVE",
"425 413 CURVE SMOOTH",
"406 438 OFFCURVE",
"368 454 OFFCURVE",
"320 454 CURVE SMOOTH",
"192 454 OFFCURVE",
"80 346 OFFCURVE",
"80 207 CURVE SMOOTH",
"80 60 OFFCURVE",
"182 -14 OFFCURVE",
"286 -14 CURVE SMOOTH",
"342 -14 OFFCURVE",
"385 2 OFFCURVE",
"433 34 CURVE SMOOTH",
"439 38 OFFCURVE",
"443 42 OFFCURVE",
"443 48 CURVE SMOOTH",
"443 53 OFFCURVE",
"440 64 OFFCURVE",
"436 73 CURVE",
"398 46 OFFCURVE",
"359 29 OFFCURVE",
"305 29 CURVE SMOOTH",
"250 29 OFFCURVE",
"155 76 OFFCURVE",
"155 236 CURVE SMOOTH",
"155 355 OFFCURVE",
"216 409 OFFCURVE",
"285 409 CURVE SMOOTH"
);
},
{
closed = 1;
nodes = (
"245 -95 LINE",
"364 541 LINE",
"334 541 LINE",
"215 -95 LINE"
);
}
);
width = 530;
}
);
leftKerningGroup = cent.tf;
rightKerningGroup = cent.tf;
},
{
glyphname = dollar.tf;
lastChange = "2017-05-27 13:06:44 +0000";
layers = (
{
layerId = "4A3087DE-C6CF-4F86-8B90-A264D0797279";
paths = (
{
closed = 1;
nodes = (
"205 61 OFFCURVE",
"152 85 OFFCURVE",
"108 173 CURVE",
"93 173 LINE",
"89 152 OFFCURVE",
"88 137 OFFCURVE",
"88 125 CURVE SMOOTH",
"88 104 OFFCURVE",
"93 82 OFFCURVE",
"101 69 CURVE SMOOTH",
"123 33 OFFCURVE",
"178 23 OFFCURVE",
"224 23 CURVE SMOOTH",
"337 23 OFFCURVE",
"452 87 OFFCURVE",
"452 200 CURVE SMOOTH",
"452 271 OFFCURVE",
"411 316 OFFCURVE",
"281 401 CURVE",
"272 401 LINE",
"219 434 OFFCURVE",
"195 473 OFFCURVE",
"195 513 CURVE SMOOTH",
"195 571 OFFCURVE",
"235 604 OFFCURVE",
"299 600 CURVE",
"319 597 LINE",
"350 586 OFFCURVE",
"380 556 OFFCURVE",
"400 513 CURVE",
"415 513 LINE",
"416 559 OFFCURVE",
"417 584 OFFCURVE",
"404 604 CURVE SMOOTH",
"390 625 OFFCURVE",
"363 640 OFFCURVE",
"304 640 CURVE SMOOTH",
"224 640 OFFCURVE",
"129 577 OFFCURVE",
"129 481 CURVE SMOOTH",
"129 415 OFFCURVE",
"168 359 OFFCURVE",
"248 308 CURVE",
"259 308 LINE",
"345 253 OFFCURVE",
"375 209 OFFCURVE",
"375 158 CURVE SMOOTH",
"375 99 OFFCURVE",
"324 61 OFFCURVE",
"257 61 CURVE SMOOTH"
);
},
{
closed = 1;
nodes = (
"216 -58 LINE",
"352 714 LINE",
"318 714 LINE",
"182 -58 LINE"
);
}
);
width = 530;
}
);
leftKerningGroup = dollar.tf;
rightKerningGroup = dollar.tf;
},
{
glyphname = euro.tf;
lastChange = "2017-05-27 13:07:15 +0000";
layers = (
{
layerId = "4A3087DE-C6CF-4F86-8B90-A264D0797279";
paths = (
{
closed = 1;
nodes = (
"332 36 LINE",
"228 36 OFFCURVE",
"166 100 OFFCURVE",
"166 330 CURVE SMOOTH",
"166 515 OFFCURVE",
"209 623 OFFCURVE",
"310 623 CURVE",
"341 670 LINE",
"221 670 OFFCURVE",
"78 566 OFFCURVE",
"78 318 CURVE SMOOTH",
"78 90 OFFCURVE",
"167 -14 OFFCURVE",
"301 -14 CURVE"
);
},
{
closed = 1;
nodes = (
"428 254 LINE",
"437 288 LINE",
"15 288 LINE",
"5 254 LINE"
);
},
{
closed = 1;
nodes = (
"447 363 LINE",
"458 397 LINE",
"33 397 LINE",
"23 363 LINE"
);
},
{
closed = 1;
nodes = (
"373 623 OFFCURVE",
"424 592 OFFCURVE",
"460 502 CURVE",
"478 505 LINE",
"478 560 OFFCURVE",
"477 576 OFFCURVE",
"470 602 CURVE SMOOTH",
"458 647 OFFCURVE",
"408 670 OFFCURVE",
"341 670 CURVE",
"310 623 LINE"
);
},
{
closed = 1;
nodes = (
"371 -14 OFFCURVE",
"409 2 OFFCURVE",
"469 32 CURVE SMOOTH",
"479 37 OFFCURVE",
"484 42 OFFCURVE",
"484 50 CURVE SMOOTH",
"484 57 OFFCURVE",
"483 62 OFFCURVE",
"478 74 CURVE",
"430 47 OFFCURVE",
"385 36 OFFCURVE",
"332 36 CURVE",
"301 -14 LINE"
);
}
);
width = 530;
}
);
leftKerningGroup = euro.tf;
rightKerningGroup = euro.tf;
},
{
glyphname = sterling.tf;
lastChange = "2017-05-27 13:07:24 +0000";
layers = (
{
layerId = "4A3087DE-C6CF-4F86-8B90-A264D0797279";
paths = (
{
closed = 1;
nodes = (
"406 301 LINE",
"410 335 LINE",
"96 335 LINE",
"92 301 LINE"
);
},
{
closed = 1;
nodes = (
"436 -14 OFFCURVE",
"444 -13 OFFCURVE",
"468 8 CURVE SMOOTH",
"512 46 LINE",
"500 59 LINE",
"477 48 OFFCURVE",
"462 44 OFFCURVE",
"438 44 CURVE SMOOTH",
"423 44 OFFCURVE",
"394 48 OFFCURVE",
"356 55 CURVE SMOOTH",
"310 63 OFFCURVE",
"279 68 OFFCURVE",
"247 68 CURVE SMOOTH",
"194 68 OFFCURVE",
"135 49 OFFCURVE",
"69 18 CURVE",
"93 19 LINE",
"187 88 OFFCURVE",
"230 180 OFFCURVE",
"237 319 CURVE SMOOTH",
"250 574 OFFCURVE",
"264 615 OFFCURVE",
"320 615 CURVE SMOOTH",
"359 615 OFFCURVE",
"404 592 OFFCURVE",
"431 536 CURVE",
"446 537 LINE",
"446 561 OFFCURVE",
"445 589 OFFCURVE",
"443 608 CURVE SMOOTH",
"438 651 OFFCURVE",
"413 664 OFFCURVE",
"344 664 CURVE SMOOTH",
"222 664 OFFCURVE",
"166 491 OFFCURVE",
"157 320 CURVE SMOOTH",
"151 209 OFFCURVE",
"150 109 OFFCURVE",
"32 15 CURVE SMOOTH",
"27 11 OFFCURVE",
"27 9 OFFCURVE",
"33 -5 CURVE",
"104 6 OFFCURVE",
"156 11 OFFCURVE",
"197 11 CURVE SMOOTH",
"242 11 OFFCURVE",
"294 4 OFFCURVE",
"344 -5 CURVE SMOOTH",
"384 -12 OFFCURVE",
"405 -14 OFFCURVE",
"424 -14 CURVE SMOOTH"
);
}
);
width = 530;
}
);
leftKerningGroup = sterling.tf;
rightKerningGroup = sterling.tf;
},
{
glyphname = yen.tf;
lastChange = "2017-05-27 13:07:57 +0000";
layers = (
{
hints = (
{
origin = "{0, 0}";
scale = "{-1, 1}";
type = Corner;
name = _corner.STM.btm.1;
},
{
origin = "{0, 3}";
type = Corner;
name = _corner.STM.top.1;
},
{
origin = "{0, 12}";
scale = "{-1, 1}";
type = Corner;
name = _corner.STM.top.1;
options = 1;
},
{
origin = "{0, 15}";
type = Corner;
name = _corner.STM.btm.1;
}
);
layerId = "4A3087DE-C6CF-4F86-8B90-A264D0797279";
paths = (
{
closed = 1;
nodes = (
"296 0 LINE",
"296 329 LINE",
"274 254 LINE",
"477 650 LINE",
"431 650 LINE",
"380 536 OFFCURVE",
"328 431 OFFCURVE",
"273 330 CURVE",
"287 330 LINE",
"235 440 OFFCURVE",
"188 545 OFFCURVE",
"147 650 CURVE",
"53 650 LINE",
"238 256 LINE",
"220 331 LINE",
"220 0 LINE"
);
},
{
closed = 1;
nodes = (
"423 224 LINE",
"427 258 LINE",
"105 258 LINE",
"101 224 LINE"
);
},
{
closed = 1;
nodes = (
"427 310 LINE",
"431 344 LINE",
"289 344 LINE",
"273 312 LINE",
"231 344 LINE",
"109 344 LINE",
"105 310 LINE"
);
}
);
width = 530;
}
);
leftKerningGroup = yen.tf;
rightKerningGroup = yen.tf;
},
{
glyphname = plus;
lastChange = "2017-05-25 15:40:52 +0000";
layers = (
{
components = (
{
name = minus;
}
);
hints = (
{
origin = "{0, 3}";
target = "{0, 0}";
type = Cap;
name = _cap.punction.2;
},
{
origin = "{0, 1}";
target = "{0, 2}";
type = Cap;
name = _cap.punction.2;
}
);
layerId = "4A3087DE-C6CF-4F86-8B90-A264D0797279";
paths = (
{
closed = 1;
nodes = (
"284 94 LINE",
"284 484 LINE",
"246 484 LINE",
"246 94 LINE"
);
}
);
width = 530;
}
);
leftKerningGroup = plus;
rightKerningGroup = plus;
unicode = 002B;
},
{
glyphname = minus;
lastChange = "2017-05-25 15:40:52 +0000";
layers = (
{
hints = (
{
origin = "{0, 2}";
target = "{0, 3}";
type = Cap;
name = _cap.punction.1;
},
{
origin = "{0, 0}";
target = "{0, 1}";
type = Cap;
name = _cap.punction.1;
}
);
layerId = "4A3087DE-C6CF-4F86-8B90-A264D0797279";
paths = (
{
closed = 1;
nodes = (
"450 271 LINE",
"450 307 LINE",
"80 307 LINE",
"80 271 LINE"
);
}
);
width = 530;
}
);
leftKerningGroup = minus;
rightKerningGroup = minus;
unicode = 2212;
},
{
glyphname = multiply;
lastChange = "2017-05-25 15:40:52 +0000";
layers = (
{
layerId = "4A3087DE-C6CF-4F86-8B90-A264D0797279";
paths = (
{
closed = 1;
nodes = (
"439 145 LINE",
"329 247 OFFCURVE",
"223 353 OFFCURVE",
"121 463 CURVE",
"91 433 LINE",
"201 331 OFFCURVE",
"307 225 OFFCURVE",
"409 115 CURVE"
);
},
{
closed = 1;
nodes = (
"223 225 OFFCURVE",
"329 331 OFFCURVE",
"439 433 CURVE",
"409 463 LINE",
"307 353 OFFCURVE",
"201 247 OFFCURVE",
"91 145 CURVE",
"121 115 LINE"
);
}
);
width = 530;
}
);
leftKerningGroup = multiply;
rightKerningGroup = multiply;
unicode = 00D7;
},
{
glyphname = divide;
lastChange = "2017-05-25 15:40:52 +0000";
layers = (
{
components = (
{
name = minus;
}
);
layerId = "4A3087DE-C6CF-4F86-8B90-A264D0797279";
paths = (
{
closed = 1;
nodes = (
"286 101 OFFCURVE",
"303 118 OFFCURVE",
"303 139 CURVE SMOOTH",
"303 160 OFFCURVE",
"286 177 OFFCURVE",
"265 177 CURVE SMOOTH",
"244 177 OFFCURVE",
"227 160 OFFCURVE",
"227 139 CURVE SMOOTH",
"227 118 OFFCURVE",
"244 101 OFFCURVE",
"265 101 CURVE SMOOTH"
);
},
{
closed = 1;
nodes = (
"286 401 OFFCURVE",
"303 418 OFFCURVE",
"303 439 CURVE SMOOTH",
"303 460 OFFCURVE",
"286 477 OFFCURVE",
"265 477 CURVE SMOOTH",
"244 477 OFFCURVE",
"227 460 OFFCURVE",
"227 439 CURVE SMOOTH",
"227 418 OFFCURVE",
"244 401 OFFCURVE",
"265 401 CURVE SMOOTH"
);
}
);
width = 530;
}
);
leftKerningGroup = divide;
rightKerningGroup = divide;
unicode = 00F7;
},
{
glyphname = equal;
lastChange = "2017-05-25 15:40:52 +0000";
layers = (
{
hints = (
{
origin = "{0, 3}";
target = "{0, 0}";
type = Cap;
name = _cap.punction.1;
},
{
origin = "{1, 3}";
target = "{1, 0}";
type = Cap;
name = _cap.punction.1;
},
{
origin = "{1, 1}";
target = "{1, 2}";
type = Cap;
name = _cap.punction.1;
},
{
origin = "{0, 1}";
target = "{0, 2}";
type = Cap;
name = _cap.punction.1;
}
);
layerId = "4A3087DE-C6CF-4F86-8B90-A264D0797279";
paths = (
{
closed = 1;
nodes = (
"97 338 LINE",
"433 338 LINE",
"433 374 LINE",
"97 374 LINE"
);
},
{
closed = 1;
nodes = (
"97 198 LINE",
"433 198 LINE",
"433 234 LINE",
"97 234 LINE"
);
}
);
width = 530;
}
);
leftKerningGroup = equal;
rightKerningGroup = equal;
unicode = 003D;
},
{
glyphname = notequal;
lastChange = "2017-05-25 15:40:52 +0000";
layers = (
{
components = (
{
name = equal;
}
);
layerId = "4A3087DE-C6CF-4F86-8B90-A264D0797279";
paths = (
{
closed = 1;
nodes = (
"314 405 OFFCURVE",
"341 481 OFFCURVE",
"369 558 CURVE",
"322 558 LINE",
"300 479 OFFCURVE",
"280 420 OFFCURVE",
"254 340 CURVE SMOOTH",
"223 245 LINE SMOOTH",
"198 169 OFFCURVE",
"171 92 OFFCURVE",
"143 15 CURVE",
"190 15 LINE",
"212 94 OFFCURVE",
"232 153 OFFCURVE",
"258 233 CURVE SMOOTH",
"289 328 LINE SMOOTH"
);
}
);
width = 530;
}
);
leftKerningGroup = notequal;
rightKerningGroup = notequal;
unicode = 2260;
},
{
glyphname = greater;
lastChange = "2017-05-25 15:40:52 +0000";
layers = (
{
layerId = "4A3087DE-C6CF-4F86-8B90-A264D0797279";
paths = (
{
closed = 1;
nodes = (
"72 436 LINE",
"205 378 OFFCURVE",
"325 319 OFFCURVE",
"465 244 CURVE",
"465 273 LINE",
"335 206 OFFCURVE",
"204 143 OFFCURVE",
"72 82 CURVE",
"76 41 LINE",
"212 114 OFFCURVE",
"350 182 OFFCURVE",
"490 247 CURVE",
"490 273 LINE",
"338 345 OFFCURVE",
"212 408 OFFCURVE",
"76 479 CURVE"
);
}
);
width = 560;
}
);
leftKerningGroup = greater;
rightKerningGroup = greater;
unicode = 003E;
},
{
glyphname = greaterequal;
lastChange = "2017-05-25 15:40:52 +0000";
layers = (
{
hints = (
{
origin = "{0, 2}";
target = "{0, 3}";
type = Cap;
name = _cap.punction.1;
},
{
origin = "{0, 0}";
target = "{0, 1}";
type = Cap;
name = _cap.punction.1;
}
);
layerId = "4A3087DE-C6CF-4F86-8B90-A264D0797279";
paths = (
{
closed = 1;
nodes = (
"510 0 LINE",
"510 36 LINE",
"90 36 LINE",
"90 0 LINE"
);
},
{
closed = 1;
nodes = (
"92 458 LINE",
"225 402 OFFCURVE",
"356 345 OFFCURVE",
"485 286 CURVE",
"485 314 LINE",
"355 255 OFFCURVE",
"224 198 OFFCURVE",
"92 143 CURVE",
"96 101 LINE",
"232 165 OFFCURVE",
"370 227 OFFCURVE",
"510 287 CURVE",
"510 313 LINE",
"370 374 OFFCURVE",
"232 436 OFFCURVE",
"96 499 CURVE"
);
}
);
width = 600;
}
);
leftKerningGroup = greaterequal;
rightKerningGroup = greaterequal;
unicode = 2265;
},
{
glyphname = lessequal;
lastChange = "2017-05-25 15:40:52 +0000";
layers = (
{
hints = (
{
origin = "{1, 2}";
target = "{1, 3}";
type = Cap;
name = _cap.punction.1;
},
{
origin = "{1, 0}";
target = "{1, 1}";
type = Cap;
name = _cap.punction.1;
}
);
layerId = "4A3087DE-C6CF-4F86-8B90-A264D0797279";
paths = (
{
closed = 1;
nodes = (
"508 142 LINE",
"375 198 OFFCURVE",
"244 255 OFFCURVE",
"115 314 CURVE",
"115 286 LINE",
"245 345 OFFCURVE",
"376 402 OFFCURVE",
"508 457 CURVE",
"504 499 LINE",
"368 435 OFFCURVE",
"230 373 OFFCURVE",
"90 313 CURVE",
"90 287 LINE",
"230 226 OFFCURVE",
"368 164 OFFCURVE",
"504 101 CURVE"
);
},
{
closed = 1;
nodes = (
"510 0 LINE",
"510 36 LINE",
"90 36 LINE",
"90 0 LINE"
);
}
);
width = 600;
}
);
leftKerningGroup = lessequal;
rightKerningGroup = lessequal;
unicode = 2264;
},
{
glyphname = plusminus;
lastChange = "2017-05-25 15:40:52 +0000";
layers = (
{
hints = (
{
origin = "{1, 0}";
target = "{1, 1}";
type = Cap;
name = _cap.punction.2;
},
{
origin = "{1, 2}";
target = "{1, 3}";
type = Cap;
name = _cap.punction.2;
},
{
origin = "{2, 0}";
target = "{2, 1}";
type = Cap;
name = _cap.punction.1;
},
{
origin = "{0, 2}";
target = "{0, 3}";
type = Cap;
name = _cap.punction.1;
},
{
origin = "{0, 0}";
target = "{0, 1}";
type = Cap;
name = _cap.punction.1;
},
{
origin = "{2, 2}";
target = "{2, 3}";
type = Cap;
name = _cap.punction.1;
}
);
layerId = "4A3087DE-C6CF-4F86-8B90-A264D0797279";
paths = (
{
closed = 1;
nodes = (
"465 0 LINE",
"465 36 LINE",
"65 36 LINE",
"65 0 LINE"
);
},
{
closed = 1;
nodes = (
"246 116 LINE",
"284 116 LINE",
"284 520 LINE",
"246 520 LINE"
);
},
{
closed = 1;
nodes = (
"65 338 LINE",
"65 302 LINE",
"465 302 LINE",
"465 338 LINE"
);
}
);
width = 530;
}
);
leftKerningGroup = plusminus;
rightKerningGroup = plusminus;
unicode = 00B1;
},
{
glyphname = approxequal;
lastChange = "2017-05-25 15:40:52 +0000";
layers = (
{
layerId = "4A3087DE-C6CF-4F86-8B90-A264D0797279";
paths = (
{
closed = 1;
nodes = (
"380 360 OFFCURVE",
"373 346 OFFCURVE",
"353 346 CURVE SMOOTH",
"339 346 OFFCURVE",
"327 350 OFFCURVE",
"243 392 CURVE SMOOTH",
"169 429 OFFCURVE",
"153 432 OFFCURVE",
"139 432 CURVE SMOOTH",
"106 432 OFFCURVE",
"94 414 OFFCURVE",
"70 332 CURVE",
"89 324 OFFCURVE",
"91 325 OFFCURVE",
"92 328 CURVE",
"104 369 OFFCURVE",
"113 383 OFFCURVE",
"133 383 CURVE SMOOTH",
"147 383 OFFCURVE",
"159 379 OFFCURVE",
"243 337 CURVE SMOOTH",
"317 300 OFFCURVE",
"333 297 OFFCURVE",
"347 297 CURVE SMOOTH",
"380 297 OFFCURVE",
"392 315 OFFCURVE",
"416 397 CURVE",
"397 405 OFFCURVE",
"395 404 OFFCURVE",
"394 401 CURVE SMOOTH"
);
},
{
closed = 1;
nodes = (
"380 209 OFFCURVE",
"373 195 OFFCURVE",
"353 195 CURVE SMOOTH",
"339 195 OFFCURVE",
"327 199 OFFCURVE",
"243 241 CURVE SMOOTH",
"169 278 OFFCURVE",
"153 281 OFFCURVE",
"139 281 CURVE SMOOTH",
"106 281 OFFCURVE",
"94 263 OFFCURVE",
"70 181 CURVE",
"89 173 OFFCURVE",
"91 174 OFFCURVE",
"92 177 CURVE",
"104 218 OFFCURVE",
"113 232 OFFCURVE",
"133 232 CURVE SMOOTH",
"147 232 OFFCURVE",
"159 228 OFFCURVE",
"243 186 CURVE SMOOTH",
"317 149 OFFCURVE",
"333 146 OFFCURVE",
"347 146 CURVE SMOOTH",
"380 146 OFFCURVE",
"392 164 OFFCURVE",
"416 246 CURVE",
"397 254 OFFCURVE",
"395 253 OFFCURVE",
"394 250 CURVE SMOOTH"
);
}
);
width = 486;
}
);
leftKerningGroup = approxequal;
rightKerningGroup = approxequal;
unicode = 2248;
},
{
glyphname = asciitilde;
lastChange = "2017-05-25 15:40:52 +0000";
layers = (
{
layerId = "4A3087DE-C6CF-4F86-8B90-A264D0797279";
paths = (
{
closed = 1;
nodes = (
"380 284 OFFCURVE",
"373 270 OFFCURVE",
"353 270 CURVE SMOOTH",
"339 270 OFFCURVE",
"327 274 OFFCURVE",
"243 316 CURVE SMOOTH",
"169 353 OFFCURVE",
"153 356 OFFCURVE",
"139 356 CURVE SMOOTH",
"106 356 OFFCURVE",
"94 338 OFFCURVE",
"70 256 CURVE",
"89 248 OFFCURVE",
"91 249 OFFCURVE",
"92 252 CURVE",
"104 293 OFFCURVE",
"113 307 OFFCURVE",
"133 307 CURVE SMOOTH",
"147 307 OFFCURVE",
"159 303 OFFCURVE",
"243 261 CURVE SMOOTH",
"317 224 OFFCURVE",
"333 221 OFFCURVE",
"347 221 CURVE SMOOTH",
"380 221 OFFCURVE",
"392 239 OFFCURVE",
"416 321 CURVE",
"397 329 OFFCURVE",
"395 328 OFFCURVE",
"394 325 CURVE SMOOTH"
);
}
);
width = 486;
}
);
leftKerningGroup = asciitilde;
rightKerningGroup = asciitilde;
unicode = 007E;
},
{
glyphname = logicalnot;
lastChange = "2017-05-25 15:40:52 +0000";
layers = (
{
hints = (
{
origin = "{0, 5}";
target = "{0, 0}";
type = Cap;
name = _cap.punction.2;
},
{
origin = "{0, 2}";
target = "{0, 3}";
type = Cap;
name = _cap.punction.1;
}
);
layerId = "4A3087DE-C6CF-4F86-8B90-A264D0797279";
paths = (
{
closed = 1;
nodes = (
"441 169 LINE",
"441 338 LINE",
"82 338 LINE",
"82 302 LINE",
"403 302 LINE",
"403 169 LINE"
);
}
);
width = 530;
}
);
leftKerningGroup = logicalnot;
rightKerningGroup = logicalnot;
unicode = 00AC;
},
{
glyphname = emptyset;
lastChange = "2017-05-25 15:40:52 +0000";
layers = (
{
layerId = "4A3087DE-C6CF-4F86-8B90-A264D0797279";
paths = (
{
closed = 1;
nodes = (
"761 680 LINE",
"744 697 LINE",
"77 30 LINE",
"94 13 LINE"
);
},
{
closed = 1;
nodes = (
"617 -15 OFFCURVE",
"783 144 OFFCURVE",
"783 355 CURVE SMOOTH",
"783 566 OFFCURVE",
"617 725 OFFCURVE",
"419 725 CURVE SMOOTH",
"221 725 OFFCURVE",
"55 566 OFFCURVE",
"55 355 CURVE SMOOTH",
"55 144 OFFCURVE",
"221 -15 OFFCURVE",
"419 -15 CURVE SMOOTH"
);
},
{
closed = 1;
nodes = (
"234 7 OFFCURVE",
"79 156 OFFCURVE",
"79 355 CURVE SMOOTH",
"79 554 OFFCURVE",
"234 703 OFFCURVE",
"419 703 CURVE SMOOTH",
"604 703 OFFCURVE",
"759 554 OFFCURVE",
"759 355 CURVE SMOOTH",
"759 156 OFFCURVE",
"604 7 OFFCURVE",
"419 7 CURVE SMOOTH"
);
}
);
width = 838;
}
);
leftKerningGroup = emptyset;
rightKerningGroup = emptyset;
unicode = 2205;
},
{
glyphname = infinity;
lastChange = "2017-05-25 15:40:52 +0000";
layers = (
{
layerId = "4A3087DE-C6CF-4F86-8B90-A264D0797279";
paths = (
{
closed = 1;
nodes = (
"405 230 CURVE",
"468 117 OFFCURVE",
"539 79 OFFCURVE",
"615 79 CURVE SMOOTH",
"711 79 OFFCURVE",
"812 157 OFFCURVE",
"812 280 CURVE SMOOTH",
"812 376 OFFCURVE",
"757 457 OFFCURVE",
"649 457 CURVE SMOOTH",
"573 457 OFFCURVE",
"502 422 OFFCURVE",
"423 289 CURVE",
"446 256 LINE",
"496 364 OFFCURVE",
"558 413 OFFCURVE",
"621 413 CURVE SMOOTH",
"703 413 OFFCURVE",
"770 347 OFFCURVE",
"770 256 CURVE SMOOTH",
"770 178 OFFCURVE",
"717 129 OFFCURVE",
"653 129 CURVE SMOOTH",
"588 129 OFFCURVE",
"529 162 OFFCURVE",
"457 306 CURVE",
"394 419 OFFCURVE",
"303 457 OFFCURVE",
"237 457 CURVE SMOOTH",
"130 457 OFFCURVE",
"40 358 OFFCURVE",
"40 252 CURVE SMOOTH",
"40 140 OFFCURVE",
"109 79 OFFCURVE",
"207 79 CURVE SMOOTH",
"283 79 OFFCURVE",
"362 113 OFFCURVE",
"441 246 CURVE",
"418 274 LINE",
"367 170 OFFCURVE",
"303 122 OFFCURVE",
"231 122 CURVE SMOOTH",
"151 122 OFFCURVE",
"76 189 OFFCURVE",
"76 270 CURVE SMOOTH",
"76 346 OFFCURVE",
"135 405 OFFCURVE",
"207 405 CURVE SMOOTH",
"273 405 OFFCURVE",
"329 375 OFFCURVE"
);
}
);
width = 852;
}
);
leftKerningGroup = infinity;
rightKerningGroup = infinity;
unicode = 221E;
},
{
glyphname = integral;
lastChange = "2017-05-25 15:40:52 +0000";
layers = (
{
layerId = "4A3087DE-C6CF-4F86-8B90-A264D0797279";
paths = (
{
closed = 1;
nodes = (
"147 -134 OFFCURVE",
"166 -105 OFFCURVE",
"173 20 CURVE SMOOTH",
"206 579 LINE SMOOTH",
"213 697 OFFCURVE",
"272 764 OFFCURVE",
"341 764 CURVE SMOOTH",
"379 764 OFFCURVE",
"413 741 OFFCURVE",
"413 703 CURVE SMOOTH",
"413 693 OFFCURVE",
"408 685 OFFCURVE",
"383 659 CURVE",
"368 659 LINE",
"368 707 OFFCURVE",
"352 738 OFFCURVE",
"326 738 CURVE SMOOTH",
"292 738 OFFCURVE",
"280 700 OFFCURVE",
"276 619 CURVE SMOOTH",
"247 95 LINE SMOOTH",
"237 -86 OFFCURVE",
"177 -160 OFFCURVE",
"97 -160 CURVE SMOOTH",
"54 -160 OFFCURVE",
"30 -129 OFFCURVE",
"30 -99 CURVE SMOOTH",
"30 -91 OFFCURVE",
"35 -83 OFFCURVE",
"61 -55 CURVE",
"76 -55 LINE",
"76 -106 OFFCURVE",
"93 -134 OFFCURVE",
"121 -134 CURVE SMOOTH"
);
}
);
width = 443;
}
);
leftKerningGroup = integral;
rightKerningGroup = integral;
unicode = 222B;
},
{
glyphname = product;
lastChange = "2017-05-27 13:07:42 +0000";
layers = (
{
hints = (
{
origin = "{1, 3}";
type = Corner;
name = _corner.STM.btm.1;
},
{
origin = "{0, 3}";
type = Corner;
name = _corner.STM.btm.1;
},
{
origin = "{1, 0}";
scale = "{-1, 1}";
type = Corner;
name = _corner.STM.btm.1;
},
{
origin = "{0, 0}";
scale = "{-1, 1}";
type = Corner;
name = _corner.STM.btm.1;
}
);
layerId = "4A3087DE-C6CF-4F86-8B90-A264D0797279";
paths = (
{
closed = 1;
nodes = (
"532 -210 LINE",
"532 737 LINE",
"456 737 LINE",
"456 -210 LINE"
);
},
{
closed = 1;
nodes = (
"222 -210 LINE",
"222 737 LINE",
"146 737 LINE",
"146 -210 LINE"
);
},
{
closed = 1;
nodes = (
"619 703 LINE",
"623 737 LINE",
"55 737 LINE",
"51 703 LINE"
);
}
);
width = 674;
}
);
leftKerningGroup = product;
rightKerningGroup = product;
unicode = 220F;
},
{
glyphname = summation;
lastChange = "2017-05-25 15:40:52 +0000";
layers = (
{
layerId = "4A3087DE-C6CF-4F86-8B90-A264D0797279";
paths = (
{
closed = 1;
nodes = (
"267 737 LINE SMOOTH",
"198 737 OFFCURVE",
"138 737 OFFCURVE",
"89 739 CURVE",
"87 724 LINE",
"148 581 OFFCURVE",
"204 437 OFFCURVE",
"245 322 CURVE",
"241 353 LINE",
"183 215 OFFCURVE",
"117 79 OFFCURVE",
"43 -57 CURVE",
"44 -72 LINE",
"93 -70 OFFCURVE",
"149 -70 OFFCURVE",
"200 -70 CURVE SMOOTH",
"377 -70 LINE SMOOTH",
"420 -70 OFFCURVE",
"462 -70 OFFCURVE",
"505 -72 CURVE SMOOTH",
"523 -73 OFFCURVE",
"531 -71 OFFCURVE",
"535 -63 CURVE SMOOTH",
"582 45 LINE",
"559 55 LINE",
"547 37 LINE SMOOTH",
"522 -1 OFFCURVE",
"495 -10 OFFCURVE",
"432 -10 CURVE SMOOTH",
"239 -10 LINE SMOOTH",
"192 -10 OFFCURVE",
"145 -9 OFFCURVE",
"98 -7 CURVE",
"102 -37 LINE",
"164 107 OFFCURVE",
"233 250 OFFCURVE",
"309 392 CURVE",
"303 341 LINE",
"249 467 OFFCURVE",
"201 593 OFFCURVE",
"157 719 CURVE",
"138 701 LINE",
"177 703 OFFCURVE",
"218 703 OFFCURVE",
"264 703 CURVE SMOOTH",
"337 703 LINE SMOOTH",
"413 703 OFFCURVE",
"447 695 OFFCURVE",
"470 661 CURVE SMOOTH",
"483 642 LINE",
"509 648 LINE",
"486 734 LINE SMOOTH",
"485 739 OFFCURVE",
"475 741 OFFCURVE",
"457 740 CURVE SMOOTH",
"407 737 OFFCURVE",
"368 737 OFFCURVE",
"319 737 CURVE SMOOTH"
);
}
);
width = 620;
}
);
leftKerningGroup = summation;
rightKerningGroup = summation;
unicode = 2211;
},
{
glyphname = radical;
lastChange = "2017-05-25 15:40:52 +0000";
layers = (
{
layerId = "4A3087DE-C6CF-4F86-8B90-A264D0797279";
paths = (
{
closed = 1;
nodes = (
"476 687 OFFCURVE",
"447 575 OFFCURVE",
"416 462 CURVE SMOOTH",
"275 -60 LINE",
"292 -59 LINE",
"239 64 OFFCURVE",
"191 184 OFFCURVE",
"149 307 CURVE",
"41 310 LINE",
"41 286 LINE",
"59 285 LINE SMOOTH",
"92 283 OFFCURVE",
"102 261 OFFCURVE",
"261 -160 CURVE",
"283 -160 LINE",
"451 454 LINE SMOOTH",
"484 574 OFFCURVE",
"517 687 OFFCURVE",
"553 800 CURVE",
"502 800 LINE"
);
}
);
width = 500;
}
);
leftKerningGroup = radical;
rightKerningGroup = radical;
unicode = 221A;
},
{
glyphname = partialdiff;
lastChange = "2017-05-27 13:08:43 +0000";
layers = (
{
layerId = "4A3087DE-C6CF-4F86-8B90-A264D0797279";
paths = (
{
closed = 1;
nodes = (
"382 -14 OFFCURVE",
"479 109 OFFCURVE",
"479 243 CURVE SMOOTH",
"479 337 OFFCURVE",
"439 396 OFFCURVE",
"295 537 CURVE SMOOTH",
"222 608 OFFCURVE",
"191 644 OFFCURVE",
"191 675 CURVE SMOOTH",
"191 692 OFFCURVE",
"203 714 OFFCURVE",
"227 728 CURVE",
"210 747 LINE",
"143 711 OFFCURVE",
"106 687 OFFCURVE",
"106 657 CURVE SMOOTH",
"106 625 OFFCURVE",
"131 590 OFFCURVE",
"221 504 CURVE SMOOTH",
"361 370 OFFCURVE",
"401 303 OFFCURVE",
"401 205 CURVE SMOOTH",
"401 101 OFFCURVE",
"346 32 OFFCURVE",
"270 32 CURVE SMOOTH",
"185 32 OFFCURVE",
"128 112 OFFCURVE",
"128 201 CURVE SMOOTH",
"128 312 OFFCURVE",
"235 407 OFFCURVE",
"364 408 CURVE",
"319 446 LINE",
"194 405 OFFCURVE",
"48 323 OFFCURVE",
"48 163 CURVE SMOOTH",
"48 51 OFFCURVE",
"132 -14 OFFCURVE",
"230 -14 CURVE SMOOTH"
);
}
);
width = 521;
}
);
leftKerningGroup = partialdiff;
rightKerningGroup = partialdiff;
unicode = 2202;
},
{
glyphname = percent;
lastChange = "2017-05-25 15:40:52 +0000";
layers = (
{
components = (
{
name = elem.percento;
transform = "{1, 0, 0, 1, 15, 276}";
},
{
name = elem.percento;
transform = "{1, 0, 0, 1, 270, 0}";
}
);
layerId = "4A3087DE-C6CF-4F86-8B90-A264D0797279";
paths = (
{
closed = 1;
nodes = (
"213 158 LINE SMOOTH",
"177 100 OFFCURVE",
"140 43 OFFCURVE",
"101 -14 CURVE",
"151 -14 LINE",
"181 39 OFFCURVE",
"212 91 OFFCURVE",
"245 145 CURVE SMOOTH",
"373 352 LINE SMOOTH",
"409 410 OFFCURVE",
"446 467 OFFCURVE",
"485 524 CURVE",
"435 524 LINE",
"405 471 OFFCURVE",
"374 419 OFFCURVE",
"341 365 CURVE SMOOTH"
);
}
);
width = 577;
}
);
leftKerningGroup = percent;
rightKerningGroup = percent;
unicode = 0025;
},
{
glyphname = percent.tf;
lastChange = "2017-05-25 15:40:52 +0000";
layers = (
{
components = (
{
name = elem.percent.2;
transform = "{1, 0, 0, 1, -244, 370}";
},
{
name = elem.percent.2;
transform = "{1, 0, 0, 1, 60, 0}";
}
);
layerId = "4A3087DE-C6CF-4F86-8B90-A264D0797279";
paths = (
{
closed = 1;
nodes = (
"213 158 LINE SMOOTH",
"176 100 OFFCURVE",
"140 43 OFFCURVE",
"101 -14 CURVE",
"153 -14 LINE",
"183 39 OFFCURVE",
"212 90 OFFCURVE",
"247 145 CURVE SMOOTH",
"465 492 LINE SMOOTH",
"502 550 OFFCURVE",
"538 607 OFFCURVE",
"577 664 CURVE",
"525 664 LINE",
"495 611 OFFCURVE",
"464 558 OFFCURVE",
"431 505 CURVE SMOOTH"
);
}
);
width = 678;
}
);
leftKerningGroup = percent.tf;
rightKerningGroup = percent.tf;
},
{
glyphname = lozenge;
lastChange = "2017-05-25 15:40:52 +0000";
layers = (
{
layerId = "4A3087DE-C6CF-4F86-8B90-A264D0797279";
paths = (
{
closed = 1;
nodes = (
"280 -14 LINE",
"460 325 LINE",
"280 664 LINE",
"100 325 LINE"
);
},
{
closed = 1;
nodes = (
"291 29 LINE",
"140 325 LINE",
"291 621 LINE",
"269 621 LINE",
"420 325 LINE",
"269 29 LINE"
);
}
);
width = 560;
}
);
leftKerningGroup = lozenge;
rightKerningGroup = lozenge;
unicode = 25CA;
},
{
glyphname = at;
lastChange = "2017-05-27 07:25:39 +0000";
layers = (
{
layerId = "4A3087DE-C6CF-4F86-8B90-A264D0797279";
paths = (
{
closed = 1;
nodes = (
"466 324 OFFCURVE",
"441 340 OFFCURVE",
"406 340 CURVE SMOOTH",
"326 340 OFFCURVE",
"227 253 OFFCURVE",
"227 149 CURVE SMOOTH",
"227 94 OFFCURVE",
"250 65 OFFCURVE",
"295 65 CURVE SMOOTH",
"334 65 OFFCURVE",
"386 85 OFFCURVE",
"436 168 CURVE",
"430 170 LINE",
"402 120 OFFCURVE",
"428 76 OFFCURVE",
"499 76 CURVE SMOOTH",
"594 76 OFFCURVE",
"686 157 OFFCURVE",
"686 278 CURVE SMOOTH",
"686 423 OFFCURVE",
"567 530 OFFCURVE",
"408 530 CURVE SMOOTH",
"230 530 OFFCURVE",
"56 386 OFFCURVE",
"56 184 CURVE SMOOTH",
"56 -11 OFFCURVE",
"191 -108 OFFCURVE",
"353 -108 CURVE SMOOTH",
"448 -108 OFFCURVE",
"568 -73 OFFCURVE",
"587 -54 CURVE SMOOTH",
"590 -51 OFFCURVE",
"591 -48 OFFCURVE",
"591 -46 CURVE SMOOTH",
"591 -44 OFFCURVE",
"589 -41 OFFCURVE",
"581 -25 CURVE",
"525 -57 OFFCURVE",
"470 -69 OFFCURVE",
"406 -69 CURVE SMOOTH",
"229 -69 OFFCURVE",
"102 18 OFFCURVE",
"102 207 CURVE SMOOTH",
"102 371 OFFCURVE",
"245 489 OFFCURVE",
"393 489 CURVE SMOOTH",
"539 489 OFFCURVE",
"648 382 OFFCURVE",
"648 259 CURVE SMOOTH",
"648 177 OFFCURVE",
"592 108 OFFCURVE",
"524 108 CURVE SMOOTH",
"494 108 OFFCURVE",
"477 118 OFFCURVE",
"477 146 CURVE SMOOTH",
"477 177 OFFCURVE",
"495 248 OFFCURVE",
"528 352 CURVE",
"523 357 LINE",
"474 352 LINE",
"456 291 LINE",
"470 304 LINE"
);
},
{
closed = 1;
nodes = (
"428 177 OFFCURVE",
"379 111 OFFCURVE",
"328 111 CURVE SMOOTH",
"302 111 OFFCURVE",
"288 128 OFFCURVE",
"288 161 CURVE SMOOTH",
"288 223 OFFCURVE",
"338 310 OFFCURVE",
"410 310 CURVE SMOOTH",
"443 310 OFFCURVE",
"455 296 OFFCURVE",
"444 248 CURVE SMOOTH"
);
}
);
width = 783;
}
);
leftKerningGroup = at;
rightKerningGroup = at;
unicode = 0040;
},
{
glyphname = ampersand;
lastChange = "2017-05-28 08:50:13 +0000";
layers = (
{
layerId = "4A3087DE-C6CF-4F86-8B90-A264D0797279";
paths = (
{
closed = 1;
nodes = (
"370 313 OFFCURVE",
"414 346 OFFCURVE",
"457 346 CURVE SMOOTH",
"514 346 OFFCURVE",
"563 278 OFFCURVE",
"563 209 CURVE SMOOTH",
"563 103 OFFCURVE",
"481 42 OFFCURVE",
"349 42 CURVE SMOOTH",
"219 42 OFFCURVE",
"141 111 OFFCURVE",
"141 210 CURVE SMOOTH",
"141 286 OFFCURVE",
"195 344 OFFCURVE",
"282 344 CURVE SMOOTH",
"284 344 OFFCURVE",
"285 347 OFFCURVE",
"285 372 CURVE",
"211 387 OFFCURVE",
"183 441 OFFCURVE",
"183 507 CURVE SMOOTH",
"183 593 OFFCURVE",
"232 628 OFFCURVE",
"292 628 CURVE SMOOTH",
"361 628 OFFCURVE",
"401 593 OFFCURVE",
"437 497 CURVE",
"458 499 LINE",
"458 560 OFFCURVE",
"454 592 OFFCURVE",
"442 617 CURVE SMOOTH",
"429 645 OFFCURVE",
"402 664 OFFCURVE",
"332 664 CURVE SMOOTH",
"183 664 OFFCURVE",
"108 567 OFFCURVE",
"108 492 CURVE SMOOTH",
"108 412 OFFCURVE",
"168 363 OFFCURVE",
"240 360 CURVE",
"238 369 LINE",
"131 345 OFFCURVE",
"64 269 OFFCURVE",
"64 174 CURVE SMOOTH",
"64 45 OFFCURVE",
"177 -14 OFFCURVE",
"313 -14 CURVE SMOOTH",
"473 -14 OFFCURVE",
"633 97 OFFCURVE",
"633 233 CURVE SMOOTH",
"633 310 OFFCURVE",
"591 355 OFFCURVE",
"529 390 CURVE",
"510 376 LINE",
"559 389 LINE SMOOTH",
"642 411 OFFCURVE",
"709 463 OFFCURVE",
"709 537 CURVE SMOOTH",
"709 602 OFFCURVE",
"654 624 OFFCURVE",
"605 624 CURVE SMOOTH",
"584 624 OFFCURVE",
"560 620 OFFCURVE",
"542 612 CURVE SMOOTH",
"530 607 OFFCURVE",
"524 597 OFFCURVE",
"519 557 CURVE",
"524 553 LINE",
"547 563 OFFCURVE",
"561 566 OFFCURVE",
"582 566 CURVE SMOOTH",
"616 566 OFFCURVE",
"645 545 OFFCURVE",
"645 508 CURVE SMOOTH",
"645 462 OFFCURVE",
"606 426 OFFCURVE",
"522 404 CURVE SMOOTH",
"374 365 OFFCURVE",
"326 327 OFFCURVE",
"326 253 CURVE SMOOTH",
"326 194 OFFCURVE",
"391 164 OFFCURVE",
"452 164 CURVE SMOOTH",
"474 164 OFFCURVE",
"479 171 OFFCURVE",
"485 215 CURVE",
"480 219 LINE",
"419 219 OFFCURVE",
"370 231 OFFCURVE",
"370 274 CURVE SMOOTH"
);
}
);
width = 733;
}
);
leftKerningGroup = ampersand;
rightKerningGroup = ampersand;
unicode = 0026;
},
{
glyphname = paragraph;
lastChange = "2017-05-27 13:09:37 +0000";
layers = (
{
hints = (
{
origin = "{1, 1}";
type = Corner;
name = _corner.STM.btm.1;
},
{
origin = "{1, 5}";
type = Corner;
name = _corner.STM.btm.1;
},
{
origin = "{1, 2}";
scale = "{-1, 1}";
type = Corner;
name = _corner.STM.btm.1;
},
{
origin = "{1, 6}";
scale = "{-1, 1}";
type = Corner;
name = _corner.STM.btm.1;
}
);
layerId = "4A3087DE-C6CF-4F86-8B90-A264D0797279";
paths = (
{
closed = 1;
nodes = (
"129 559 OFFCURVE",
"160 616 OFFCURVE",
"256 616 CURVE SMOOTH",
"296 616 LINE",
"306 650 LINE",
"282 650 LINE SMOOTH",
"264 650 OFFCURVE",
"243 650 OFFCURVE",
"226 649 CURVE SMOOTH",
"118 643 OFFCURVE",
"53 580 OFFCURVE",
"53 465 CURVE SMOOTH",
"53 350 OFFCURVE",
"108 287 OFFCURVE",
"216 281 CURVE SMOOTH",
"233 280 OFFCURVE",
"254 280 OFFCURVE",
"272 280 CURVE SMOOTH",
"298 280 LINE",
"298 314 LINE",
"258 315 LINE SMOOTH",
"185 317 OFFCURVE",
"129 357 OFFCURVE",
"129 463 CURVE SMOOTH"
);
},
{
closed = 1;
nodes = (
"282 650 LINE",
"282 -219 LINE",
"358 -219 LINE",
"358 616 LINE",
"487 616 LINE",
"487 -219 LINE",
"563 -219 LINE",
"563 616 LINE",
"624 616 LINE",
"628 650 LINE"
);
}
);
width = 690;
}
);
leftKerningGroup = paragraph;
rightKerningGroup = paragraph;
unicode = 00B6;
},
{
glyphname = section;
lastChange = "2017-05-27 13:10:24 +0000";
layers = (
{
layerId = "4A3087DE-C6CF-4F86-8B90-A264D0797279";
paths = (
{
closed = 1;
nodes = (
"168 -114 OFFCURVE",
"130 -95 OFFCURVE",
"99 -41 CURVE",
"82 -44 LINE",
"83 -126 OFFCURVE",
"107 -154 OFFCURVE",
"169 -154 CURVE SMOOTH",
"268 -154 OFFCURVE",
"363 -72 OFFCURVE",
"363 3 CURVE SMOOTH",
"363 53 OFFCURVE",
"340 95 OFFCURVE",
"262 142 CURVE SMOOTH",
"169 198 OFFCURVE",
"127 234 OFFCURVE",
"127 281 CURVE SMOOTH",
"127 341 OFFCURVE",
"199 386 OFFCURVE",
"295 387 CURVE",
"251 435 LINE",
"135 393 OFFCURVE",
"71 324 OFFCURVE",
"71 253 CURVE SMOOTH",
"71 182 OFFCURVE",
"120 137 OFFCURVE",
"200 84 CURVE SMOOTH",
"272 36 OFFCURVE",
"297 11 OFFCURVE",
"297 -28 CURVE SMOOTH",
"297 -78 OFFCURVE",
"256 -114 OFFCURVE",
"208 -114 CURVE SMOOTH"
);
},
{
closed = 1;
nodes = (
"245 112 LINE",
"374 168 OFFCURVE",
"421 224 OFFCURVE",
"421 287 CURVE SMOOTH",
"421 341 OFFCURVE",
"388 381 OFFCURVE",
"289 450 CURVE SMOOTH",
"208 507 OFFCURVE",
"193 533 OFFCURVE",
"193 560 CURVE SMOOTH",
"193 588 OFFCURVE",
"215 622 OFFCURVE",
"255 622 CURVE SMOOTH",
"279 622 OFFCURVE",
"319 612 OFFCURVE",
"355 574 CURVE",
"371 579 LINE",
"363 644 OFFCURVE",
"325 664 OFFCURVE",
"288 664 CURVE SMOOTH",
"231 664 OFFCURVE",
"136 601 OFFCURVE",
"136 532 CURVE SMOOTH",
"136 488 OFFCURVE",
"151 447 OFFCURVE",
"238 389 CURVE SMOOTH",
"321 333 OFFCURVE",
"354 304 OFFCURVE",
"354 255 CURVE SMOOTH",
"354 211 OFFCURVE",
"318 156 OFFCURVE",
"207 156 CURVE"
);
}
);
width = 503;
}
);
leftKerningGroup = section;
rightKerningGroup = section;
unicode = 00A7;
},
{
glyphname = copyright;
lastChange = "2017-05-25 21:12:57 +0000";
layers = (
{
layerId = "4A3087DE-C6CF-4F86-8B90-A264D0797279";
paths = (
{
closed = 1;
nodes = (
"504 168 OFFCURVE",
"476 159 OFFCURVE",
"425 159 CURVE SMOOTH",
"338 159 OFFCURVE",
"262 212 OFFCURVE",
"262 346 CURVE SMOOTH",
"262 438 OFFCURVE",
"318 494 OFFCURVE",
"386 494 CURVE SMOOTH",
"447 494 OFFCURVE",
"495 475 OFFCURVE",
"539 402 CURVE",
"551 403 LINE",
"551 439 OFFCURVE",
"550 457 OFFCURVE",
"546 474 CURVE SMOOTH",
"538 510 OFFCURVE",
"491 540 OFFCURVE",
"433 540 CURVE SMOOTH",
"321 540 OFFCURVE",
"209 447 OFFCURVE",
"209 312 CURVE SMOOTH",
"209 183 OFFCURVE",
"298 114 OFFCURVE",
"396 114 CURVE SMOOTH",
"459 114 OFFCURVE",
"518 138 OFFCURVE",
"559 176 CURVE",
"545 197 LINE"
);
},
{
closed = 1;
nodes = (
"210 664 OFFCURVE",
"64 516 OFFCURVE",
"64 325 CURVE",
"102 325 LINE",
"102 496 OFFCURVE",
"224 630 OFFCURVE",
"403 630 CURVE",
"403 664 LINE"
);
},
{
closed = 1;
nodes = (
"403 630 LINE",
"582 630 OFFCURVE",
"704 496 OFFCURVE",
"704 325 CURVE",
"742 325 LINE",
"742 516 OFFCURVE",
"596 664 OFFCURVE",
"403 664 CURVE"
);
},
{
closed = 1;
nodes = (
"403 20 LINE",
"224 20 OFFCURVE",
"102 154 OFFCURVE",
"102 325 CURVE",
"64 325 LINE",
"64 134 OFFCURVE",
"210 -14 OFFCURVE",
"403 -14 CURVE"
);
},
{
closed = 1;
nodes = (
"596 -14 OFFCURVE",
"742 134 OFFCURVE",
"742 325 CURVE",
"704 325 LINE",
"704 154 OFFCURVE",
"582 20 OFFCURVE",
"403 20 CURVE",
"403 -14 LINE"
);
}
);
width = 806;
}
);
leftKerningGroup = copyright;
rightKerningGroup = copyright;
unicode = 00A9;
},
{
glyphname = registered;
lastChange = "2017-05-25 21:13:04 +0000";
layers = (
{
layerId = "4A3087DE-C6CF-4F86-8B90-A264D0797279";
paths = (
{
closed = 1;
nodes = (
"261 494 LINE",
"269 495 OFFCURVE",
"276 495 OFFCURVE",
"284 495 CURVE SMOOTH",
"320 495 OFFCURVE",
"344 484 OFFCURVE",
"344 438 CURVE SMOOTH",
"344 409 OFFCURVE",
"324 383 OFFCURVE",
"282 383 CURVE SMOOTH",
"260 383 LINE",
"260 363 LINE",
"274 363 LINE SMOOTH",
"290 363 OFFCURVE",
"302 362 OFFCURVE",
"313 344 CURVE SMOOTH",
"368 256 LINE SMOOTH",
"380 236 OFFCURVE",
"395 231 OFFCURVE",
"405 231 CURVE SMOOTH",
"411 231 OFFCURVE",
"424 232 OFFCURVE",
"450 232 CURVE",
"452 248 LINE",
"429 249 OFFCURVE",
"422 255 OFFCURVE",
"377 326 CURVE SMOOTH",
"354 362 OFFCURVE",
"328 378 OFFCURVE",
"303 379 CURVE",
"301 369 LINE",
"353 375 OFFCURVE",
"394 405 OFFCURVE",
"394 447 CURVE SMOOTH",
"394 493 OFFCURVE",
"356 518 OFFCURVE",
"298 518 CURVE SMOOTH",
"283 518 OFFCURVE",
"271 517 OFFCURVE",
"245 517 CURVE"
);
},
{
closed = 1;
nodes = (
"311 156 LINE",
"192 156 OFFCURVE",
"100 237 OFFCURVE",
"100 372 CURVE",
"66 372 LINE",
"66 219 OFFCURVE",
"182 126 OFFCURVE",
"311 126 CURVE"
);
},
{
closed = 1;
nodes = (
"226 481 LINE",
"226 303 LINE SMOOTH",
"226 251 OFFCURVE",
"222 248 OFFCURVE",
"196 248 CURVE",
"196 232 LINE",
"218 233 OFFCURVE",
"234 233 OFFCURVE",
"247 233 CURVE",
"247 491 LINE"
);
},
{
closed = 1;
nodes = (
"247 233 LINE",
"260 233 OFFCURVE",
"276 233 OFFCURVE",
"298 232 CURVE",
"298 248 LINE",
"272 248 OFFCURVE",
"268 251 OFFCURVE",
"268 303 CURVE SMOOTH",
"268 511 LINE",
"247 517 LINE"
);
},
{
closed = 1;
nodes = (
"247 517 LINE",
"234 517 OFFCURVE",
"218 517 OFFCURVE",
"196 518 CURVE",
"196 502 LINE",
"222 502 OFFCURVE",
"226 499 OFFCURVE",
"226 447 CURVE SMOOTH",
"226 379 LINE",
"247 379 LINE"
);
},
{
closed = 1;
nodes = (
"440 126 OFFCURVE",
"556 219 OFFCURVE",
"556 372 CURVE",
"522 372 LINE",
"522 237 OFFCURVE",
"430 156 OFFCURVE",
"311 156 CURVE",
"311 126 LINE"
);
},
{
closed = 1;
nodes = (
"182 618 OFFCURVE",
"66 525 OFFCURVE",
"66 372 CURVE",
"100 372 LINE",
"100 507 OFFCURVE",
"192 588 OFFCURVE",
"311 588 CURVE",
"311 618 LINE"
);
},
{
closed = 1;
nodes = (
"311 588 LINE",
"430 588 OFFCURVE",
"522 507 OFFCURVE",
"522 372 CURVE",
"556 372 LINE",
"556 525 OFFCURVE",
"440 618 OFFCURVE",
"311 618 CURVE"
);
}
);
width = 622;
}
);
leftKerningGroup = registered;
rightKerningGroup = registered;
unicode = 00AE;
},
{
glyphname = trademark;
lastChange = "2017-05-25 15:40:52 +0000";
layers = (
{
layerId = "4A3087DE-C6CF-4F86-8B90-A264D0797279";
paths = (
{
closed = 1;
nodes = (
"617 19 OFFCURVE",
"611 47 CURVE SMOOTH",
"596 116 OFFCURVE",
"583 186 OFFCURVE",
"571 259 CURVE",
"550 259 LINE",
"518 190 OFFCURVE",
"485 127 OFFCURVE",
"449 68 CURVE",
"469 68 LINE",
"436 127 OFFCURVE",
"406 190 OFFCURVE",
"377 259 CURVE",
"356 259 LINE",
"344 189 OFFCURVE",
"331 123 OFFCURVE",
"315 57 CURVE SMOOTH",
"305 17 OFFCURVE",
"302 15 OFFCURVE",
"280 15 CURVE",
"280 -1 LINE",
"298 0 OFFCURVE",
"307 0 OFFCURVE",
"319 0 CURVE SMOOTH",
"330 0 OFFCURVE",
"342 0 OFFCURVE",
"360 -1 CURVE",
"360 15 LINE",
"339 15 OFFCURVE",
"335 20 OFFCURVE",
"341 57 CURVE SMOOTH",
"349 108 OFFCURVE",
"360 163 OFFCURVE",
"372 216 CURVE",
"354 206 LINE",
"388 145 OFFCURVE",
"418 81 OFFCURVE",
"446 14 CURVE",
"453 14 LINE",
"484 79 OFFCURVE",
"518 143 OFFCURVE",
"553 204 CURVE",
"534 211 LINE",
"547 163 OFFCURVE",
"558 107 OFFCURVE",
"565 52 CURVE SMOOTH",
"569 19 OFFCURVE",
"568 15 OFFCURVE",
"544 15 CURVE",
"544 -1 LINE",
"561 0 OFFCURVE",
"586 0 OFFCURVE",
"598 0 CURVE SMOOTH",
"612 0 OFFCURVE",
"629 0 OFFCURVE",
"649 -1 CURVE",
"649 15 LINE",
"623 15 OFFCURVE"
);
},
{
closed = 1;
nodes = (
"171 235 LINE",
"171 255 LINE",
"125 255 LINE SMOOTH",
"103 255 OFFCURVE",
"89 255 OFFCURVE",
"63 257 CURVE",
"57 257 OFFCURVE",
"54 257 OFFCURVE",
"53 253 CURVE SMOOTH",
"47 211 LINE",
"56 210 LINE",
"77 232 OFFCURVE",
"85 235 OFFCURVE",
"124 235 CURVE SMOOTH"
);
},
{
closed = 1;
nodes = (
"257 235 OFFCURVE",
"265 232 OFFCURVE",
"286 210 CURVE",
"295 211 LINE",
"289 253 LINE SMOOTH",
"288 257 OFFCURVE",
"285 257 OFFCURVE",
"279 257 CURVE",
"253 255 OFFCURVE",
"239 255 OFFCURVE",
"217 255 CURVE SMOOTH",
"171 255 LINE",
"171 235 LINE",
"218 235 LINE SMOOTH"
);
},
{
closed = 1;
nodes = (
"150 248 LINE",
"150 70 LINE SMOOTH",
"150 18 OFFCURVE",
"146 15 OFFCURVE",
"120 15 CURVE",
"120 -1 LINE",
"142 0 OFFCURVE",
"158 0 OFFCURVE",
"171 0 CURVE",
"171 248 LINE"
);
},
{
closed = 1;
nodes = (
"171 0 LINE",
"184 0 OFFCURVE",
"200 0 OFFCURVE",
"222 -1 CURVE",
"222 15 LINE",
"196 15 OFFCURVE",
"192 18 OFFCURVE",
"192 70 CURVE SMOOTH",
"192 248 LINE",
"171 248 LINE"
);
}
);
width = 689;
}
);
leftKerningGroup = trademark;
rightKerningGroup = trademark;
unicode = 2122;
},
{
glyphname = degree;
lastChange = "2017-05-25 15:40:52 +0000";
layers = (
{
layerId = "4A3087DE-C6CF-4F86-8B90-A264D0797279";
paths = (
{
closed = 1;
nodes = (
"128 670 OFFCURVE",
"83 625 OFFCURVE",
"83 566 CURVE",
"115 566 LINE",
"115 613 OFFCURVE",
"145 646 OFFCURVE",
"186 646 CURVE",
"186 670 LINE"
);
},
{
closed = 1;
nodes = (
"186 646 LINE",
"227 646 OFFCURVE",
"257 613 OFFCURVE",
"257 566 CURVE",
"289 566 LINE",
"289 625 OFFCURVE",
"244 670 OFFCURVE",
"186 670 CURVE"
);
},
{
closed = 1;
nodes = (
"186 486 LINE",
"145 486 OFFCURVE",
"115 519 OFFCURVE",
"115 566 CURVE",
"83 566 LINE",
"83 507 OFFCURVE",
"128 462 OFFCURVE",
"186 462 CURVE"
);
},
{
closed = 1;
nodes = (
"244 462 OFFCURVE",
"289 507 OFFCURVE",
"289 566 CURVE",
"257 566 LINE",
"257 519 OFFCURVE",
"227 486 OFFCURVE",
"186 486 CURVE",
"186 462 LINE"
);
}
);
width = 530;
}
);
leftKerningGroup = degree;
rightKerningGroup = degree;
unicode = 00B0;
},
{
glyphname = bar;
lastChange = "2017-05-25 15:40:52 +0000";
layers = (
{
hints = (
{
origin = "{0, 1}";
target = "{0, 2}";
type = Cap;
name = _cap.punction.2;
},
{
origin = "{0, 3}";
target = "{0, 0}";
type = Cap;
name = _cap.punction.2;
}
);
layerId = "4A3087DE-C6CF-4F86-8B90-A264D0797279";
paths = (
{
closed = 1;
nodes = (
"269 -200 LINE",
"269 800 LINE",
"231 800 LINE",
"231 -200 LINE"
);
}
);
width = 500;
}
);
leftKerningGroup = bar;
rightKerningGroup = bar;
unicode = 007C;
},
{
glyphname = brokenbar;
lastChange = "2017-05-25 15:40:52 +0000";
layers = (
{
hints = (
{
origin = "{1, 3}";
target = "{1, 0}";
type = Cap;
name = _cap.punction.2;
},
{
origin = "{0, 1}";
target = "{0, 2}";
type = Cap;
name = _cap.punction.2;
},
{
origin = "{0, 3}";
target = "{0, 0}";
type = Cap;
name = _cap.punction.2;
},
{
origin = "{1, 1}";
target = "{1, 2}";
type = Cap;
name = _cap.punction.2;
}
);
layerId = "4A3087DE-C6CF-4F86-8B90-A264D0797279";
paths = (
{
closed = 1;
nodes = (
"269 350 LINE",
"269 690 LINE",
"231 690 LINE",
"231 350 LINE"
);
},
{
closed = 1;
nodes = (
"269 -160 LINE",
"269 180 LINE",
"231 180 LINE",
"231 -160 LINE"
);
}
);
width = 500;
}
);
leftKerningGroup = brokenbar;
rightKerningGroup = brokenbar;
unicode = 00A6;
},
{
glyphname = dagger;
lastChange = "2017-05-25 15:40:52 +0000";
layers = (
{
layerId = "4A3087DE-C6CF-4F86-8B90-A264D0797279";
paths = (
{
closed = 1;
nodes = (
"306 -160 LINE",
"295 398 LINE",
"295 428 LINE",
"306 690 LINE",
"244 690 LINE",
"255 428 LINE",
"255 398 LINE",
"244 -160 LINE"
);
},
{
closed = 1;
nodes = (
"256 394 LINE",
"294 394 LINE",
"494 384 LINE",
"494 442 LINE",
"294 432 LINE",
"256 432 LINE",
"56 442 LINE",
"56 384 LINE"
);
}
);
width = 550;
}
);
leftKerningGroup = dagger;
rightKerningGroup = dagger;
unicode = 2020;
},
{
glyphname = daggerdbl;
lastChange = "2017-05-25 15:40:52 +0000";
layers = (
{
layerId = "4A3087DE-C6CF-4F86-8B90-A264D0797279";
paths = (
{
closed = 1;
nodes = (
"306 -160 LINE",
"295 102 LINE",
"295 428 LINE",
"306 690 LINE",
"244 690 LINE",
"255 428 LINE",
"255 102 LINE",
"244 -160 LINE"
);
},
{
closed = 1;
nodes = (
"256 98 LINE",
"294 98 LINE",
"494 88 LINE",
"494 146 LINE",
"294 136 LINE",
"256 136 LINE",
"56 146 LINE",
"56 88 LINE"
);
},
{
closed = 1;
nodes = (
"256 394 LINE",
"294 394 LINE",
"494 384 LINE",
"494 442 LINE",
"294 432 LINE",
"256 432 LINE",
"56 442 LINE",
"56 384 LINE"
);
}
);
width = 550;
}
);
leftKerningGroup = daggerdbl;
rightKerningGroup = daggerdbl;
unicode = 2021;
},
{
glyphname = asciicircum;
lastChange = "2017-05-25 15:40:52 +0000";
layers = (
{
layerId = "4A3087DE-C6CF-4F86-8B90-A264D0797279";
paths = (
{
closed = 1;
nodes = (
"75 191 LINE",
"311 463 LINE",
"287 463 LINE",
"524 192 LINE",
"542 202 LINE",
"304 530 LINE",
"296 530 LINE",
"58 202 LINE"
);
}
);
width = 600;
}
);
leftKerningGroup = asciicircum;
rightKerningGroup = asciicircum;
unicode = 005E;
},
{
glyphname = commaaccentcomb;
lastChange = "2017-05-27 13:12:51 +0000";
layers = (
{
anchors = (
{
name = _bottom;
position = "{151, 0}";
},
{
name = _topright;
position = "{63, -227}";
},
{
name = bottom;
position = "{151, -212}";
}
);
layerId = "4A3087DE-C6CF-4F86-8B90-A264D0797279";
paths = (
{
closed = 1;
nodes = (
"114 -110 OFFCURVE",
"91 -169 OFFCURVE",
"56 -227 CURVE",
"86 -227 LINE",
"126 -186 OFFCURVE",
"173 -106 OFFCURVE",
"190 -52 CURVE",
"124 -62 LINE"
);
}
);
width = 300;
}
);
},
{
export = 0;
glyphname = strokeshortcomb;
lastChange = "2017-05-27 06:50:23 +0000";
layers = (
{
anchors = (
{
name = _center;
position = "{132, 200}";
},
{
name = "_center#2";
position = "{172, 200}";
}
);
layerId = "4A3087DE-C6CF-4F86-8B90-A264D0797279";
paths = (
{
closed = 1;
nodes = (
"71 186 OFFCURVE",
"94 186 OFFCURVE",
"114 186 CURVE SMOOTH",
"258 186 LINE",
"260 216 LINE",
"233 214 OFFCURVE",
"210 214 OFFCURVE",
"190 214 CURVE SMOOTH",
"46 214 LINE",
"44 184 LINE"
);
}
);
width = 300;
}
);
unicode = 0335;
},
{
export = 0;
glyphname = slashshortcomb;
lastChange = "2017-05-27 06:50:23 +0000";
layers = (
{
anchors = (
{
name = _center;
position = "{149, 450}";
}
);
layerId = "4A3087DE-C6CF-4F86-8B90-A264D0797279";
paths = (
{
closed = 1;
nodes = (
"49 194 LINE",
"70 215 OFFCURVE",
"83 225 OFFCURVE",
"117 251 CURVE SMOOTH",
"247 349 LINE",
"249 394 LINE",
"227 373 OFFCURVE",
"211 360 OFFCURVE",
"187 342 CURVE SMOOTH",
"52 241 LINE"
);
}
);
width = 300;
}
);
unicode = 0337;
},
{
export = 0;
glyphname = strokeshortcomb.case;
lastChange = "2017-05-27 06:50:23 +0000";
layers = (
{
anchors = (
{
name = _center;
position = "{105, 198}";
},
{
name = "_center#2";
position = "{150, 198}";
}
);
layerId = "4A3087DE-C6CF-4F86-8B90-A264D0797279";
paths = (
{
closed = 1;
nodes = (
"60 183 OFFCURVE",
"83 183 OFFCURVE",
"103 183 CURVE SMOOTH",
"260 183 LINE SMOOTH",
"263 183 OFFCURVE",
"267 186 OFFCURVE",
"267 215 CURVE",
"240 213 OFFCURVE",
"217 213 OFFCURVE",
"197 213 CURVE SMOOTH",
"40 213 LINE SMOOTH",
"37 213 OFFCURVE",
"33 207 OFFCURVE",
"33 181 CURVE"
);
}
);
width = 300;
}
);
},
{
export = 0;
glyphname = slashshortcomb.case;
lastChange = "2017-05-27 06:50:23 +0000";
layers = (
{
anchors = (
{
name = _center;
position = "{116, 273}";
}
);
layerId = "4A3087DE-C6CF-4F86-8B90-A264D0797279";
paths = (
{
closed = 1;
nodes = (
"42 197 LINE",
"66 220 OFFCURVE",
"84 235 OFFCURVE",
"118 261 CURVE",
"133 262 LINE",
"245 346 LINE",
"250 393 LINE",
"228 373 OFFCURVE",
"212 360 OFFCURVE",
"188 342 CURVE SMOOTH",
"132 300 LINE",
"126 307 LINE",
"48 245 LINE"
);
}
);
width = 300;
}
);
},
{
glyphname = acute;
lastChange = "2017-05-27 08:08:56 +0000";
layers = (
{
anchors = (
{
name = _top;
position = "{75, 520}";
}
);
associatedMasterId = "4A3087DE-C6CF-4F86-8B90-A264D0797279";
layerId = "284DCAF7-AB20-402F-AEDF-E1CEEB9773D4";
paths = (
{
closed = 1;
nodes = (
"93 604 LINE",
"218 760 LINE",
"112 760 LINE",
"40 604 LINE"
);
}
);
width = 258;
},
{
anchors = (
{
name = _top;
position = "{108, 520}";
}
);
associatedMasterId = "4A3087DE-C6CF-4F86-8B90-A264D0797279";
layerId = "005AA5DB-9C20-42D5-964E-7DFE1013E61C";
paths = (
{
closed = 1;
nodes = (
"125 604 LINE",
"286 780 LINE",
"112 780 LINE",
"40 604 LINE"
);
}
);
width = 326;
},
{
associatedMasterId = "4A3087DE-C6CF-4F86-8B90-A264D0797279";
layerId = "D3EC50DA-490D-4C50-99CC-6B1C78354A1C";
name = "new Layer";
width = 600;
},
{
anchors = (
{
name = _top;
position = "{150, 450}";
}
);
layerId = "4A3087DE-C6CF-4F86-8B90-A264D0797279";
paths = (
{
closed = 1;
nodes = (
"118 537 LINE SMOOTH",
"125 537 OFFCURVE",
"127 537 OFFCURVE",
"137 549 CURVE SMOOTH",
"258 699 LINE",
"193 699 LINE",
"165 646 OFFCURVE",
"135 593 OFFCURVE",
"102 538 CURVE"
);
}
);
width = 300;
}
);
unicode = 00B4;
},
{
glyphname = breve;
lastChange = "2017-05-27 08:08:30 +0000";
layers = (
{
anchors = (
{
name = _top;
position = "{164, 520}";
}
);
associatedMasterId = "4A3087DE-C6CF-4F86-8B90-A264D0797279";
layerId = "284DCAF7-AB20-402F-AEDF-E1CEEB9773D4";
paths = (
{
closed = 1;
nodes = (
"250 584 OFFCURVE",
"297 636 OFFCURVE",
"287 750 CURVE",
"229 750 LINE",
"231 682 OFFCURVE",
"209 654 OFFCURVE",
"164 654 CURVE SMOOTH",
"119 654 OFFCURVE",
"97 682 OFFCURVE",
"99 750 CURVE",
"41 750 LINE",
"31 636 OFFCURVE",
"77 584 OFFCURVE",
"164 584 CURVE SMOOTH"
);
}
);
width = 328;
},
{
anchors = (
{
name = _top;
position = "{181, 520}";
}
);
associatedMasterId = "4A3087DE-C6CF-4F86-8B90-A264D0797279";
layerId = "005AA5DB-9C20-42D5-964E-7DFE1013E61C";
paths = (
{
closed = 1;
nodes = (
"272 584 OFFCURVE",
"334 629 OFFCURVE",
"320 780 CURVE",
"234 780 LINE",
"237 714 OFFCURVE",
"216 690 OFFCURVE",
"181 690 CURVE SMOOTH",
"146 690 OFFCURVE",
"125 714 OFFCURVE",
"128 780 CURVE",
"42 780 LINE",
"28 629 OFFCURVE",
"89 584 OFFCURVE",
"181 584 CURVE SMOOTH"
);
}
);
width = 362;
},
{
associatedMasterId = "4A3087DE-C6CF-4F86-8B90-A264D0797279";
layerId = "D3EC50DA-490D-4C50-99CC-6B1C78354A1C";
name = "new Layer";
width = 600;
},
{
anchors = (
{
name = _top;
position = "{150, 450}";
}
);
layerId = "4A3087DE-C6CF-4F86-8B90-A264D0797279";
paths = (
{
closed = 1;
nodes = (
"150 591 LINE",
"101 591 OFFCURVE",
"62 610 OFFCURVE",
"65 690 CURVE",
"46 690 LINE",
"42 681 OFFCURVE",
"41 670 OFFCURVE",
"41 660 CURVE SMOOTH",
"41 586 OFFCURVE",
"93 543 OFFCURVE",
"150 543 CURVE"
);
},
{
closed = 1;
nodes = (
"207 543 OFFCURVE",
"259 586 OFFCURVE",
"259 660 CURVE SMOOTH",
"259 670 OFFCURVE",
"258 681 OFFCURVE",
"254 690 CURVE",
"235 690 LINE",
"238 610 OFFCURVE",
"199 591 OFFCURVE",
"150 591 CURVE",
"150 543 LINE"
);
}
);
width = 300;
}
);
unicode = 02D8;
},
{
glyphname = caron;
lastChange = "2017-05-27 08:07:19 +0000";
layers = (
{
anchors = (
{
name = _top;
position = "{171, 520}";
}
);
associatedMasterId = "4A3087DE-C6CF-4F86-8B90-A264D0797279";
layerId = "284DCAF7-AB20-402F-AEDF-E1CEEB9773D4";
paths = (
{
closed = 1;
nodes = (
"211 604 LINE",
"303 760 LINE",
"243 760 LINE",
"158 639 LINE",
"192 639 LINE",
"107 760 LINE",
"40 760 LINE",
"132 604 LINE"
);
}
);
width = 343;
},
{
anchors = (
{
name = _top;
position = "{202, 520}";
}
);
associatedMasterId = "4A3087DE-C6CF-4F86-8B90-A264D0797279";
layerId = "005AA5DB-9C20-42D5-964E-7DFE1013E61C";
paths = (
{
closed = 1;
nodes = (
"265 604 LINE",
"364 780 LINE",
"273 780 LINE",
"184 672 LINE",
"220 672 LINE",
"141 780 LINE",
"40 780 LINE",
"139 604 LINE"
);
}
);
width = 404;
},
{
associatedMasterId = "4A3087DE-C6CF-4F86-8B90-A264D0797279";
layerId = "D3EC50DA-490D-4C50-99CC-6B1C78354A1C";
name = "new Layer";
width = 600;
},
{
anchors = (
{
name = _top;
position = "{148, 450}";
}
);
layerId = "4A3087DE-C6CF-4F86-8B90-A264D0797279";
paths = (
{
closed = 1;
nodes = (
"240 680 LINE",
"139 591 LINE",
"163 591 LINE",
"62 680 LINE",
"42 672 LINE",
"146 544 LINE",
"154 544 LINE",
"258 672 LINE"
);
}
);
width = 296;
}
);
unicode = 02C7;
},
{
glyphname = cedilla;
lastChange = "2017-05-27 06:50:23 +0000";
layers = (
{
anchors = (
{
name = _bottom;
position = "{140, 0}";
}
);
associatedMasterId = "4A3087DE-C6CF-4F86-8B90-A264D0797279";
layerId = "284DCAF7-AB20-402F-AEDF-E1CEEB9773D4";
paths = (
{
closed = 1;
nodes = (
"179 -210 OFFCURVE",
"234 -178 OFFCURVE",
"234 -120 CURVE SMOOTH",
"234 -78 OFFCURVE",
"200 -43 OFFCURVE",
"135 -39 CURVE",
"138 -65 LINE",
"170 9 LINE",
"122 9 LINE",
"82 -84 LINE",
"133 -79 OFFCURVE",
"166 -90 OFFCURVE",
"166 -119 CURVE SMOOTH",
"166 -146 OFFCURVE",
"140 -158 OFFCURVE",
"103 -158 CURVE SMOOTH",
"91 -158 OFFCURVE",
"75 -156 OFFCURVE",
"60 -150 CURVE",
"40 -194 LINE",
"59 -205 OFFCURVE",
"82 -210 OFFCURVE",
"109 -210 CURVE SMOOTH"
);
}
);
width = 274;
},
{
anchors = (
{
name = _bottom;
position = "{157, 0}";
}
);
associatedMasterId = "4A3087DE-C6CF-4F86-8B90-A264D0797279";
layerId = "005AA5DB-9C20-42D5-964E-7DFE1013E61C";
paths = (
{
closed = 1;
nodes = (
"206 -210 OFFCURVE",
"266 -173 OFFCURVE",
"266 -114 CURVE SMOOTH",
"266 -63 OFFCURVE",
"226 -34 OFFCURVE",
"157 -29 CURVE",
"156 -65 LINE",
"202 9 LINE",
"129 9 LINE",
"83 -78 LINE",
"131 -73 OFFCURVE",
"158 -89 OFFCURVE",
"158 -114 CURVE SMOOTH",
"158 -137 OFFCURVE",
"137 -147 OFFCURVE",
"111 -147 CURVE SMOOTH",
"90 -147 OFFCURVE",
"76 -145 OFFCURVE",
"63 -140 CURVE",
"40 -187 LINE",
"63 -202 OFFCURVE",
"95 -210 OFFCURVE",
"133 -210 CURVE SMOOTH"
);
}
);
width = 306;
},
{
associatedMasterId = "4A3087DE-C6CF-4F86-8B90-A264D0797279";
layerId = "D3EC50DA-490D-4C50-99CC-6B1C78354A1C";
name = "new Layer";
width = 600;
},
{
anchors = (
{
name = _bottom;
position = "{146, 0}";
}
);
layerId = "4A3087DE-C6CF-4F86-8B90-A264D0797279";
paths = (
{
closed = 1;
nodes = (
"129 -43 CURVE",
"141 -69 LINE",
"146 -46 OFFCURVE",
"154 -23 OFFCURVE",
"165 0 CURVE",
"130 0 LINE",
"122 -25 OFFCURVE",
"110 -47 OFFCURVE",
"92 -72 CURVE",
"97 -75 LINE",
"162 -72 OFFCURVE",
"186 -96 OFFCURVE",
"186 -134 CURVE SMOOTH",
"186 -170 OFFCURVE",
"158 -188 OFFCURVE",
"123 -188 CURVE SMOOTH",
"100 -188 OFFCURVE",
"86 -185 OFFCURVE",
"69 -177 CURVE",
"60 -200 LINE",
"74 -210 OFFCURVE",
"105 -220 OFFCURVE",
"130 -220 CURVE SMOOTH",
"196 -220 OFFCURVE",
"242 -181 OFFCURVE",
"242 -126 CURVE SMOOTH",
"242 -80 OFFCURVE",
"202 -38 OFFCURVE"
);
}
);
width = 300;
}
);
unicode = 00B8;
},
{
glyphname = circumflex;
lastChange = "2017-05-27 08:07:28 +0000";
layers = (
{
anchors = (
{
name = _top;
position = "{175, 520}";
}
);
associatedMasterId = "4A3087DE-C6CF-4F86-8B90-A264D0797279";
layerId = "284DCAF7-AB20-402F-AEDF-E1CEEB9773D4";
paths = (
{
closed = 1;
nodes = (
"100 604 LINE",
"185 725 LINE",
"151 725 LINE",
"236 604 LINE",
"303 604 LINE",
"211 760 LINE",
"132 760 LINE",
"40 604 LINE"
);
}
);
width = 343;
},
{
anchors = (
{
name = _top;
position = "{202, 520}";
}
);
associatedMasterId = "4A3087DE-C6CF-4F86-8B90-A264D0797279";
layerId = "005AA5DB-9C20-42D5-964E-7DFE1013E61C";
paths = (
{
closed = 1;
nodes = (
"131 604 LINE",
"220 712 LINE",
"184 712 LINE",
"263 604 LINE",
"364 604 LINE",
"265 780 LINE",
"139 780 LINE",
"40 604 LINE"
);
}
);
width = 404;
},
{
associatedMasterId = "4A3087DE-C6CF-4F86-8B90-A264D0797279";
layerId = "D3EC50DA-490D-4C50-99CC-6B1C78354A1C";
name = "new Layer";
width = 600;
},
{
anchors = (
{
name = _top;
position = "{150, 450}";
}
);
layerId = "4A3087DE-C6CF-4F86-8B90-A264D0797279";
paths = (
{
closed = 1;
nodes = (
"60 544 LINE",
"161 633 LINE",
"137 633 LINE",
"238 544 LINE",
"258 552 LINE",
"154 680 LINE",
"146 680 LINE",
"42 552 LINE"
);
}
);
width = 300;
}
);
unicode = 02C6;
},
{
glyphname = dieresis;
lastChange = "2017-05-28 10:06:31 +0000";
layers = (
{
anchors = (
{
name = _top;
position = "{164, 520}";
}
);
associatedMasterId = "4A3087DE-C6CF-4F86-8B90-A264D0797279";
layerId = "284DCAF7-AB20-402F-AEDF-E1CEEB9773D4";
paths = (
{
closed = 1;
nodes = (
"222 630 OFFCURVE",
"266 630 OFFCURVE",
"288 636 CURVE",
"288 717 LINE",
"266 723 OFFCURVE",
"222 723 OFFCURVE",
"200 717 CURVE",
"200 636 LINE"
);
},
{
closed = 1;
nodes = (
"62 630 OFFCURVE",
"106 630 OFFCURVE",
"128 636 CURVE",
"128 717 LINE",
"106 723 OFFCURVE",
"62 723 OFFCURVE",
"40 717 CURVE",
"40 636 LINE"
);
}
);
width = 328;
},
{
anchors = (
{
name = _top;
position = "{245, 520}";
}
);
associatedMasterId = "4A3087DE-C6CF-4F86-8B90-A264D0797279";
layerId = "005AA5DB-9C20-42D5-964E-7DFE1013E61C";
paths = (
{
closed = 1;
nodes = (
"327 595 OFFCURVE",
"408 595 OFFCURVE",
"450 602 CURVE",
"450 756 LINE",
"408 763 OFFCURVE",
"327 763 OFFCURVE",
"285 756 CURVE",
"285 602 LINE"
);
},
{
closed = 1;
nodes = (
"82 595 OFFCURVE",
"163 595 OFFCURVE",
"205 602 CURVE",
"205 756 LINE",
"163 763 OFFCURVE",
"82 763 OFFCURVE",
"40 756 CURVE",
"40 602 LINE"
);
}
);
width = 490;
},
{
associatedMasterId = "4A3087DE-C6CF-4F86-8B90-A264D0797279";
layerId = "D3EC50DA-490D-4C50-99CC-6B1C78354A1C";
name = "new Layer";
width = 600;
},
{
anchors = (
{
name = _top;
position = "{150, 450}";
}
);
layerId = "4A3087DE-C6CF-4F86-8B90-A264D0797279";
paths = (
{
closed = 1;
nodes = (
"103 576 OFFCURVE",
"123 596 OFFCURVE",
"123 621 CURVE SMOOTH",
"123 646 OFFCURVE",
"103 666 OFFCURVE",
"78 666 CURVE SMOOTH",
"53 666 OFFCURVE",
"33 646 OFFCURVE",
"33 621 CURVE SMOOTH",
"33 596 OFFCURVE",
"53 576 OFFCURVE",
"78 576 CURVE SMOOTH"
);
},
{
closed = 1;
nodes = (
"247 576 OFFCURVE",
"267 596 OFFCURVE",
"267 621 CURVE SMOOTH",
"267 646 OFFCURVE",
"247 666 OFFCURVE",
"222 666 CURVE SMOOTH",
"197 666 OFFCURVE",
"177 646 OFFCURVE",
"177 621 CURVE SMOOTH",
"177 596 OFFCURVE",
"197 576 OFFCURVE",
"222 576 CURVE SMOOTH"
);
}
);
width = 300;
}
);
unicode = 00A8;
},
{
glyphname = dotaccent;
lastChange = "2017-05-27 12:24:56 +0000";
layers = (
{
anchors = (
{
name = _top;
position = "{84, 520}";
}
);
associatedMasterId = "4A3087DE-C6CF-4F86-8B90-A264D0797279";
layerId = "284DCAF7-AB20-402F-AEDF-E1CEEB9773D4";
paths = (
{
closed = 1;
nodes = (
"62 630 OFFCURVE",
"106 630 OFFCURVE",
"128 636 CURVE",
"128 717 LINE",
"106 723 OFFCURVE",
"62 723 OFFCURVE",
"40 717 CURVE",
"40 636 LINE"
);
}
);
width = 168;
},
{
anchors = (
{
name = _top;
position = "{130, 520}";
}
);
associatedMasterId = "4A3087DE-C6CF-4F86-8B90-A264D0797279";
layerId = "005AA5DB-9C20-42D5-964E-7DFE1013E61C";
paths = (
{
closed = 1;
nodes = (
"82 595 OFFCURVE",
"178 595 OFFCURVE",
"220 602 CURVE",
"220 756 LINE",
"178 763 OFFCURVE",
"82 763 OFFCURVE",
"40 756 CURVE",
"40 602 LINE"
);
}
);
width = 260;
},
{
associatedMasterId = "4A3087DE-C6CF-4F86-8B90-A264D0797279";
layerId = "D3EC50DA-490D-4C50-99CC-6B1C78354A1C";
name = "new Layer";
width = 600;
},
{
anchors = (
{
name = _top;
position = "{150, 450}";
}
);
layerId = "4A3087DE-C6CF-4F86-8B90-A264D0797279";
paths = (
{
closed = 1;
nodes = (
"175 576 OFFCURVE",
"195 596 OFFCURVE",
"195 621 CURVE SMOOTH",
"195 646 OFFCURVE",
"175 666 OFFCURVE",
"150 666 CURVE SMOOTH",
"125 666 OFFCURVE",
"105 646 OFFCURVE",
"105 621 CURVE SMOOTH",
"105 596 OFFCURVE",
"125 576 OFFCURVE",
"150 576 CURVE SMOOTH"
);
}
);
width = 300;
}
);
unicode = 02D9;
},
{
glyphname = grave;
lastChange = "2017-05-27 08:09:01 +0000";
layers = (
{
anchors = (
{
name = _top;
position = "{171, 520}";
}
);
associatedMasterId = "4A3087DE-C6CF-4F86-8B90-A264D0797279";
layerId = "284DCAF7-AB20-402F-AEDF-E1CEEB9773D4";
paths = (
{
closed = 1;
nodes = (
"218 604 LINE",
"146 760 LINE",
"40 760 LINE",
"165 604 LINE"
);
}
);
width = 258;
},
{
anchors = (
{
name = _top;
position = "{233, 520}";
}
);
associatedMasterId = "4A3087DE-C6CF-4F86-8B90-A264D0797279";
layerId = "005AA5DB-9C20-42D5-964E-7DFE1013E61C";
paths = (
{
closed = 1;
nodes = (
"286 604 LINE",
"214 780 LINE",
"40 780 LINE",
"201 604 LINE"
);
}
);
width = 326;
},
{
associatedMasterId = "4A3087DE-C6CF-4F86-8B90-A264D0797279";
layerId = "D3EC50DA-490D-4C50-99CC-6B1C78354A1C";
name = "new Layer";
width = 600;
},
{
anchors = (
{
name = _top;
position = "{150, 450}";
}
);
layerId = "4A3087DE-C6CF-4F86-8B90-A264D0797279";
paths = (
{
closed = 1;
nodes = (
"175 593 OFFCURVE",
"145 646 OFFCURVE",
"117 699 CURVE",
"52 699 LINE",
"173 549 LINE SMOOTH",
"183 537 OFFCURVE",
"185 537 OFFCURVE",
"192 537 CURVE SMOOTH",
"208 538 LINE"
);
}
);
width = 300;
}
);
unicode = 0060;
},
{
glyphname = hungarumlaut;
lastChange = "2017-05-27 08:09:05 +0000";
layers = (
{
anchors = (
{
name = _top;
position = "{168, 520}";
}
);
associatedMasterId = "4A3087DE-C6CF-4F86-8B90-A264D0797279";
layerId = "284DCAF7-AB20-402F-AEDF-E1CEEB9773D4";
paths = (
{
closed = 1;
nodes = (
"93 604 LINE",
"218 760 LINE",
"112 760 LINE",
"40 604 LINE"
);
},
{
closed = 1;
nodes = (
"249 604 LINE",
"374 760 LINE",
"268 760 LINE",
"196 604 LINE"
);
}
);
width = 414;
},
{
anchors = (
{
name = _top;
position = "{200, 520}";
}
);
associatedMasterId = "4A3087DE-C6CF-4F86-8B90-A264D0797279";
layerId = "005AA5DB-9C20-42D5-964E-7DFE1013E61C";
paths = (
{
closed = 1;
nodes = (
"125 604 LINE",
"286 780 LINE",
"112 780 LINE",
"40 604 LINE"
);
},
{
closed = 1;
nodes = (
"335 604 LINE",
"496 780 LINE",
"322 780 LINE",
"250 604 LINE"
);
}
);
width = 536;
},
{
associatedMasterId = "4A3087DE-C6CF-4F86-8B90-A264D0797279";
layerId = "D3EC50DA-490D-4C50-99CC-6B1C78354A1C";
name = "new Layer";
width = 600;
},
{
anchors = (
{
name = _top;
position = "{125, 450}";
}
);
layerId = "4A3087DE-C6CF-4F86-8B90-A264D0797279";
paths = (
{
closed = 1;
nodes = (
"29 537 LINE SMOOTH",
"36 537 OFFCURVE",
"38 537 OFFCURVE",
"48 549 CURVE SMOOTH",
"169 699 LINE",
"104 699 LINE",
"76 646 OFFCURVE",
"46 593 OFFCURVE",
"13 538 CURVE"
);
},
{
closed = 1;
nodes = (
"150 537 LINE SMOOTH",
"157 537 OFFCURVE",
"159 537 OFFCURVE",
"169 549 CURVE SMOOTH",
"290 699 LINE",
"225 699 LINE",
"197 646 OFFCURVE",
"167 593 OFFCURVE",
"134 538 CURVE"
);
}
);
width = 300;
}
);
unicode = 02DD;
},
{
glyphname = macron;
lastChange = "2017-05-27 07:49:12 +0000";
layers = (
{
anchors = (
{
name = _top;
position = "{145, 520}";
}
);
associatedMasterId = "4A3087DE-C6CF-4F86-8B90-A264D0797279";
layerId = "284DCAF7-AB20-402F-AEDF-E1CEEB9773D4";
paths = (
{
closed = 1;
nodes = (
"250 646 LINE",
"250 702 LINE",
"40 702 LINE",
"40 646 LINE"
);
}
);
width = 290;
},
{
anchors = (
{
name = _top;
position = "{179, 520}";
}
);
associatedMasterId = "4A3087DE-C6CF-4F86-8B90-A264D0797279";
layerId = "005AA5DB-9C20-42D5-964E-7DFE1013E61C";
paths = (
{
closed = 1;
nodes = (
"318 644 LINE",
"318 740 LINE",
"40 740 LINE",
"40 644 LINE"
);
}
);
width = 358;
},
{
associatedMasterId = "4A3087DE-C6CF-4F86-8B90-A264D0797279";
layerId = "D3EC50DA-490D-4C50-99CC-6B1C78354A1C";
name = "new Layer";
width = 600;
},
{
anchors = (
{
name = _top;
position = "{150, 450}";
}
);
layerId = "4A3087DE-C6CF-4F86-8B90-A264D0797279";
paths = (
{
closed = 1;
nodes = (
"75 583 OFFCURVE",
"98 583 OFFCURVE",
"118 583 CURVE SMOOTH",
"245 583 LINE SMOOTH",
"248 583 OFFCURVE",
"252 585 OFFCURVE",
"252 614 CURVE",
"225 612 OFFCURVE",
"202 612 OFFCURVE",
"182 612 CURVE SMOOTH",
"55 612 LINE SMOOTH",
"52 612 OFFCURVE",
"48 610 OFFCURVE",
"48 581 CURVE"
);
}
);
width = 300;
}
);
unicode = 00AF;
},
{
glyphname = ogonek;
lastChange = "2017-05-27 06:50:23 +0000";
layers = (
{
anchors = (
{
name = _ogonek;
position = "{216, 0}";
}
);
associatedMasterId = "4A3087DE-C6CF-4F86-8B90-A264D0797279";
layerId = "284DCAF7-AB20-402F-AEDF-E1CEEB9773D4";
paths = (
{
closed = 1;
nodes = (
"146 -165 OFFCURVE",
"122 -145 OFFCURVE",
"122 -106 CURVE SMOOTH",
"122 -62 OFFCURVE",
"147 -21 OFFCURVE",
"216 0 CURVE",
"132 10 LINE",
"82 -10 OFFCURVE",
"40 -65 OFFCURVE",
"40 -118 CURVE SMOOTH",
"40 -186 OFFCURVE",
"88 -220 OFFCURVE",
"147 -220 CURVE SMOOTH",
"175 -220 OFFCURVE",
"197 -213 OFFCURVE",
"220 -197 CURVE",
"225 -156 LINE",
"209 -162 OFFCURVE",
"194 -165 OFFCURVE",
"181 -165 CURVE SMOOTH"
);
}
);
width = 265;
},
{
anchors = (
{
name = _ogonek;
position = "{295, 0}";
}
);
associatedMasterId = "4A3087DE-C6CF-4F86-8B90-A264D0797279";
layerId = "005AA5DB-9C20-42D5-964E-7DFE1013E61C";
paths = (
{
closed = 1;
nodes = (
"185 -131 OFFCURVE",
"154 -107 OFFCURVE",
"154 -71 CURVE SMOOTH",
"154 -27 OFFCURVE",
"183 0 OFFCURVE",
"246 0 CURVE",
"123 8 LINE",
"64 -11 OFFCURVE",
"40 -60 OFFCURVE",
"40 -109 CURVE SMOOTH",
"40 -188 OFFCURVE",
"98 -220 OFFCURVE",
"160 -220 CURVE SMOOTH",
"219 -220 OFFCURVE",
"250 -212 OFFCURVE",
"285 -195 CURVE",
"290 -123 LINE",
"272 -129 OFFCURVE",
"254 -131 OFFCURVE",
"234 -131 CURVE SMOOTH"
);
}
);
width = 330;
},
{
associatedMasterId = "4A3087DE-C6CF-4F86-8B90-A264D0797279";
layerId = "D3EC50DA-490D-4C50-99CC-6B1C78354A1C";
name = "new Layer";
width = 600;
},
{
anchors = (
{
name = _ogonek;
position = "{232, 0}";
}
);
layerId = "4A3087DE-C6CF-4F86-8B90-A264D0797279";
paths = (
{
closed = 1;
nodes = (
"145 -202 OFFCURVE",
"120 -181 OFFCURVE",
"120 -126 CURVE SMOOTH",
"120 -62 OFFCURVE",
"168 -15 OFFCURVE",
"232 12 CURVE",
"209 19 LINE",
"131 -7 OFFCURVE",
"64 -70 OFFCURVE",
"64 -137 CURVE SMOOTH",
"64 -198 OFFCURVE",
"105 -228 OFFCURVE",
"147 -228 CURVE SMOOTH",
"185 -228 OFFCURVE",
"208 -217 OFFCURVE",
"231 -198 CURVE",
"224 -187 LINE",
"205 -198 OFFCURVE",
"190 -202 OFFCURVE",
"173 -202 CURVE SMOOTH"
);
}
);
width = 300;
}
);
unicode = 02DB;
},
{
glyphname = ring;
lastChange = "2017-05-27 07:50:48 +0000";
layers = (
{
anchors = (
{
name = _top;
position = "{142, 520}";
}
);
associatedMasterId = "4A3087DE-C6CF-4F86-8B90-A264D0797279";
layerId = "284DCAF7-AB20-402F-AEDF-E1CEEB9773D4";
paths = (
{
closed = 1;
nodes = (
"200 580 OFFCURVE",
"244 615 OFFCURVE",
"244 670 CURVE SMOOTH",
"244 725 OFFCURVE",
"200 760 OFFCURVE",
"142 760 CURVE SMOOTH",
"84 760 OFFCURVE",
"40 725 OFFCURVE",
"40 670 CURVE SMOOTH",
"40 615 OFFCURVE",
"84 580 OFFCURVE",
"142 580 CURVE SMOOTH"
);
},
{
closed = 1;
nodes = (
"115 622 OFFCURVE",
"94 639 OFFCURVE",
"94 670 CURVE SMOOTH",
"94 701 OFFCURVE",
"115 718 OFFCURVE",
"142 718 CURVE SMOOTH",
"169 718 OFFCURVE",
"190 701 OFFCURVE",
"190 670 CURVE SMOOTH",
"190 639 OFFCURVE",
"169 622 OFFCURVE",
"142 622 CURVE SMOOTH"
);
}
);
width = 284;
},
{
anchors = (
{
name = _top;
position = "{152, 520}";
}
);
associatedMasterId = "4A3087DE-C6CF-4F86-8B90-A264D0797279";
layerId = "005AA5DB-9C20-42D5-964E-7DFE1013E61C";
paths = (
{
closed = 1;
nodes = (
"219 590 OFFCURVE",
"264 632 OFFCURVE",
"264 692 CURVE SMOOTH",
"264 752 OFFCURVE",
"219 794 OFFCURVE",
"152 794 CURVE SMOOTH",
"85 794 OFFCURVE",
"40 752 OFFCURVE",
"40 692 CURVE SMOOTH",
"40 632 OFFCURVE",
"85 590 OFFCURVE",
"152 590 CURVE SMOOTH"
);
},
{
closed = 1;
nodes = (
"128 645 OFFCURVE",
"112 662 OFFCURVE",
"112 692 CURVE SMOOTH",
"112 721 OFFCURVE",
"128 739 OFFCURVE",
"152 739 CURVE SMOOTH",
"176 739 OFFCURVE",
"192 721 OFFCURVE",
"192 692 CURVE SMOOTH",
"192 662 OFFCURVE",
"176 645 OFFCURVE",
"152 645 CURVE SMOOTH"
);
}
);
width = 304;
},
{
associatedMasterId = "4A3087DE-C6CF-4F86-8B90-A264D0797279";
layerId = "D3EC50DA-490D-4C50-99CC-6B1C78354A1C";
name = "new Layer";
width = 600;
},
{
anchors = (
{
name = _top;
position = "{150, 450}";
}
);
layerId = "4A3087DE-C6CF-4F86-8B90-A264D0797279";
paths = (
{
closed = 1;
nodes = (
"205 525 OFFCURVE",
"250 561 OFFCURVE",
"250 610 CURVE SMOOTH",
"250 659 OFFCURVE",
"205 695 OFFCURVE",
"150 695 CURVE SMOOTH",
"94 695 OFFCURVE",
"50 659 OFFCURVE",
"50 610 CURVE SMOOTH",
"50 561 OFFCURVE",
"94 525 OFFCURVE",
"150 525 CURVE SMOOTH"
);
},
{
closed = 1;
nodes = (
"113 550 OFFCURVE",
"87 572 OFFCURVE",
"87 610 CURVE SMOOTH",
"87 648 OFFCURVE",
"113 670 OFFCURVE",
"150 670 CURVE SMOOTH",
"186 670 OFFCURVE",
"213 648 OFFCURVE",
"213 610 CURVE SMOOTH",
"213 572 OFFCURVE",
"186 550 OFFCURVE",
"150 550 CURVE SMOOTH"
);
}
);
width = 300;
}
);
unicode = 02DA;
},
